<ttFont>
          <CharString index="0">
            rmoveto
            -109 77 rlineto
            1 -3 -18 callsubr
            56 callsubr
            -3 hvcurveto
            -33 -43 43 callsubr
            -1 -3 -39 callgsubr
            148 -126 rlineto
            -2 2 46 callsubr
            4 1 1 2 2 hvcurveto
            148 126 rlineto
            39 callgsubr
            3 2 -57 callsubr
            2 vhcurveto
            -33 43 -15 callsubr
            -3 hhcurveto
            -2 -2 -3 callsubr
            hvcurveto
            endchar
          </CharString>
          <CharString index="1">
            -91 callgsubr
            125 83 42 31 42 vhcurveto
            -101 callgsubr
            return
          </CharString>
          <CharString index="2">
            -79 callgsubr
            137 73 30 11 29 vhcurveto
            -22 3 -9 -62 callgsubr
            -97 callsubr
            return
          </CharString>
          <CharString index="3">
            83 591 456 rmoveto
            -66 callsubr
            0 147 -24 27 10 8 3 13 vhcurveto
            54 callsubr
            -4 12 -22 vhcurveto
            -441 -52 callgsubr
            475 hlineto
            22 3 12 12 hvcurveto
            -76 callsubr
            return
          </CharString>
          <CharString index="4">
            98 327 -17 rmoveto
            137 164 44 227 220 -166 43 -135 -73 callgsubr
            hvcurveto
            150 117 -95 callsubr
            return
          </CharString>
          <CharString index="5">
            364 659 672 rmoveto
            18 -6 -10 11 -33 hhcurveto
            -207 hlineto
            -19 -14 -9 -23 -7 2 -9 3 -9 hvcurveto
            50 -165 -32 -123 -104 316 40 callgsubr
            -206 hlineto
            -19 -15 -10 -23 -7 1 -8 4 -9 hvcurveto
            214 6 callgsubr
            82 hlineto
            23 13 16 30 8 hvcurveto
            81 287 88 -288 rlineto
            -19 6 10 -26 29 hhcurveto
            69 hlineto
            24 14 16 30 9 hvcurveto
            194 618 rlineto
            3 11 2 8 5 vvcurveto
            10 -6 3 -12 vhcurveto
            -48 hlineto
            -22 -2 -17 -23 -6 hvcurveto
            -79 -305 rlineto
            -369 -66 rmoveto
            -17 -68 -143 438 rlineto
            22 hlineto
            8 10 -1 -15 5 hvcurveto
            466 -360 rmoveto
            -19 -73 -120 449 rlineto
            23 hlineto
            11 5 -3 -15 4 hvcurveto
            return
          </CharString>
          <CharString index="6">
            305 612 470 rmoveto
            24 -8 -12 6 -20 callgsubr
            -16 -5 2 -6 2 -7 hvcurveto
            42 -111 -29 -88 -80 209 rlineto
            23 -9 -11 7 -20 callgsubr
            -17 -5 1 -5 3 -7 hvcurveto
            165 -415 -50 callsubr
            78 188 71 -189 -50 callsubr
            178 428 rlineto
            2 5 1 5 4 vvcurveto
            7 -4 5 -13 vhcurveto
            -53 hlineto
            -26 -2 -12 -16 -6 hvcurveto
            -70 -211 rlineto
            -347 -58 rmoveto
            -18 -55 -119 311 rlineto
            24 -18 callgsubr
            419 -245 rmoveto
            -18 -54 -106 314 rlineto
            20 -18 callgsubr
            return
          </CharString>
          <CharString index="7">
            rlineto
            -4 3 3 -48 callgsubr
            2 -67 callgsubr
            hvcurveto
            return
          </CharString>
          <CharString index="8">
            rmoveto
            -51 -12 36 15 -6 hvcurveto
            8 -3 -1 8 -9 hhcurveto
            -58 60 callgsubr
            -6 -3 -113 85 -31 65 65 85 31 113 3 -3 6 -7 hvcurveto
            -58 hlineto
            -9 -1 -8 -8 -3 hvcurveto
            -15 -5 -13 -36 -51 hhcurveto
            endchar
          </CharString>
          <CharString index="9">
            rmoveto
            -35 28 -29 35 36 28 29 35 36 -28 28 -36 -35 -28 -28 -36 vhcurveto
            191 hmoveto
            -35 29 -29 35 35 29 29 35 36 -29 28 -35 -35 -29 -28 -36 vhcurveto
            endchar
          </CharString>
          <CharString index="10">
            454 -9 callgsubr
            -31 hlineto
            -17 -3 -12 -11 hvcurveto
            -398 vlineto
            -6 -9 -19 -8 -15 hhcurveto
            -29 -11 17 37 hvcurveto
            -42 -5 rmoveto
            -29 8 -15 16 -17 vhcurveto
            -13 -49 10 53 hvcurveto
            343 -82 callgsubr
            return
          </CharString>
          <CharString index="11">
            68 rmoveto
            -72 callgsubr
            210 hlineto
            62 13 -86 callsubr
            -35 -32 96 callsubr
            vhcurveto
            15 -8 -23 -63 callsubr
            return
          </CharString>
          <CharString index="12">
            rmoveto
            -43 -39 18 132 132 51 18 31 40 42 -29 -117 -124 -41 -30 -41 hvcurveto
            -37 -19 -81 callgsubr
            return
          </CharString>
          <CharString index="13">
            -64 callgsubr
            -10 30 96 -29 102 hhcurveto
            162 77 66 80 10 hvcurveto
            -87 callgsubr
            return
          </CharString>
          <CharString index="14">
            188 rmoveto
            -91 -9 -40 -32 -58 23 callsubr
            43 callsubr
            0 -2 47 callsubr
            -1 4 -1 vhcurveto
            -6 26 97 -25 108 hhcurveto
            162 87 94 115 10 hvcurveto
            29 355 rlineto
            57 5 24 41 57 23 callgsubr
            rlineto
            1 3 0 84 callsubr
            1 -3 1 vhcurveto
            6 -26 -10 callgsubr
            151 -56 callgsubr
            return
          </CharString>
          <CharString index="15">
            90 555 -1 71 callsubr
            7 -4 32 callgsubr
            30 17 rlineto
            7 5 9 7 10 vvcurveto
            4 -2 4 -3 5 vhcurveto
            -98 129 rlineto
            47 48 32 77 125 vvcurveto
            218 -133 64 -141 -12 callgsubr
            216 hlineto
            57 16 26 42 hvcurveto
            36 vlineto
            27 6 26 9 25 14 rrcurveto
            56 81 callgsubr
            -129 -40 -91 -94 -22 vhcurveto
            461 vlineto
            94 -18 40 -84 -117 vvcurveto
            -175 -338 -84 callsubr
            596 vlineto
            9 15 0 -1 14 hvcurveto
            return
          </CharString>
          <CharString index="16">
            52 45 -96 callsubr
            return
          </CharString>
          <CharString index="17">
            -106 -75 callsubr
            214 hlineto
            61 10 22 45 hvcurveto
            365 vlineto
            47 -10 21 -61 -87 callsubr
            return
          </CharString>
          <CharString index="18">
            -204 -618 rcurveline
            -4 -11 -2 -8 -6 vvcurveto
            -9 6 -3 10 vhcurveto
            50 47 callgsubr
            19 5 hvcurveto
            3 15 rlineto
            137 hlineto
            6 -17 rlineto
            -10 3 12 -19 33 hhcurveto
            return
          </CharString>
          <CharString index="19">
            49 callsubr
            3 -43 callsubr
            -17 26 rlineto
            5 -4 -1 2 -6 -7 -22 -21 -33 hhcurveto
            -43 -63 37 132 hvcurveto
            65 -188 rmoveto
            -71 1 -76 50 137 vvcurveto
            137 76 51 71 2 vhcurveto
            -42 -9 -65 -49 -20 callsubr
            65 -48 42 -8 vhcurveto
            return
          </CharString>
          <CharString index="20">
            -21 callsubr
            -360 -84 callsubr
            418 -82 callgsubr
            return
          </CharString>
          <CharString index="21">
            -86 callgsubr
            83 -37 44 -62 return
          </CharString>
          <CharString index="22">
            90 52 612 rmoveto
            -13 10 -3 11 21 156 30 0 vhcurveto
            -205 -532 rlineto
            -11 -28 -7 -17 -19 vvcurveto
            -16 8 -14 32 vhcurveto
            521 hlineto
            22 6 28 callgsubr
            65 vlineto
            13 -10 3 -11 -18 -183 -30 0 vhcurveto
            212 552 rlineto
            6 15 6 18 13 vvcurveto
            22 -14 6 -24 vhcurveto
            -500 hlineto
            -22 -6 -12 -12 hvcurveto
            293 -610 rmoveto
            -44 -6 231 599 rlineto
            20 hlineto
            11 4 -4 -7 -4 -2 -5 -2 -5 hvcurveto
            return
          </CharString>
          <CharString index="23">
            rmoveto
            -80 callgsubr
            return
          </CharString>
          <CharString index="24">
            31 7 -2 -29 hvcurveto
            return
          </CharString>
          <CharString index="25">
            rmoveto
            1 2 1 2 21 callsubr
            -1 3 -4 3 vhcurveto
            -51 42 70 callsubr
            22 callgsubr
            hhcurveto
            -4 86 callgsubr
            -2 hvcurveto
            -105 -144 rlineto
            return
          </CharString>
          <CharString index="26">
            -14 -22 callsubr
            71 9 23 46 hvcurveto
            247 vlineto
            161 125 rlineto
            9 101 callsubr
            vvcurveto
            6 -3 6 -4 4 vhcurveto
            -22 23 rlineto
            4 -4 -6 3 -7 hhcurveto
            -6 -6 -3 -7 -8 hvcurveto
            -108 -105 rlineto
            36 vlineto
            47 -11 23 -60 -87 callsubr
            return
          </CharString>
          <CharString index="27">
            91 133 -93 callsubr
            return
          </CharString>
          <CharString index="28">
            61 340 rmoveto
            -193 vlineto
            -46 callsubr
            197 88 vlineto
            -63 callgsubr
            return
          </CharString>
          <CharString index="29">
            33 381 247 rmoveto
            132 63 38 43 vhcurveto
            -45 callsubr
            1 vvcurveto
            5 -3 2 -3 2 vhcurveto
            32 -42 -94 36 -107 -5 callsubr
            return
          </CharString>
          <CharString index="30">
            -20 -3 -12 -11 1 hvcurveto
            3 -35 17 -206 0 vvcurveto
            -238 236 rlineto
            16 -16 -15 12 -25 hhcurveto
            -165 hlineto
            -26 -14 -11 -25 hvcurveto
            -637 vlineto
            -22 12 -6 12 vhcurveto
            61 hlineto
            18 3 12 11 -1 hvcurveto
            -3 35 return
          </CharString>
          <CharString index="31">
            45 vlineto
            13 -9 81 callsubr
            -169 -25 0 vhcurveto
            396 vlineto
            -41 -402 rmoveto
            -38 5 callsubr
            38 -5 rlineto
            return
          </CharString>
          <CharString index="32">
            45 68 rmoveto
            -72 callgsubr
            return
          </CharString>
          <CharString index="33">
            15 hhcurveto
            29 13 -20 -37 hvcurveto
            -365 vlineto
            -11 3 -12 -62 callgsubr
            360 vlineto
            return
          </CharString>
          <CharString index="34">
            270 220 56 rmoveto
            -91 -34 53 58 54 33 49 93 7 hvcurveto
            -8 0 -9 -8 vvcurveto
            -83 25 -61 40 -41 vhcurveto
            -7 -17 -24 -4 -25 hhcurveto
            435 344 rmoveto
            41 35 -30 -104 hvcurveto
            -154 hlineto
            117 4 44 17 30 hhcurveto
            -481 28 rmoveto
            26 21 -7 -51 hvcurveto
            -32 vlineto
            -99 -8 -96 -43 -120 vvcurveto
            -114 80 -60 113 43 45 9 18 43 vhcurveto
            -26 51 53 -11 59 hhcurveto
            114 93 38 35 43 87 callsubr
            -2 3 vhcurveto
            -17 29 -15 callsubr
            -3 -7 -23 -25 -38 hhcurveto
            -15 callgsubr
            221 38 hlineto
            217 -126 56 -106 -55 -48 -16 -20 -32 vhcurveto
            22 -31 -32 14 -64 hhcurveto
            -106 -92 -40 -31 -43 hvcurveto
            -4 -2 -5 -4 -5 vvcurveto
            -2 0 -3 102 callsubr
            17 -27 rlineto
            -4 3 7 callgsubr
            hhcurveto
            3 49 callsubr
            4 hvcurveto
            11 18 35 18 28 hhcurveto
            467 -375 rmoveto
            -66 -80 53 141 131 67 53 79 2 hvcurveto
            -51 -8 -55 -47 -131 vvcurveto
            -143 64 -42 42 -9 vhcurveto
            return
          </CharString>
          <CharString index="35">
            64 callsubr
            -121 255 vlineto
            114 35 32 44 vhcurveto
            19 8 -6 9 hhcurveto
            2 4 0 9 hvcurveto
            34 -37 callgsubr
            -246 -60 callsubr
            121 -135 vlineto
            65 callgsubr
            211 hlineto
            64 10 21 47 hvcurveto
            135 return
          </CharString>
          <CharString index="36">
            31 5 50 -76 -78 callgsubr
            return
          </CharString>
          <CharString index="37">
            45 87 callgsubr
            60 -16 callsubr
            -61 callsubr
            return
          </CharString>
          <CharString index="38">
            98 676 523 11 callgsubr
            -35 22 rlineto
            2 -3 53 callsubr
            hhcurveto
            -4 -3 -2 -4 -2 hvcurveto
            -67 -113 rlineto
            54 -61 -88 15 -78 88 callsubr
            122 -71 131 -14 hvcurveto
            -62 -103 rlineto
            -2 -4 0 callsubr
            -5 3 76 callgsubr
            33 -23 rlineto
            -2 3 3 -48 callgsubr
            5 4 3 4 1 hvcurveto
            83 139 rlineto
            131 6 143 53 212 vvcurveto
            57 -11 45 -19 36 vhcurveto
            -121 -292 rmoveto
            -17 -15 3 10 -13 hvcurveto
            122 205 rlineto
            3 -18 2 -21 -25 vvcurveto
            -124 -41 -30 -41 vhcurveto
            -82 150 rmoveto
            132 51 18 31 14 14 -4 -9 13 vhcurveto
            -119 -200 rlineto
            -3 18 -1 20 25 vvcurveto
            45 -169 -81 callgsubr
            return
          </CharString>
          <CharString index="39">
            256 -107 callgsubr
          </CharString>
          <CharString index="40">
            -34 26 -29 33 -5 vhcurveto
            -28 -61 93 callsubr
            -3 66 callgsubr
            7 vhcurveto
            35 hlineto
            11 1 5 9 5 hvcurveto
            39 92 rlineto
            4 10 4 14 12 vvcurveto
            37 -31 31 -37 -38 -31 -31 -37 vhcurveto
            endchar
          </CharString>
          <CharString index="41">
            -58 callsubr
            -182 124 hlineto
            return
          </CharString>
          <CharString index="42">
            38 -22 callsubr
            66 14 22 45 hvcurveto
            204 vlineto
            62 -2 21 -18 -59 vvcurveto
            -169 vlineto
            -11 3 -12 -62 callgsubr
            164 vlineto
            90 -37 45 -109 3 vhcurveto
            153 113 rlineto
            12 8 4 8 6 vvcurveto
            5 -2 4 -3 4 vhcurveto
            -25 25 rlineto
            4 -4 99 callsubr
            -7 -2 -7 -7 hvcurveto
            -117 -117 rlineto
            return
          </CharString>
          <CharString index="43">
            298 -168 73 -157 -52 callsubr
            return
          </CharString>
          <CharString index="44">
            5 -29 hhcurveto
            -200 -92 callgsubr
            318 -360 -84 callsubr
            418 vlineto
            27 11 -8 -23 hvcurveto
            return
          </CharString>
          <CharString index="45">
            986 203 rmoveto
            12 callsubr
            35 31 43 vhcurveto
            20 8 -5 8 hhcurveto
            2 5 0 8 hvcurveto
            54 callsubr
            -8 5 -5 2 vhcurveto
            22 -44 -89 19 -72 hhcurveto
            -124 -140 -72 callsubr
            vlineto
            return
          </CharString>
          <CharString index="46">
            -26 callsubr
            -660 -84 callsubr
            718 -82 callgsubr
            return
          </CharString>
          <CharString index="47">
            -34 callsubr
            41 -135 hlineto
            -72 callgsubr
            212 hlineto
            64 9 21 47 hvcurveto
            135 return
          </CharString>
          <CharString index="48">
            0 112 -24 22 10 9 3 13 vhcurveto
            55 vlineto
            12 -10 12 -22 vhcurveto
            -606 hlineto
            -22 -10 -12 -12 hvcurveto
            -55 vlineto
            -13 8 -3 11 22 112 24 0 vhcurveto
            322 -558 rmoveto
            -4 callgsubr
            607 vlineto
            38 -8 rlineto
            return
          </CharString>
          <CharString index="49">
            -51 callsubr
            49 -40 callgsubr
            return
          </CharString>
          <CharString index="50">
            vvcurveto
            -37 callsubr
            -2 return
          </CharString>
          <CharString index="51">
            -31 callsubr
            -67 -200 return
          </CharString>
          <CharString index="52">
            275 601 38 callsubr
            1 143 -25 32 7 10 4 12 vhcurveto
            54 callsubr
            -7 12 -19 vhcurveto
            -466 hlineto
            -30 -14 -16 -30 -13 hvcurveto
            -272 -624 rlineto
            -4 -10 -3 -7 -5 vvcurveto
            -8 8 -1 15 vhcurveto
            36 hlineto
            27 5 18 22 9 hvcurveto
            21 51 rlineto
            151 -23 hlineto
            -11 callsubr
            61 vhcurveto
            473 hlineto
            22 5 33 callgsubr
            12 -7 4 -10 -31 -162 -26 1 vhcurveto
            -493 91 rmoveto
            129 307 rlineto
            -307 vlineto
            323 -97 rmoveto
            -39 5 callsubr
            39 -5 rlineto
            return
          </CharString>
          <CharString index="53">
            -36 callsubr
            -129 -873 71 callsubr
            76 callgsubr
            -20 38 56 -12 86 hhcurveto
            115 167 30 235 hvcurveto
            379 vlineto
            -5 callgsubr
            -67 -4 -38 -30 hvcurveto
            -480 vlineto
            -51 -20 -25 -41 vhcurveto
            -28 -7 6 -8 25 callgsubr
            429 189 rmoveto
            -92 -17 -54 -50 -42 vhcurveto
            28 58 1 53 60 vvcurveto
            415 7 callsubr
          </CharString>
          <CharString index="54">
            -21 callgsubr
            5 -8 5 vhcurveto
            -22 16 rlineto
            3 -6 -4 3 -47 callgsubr
            -3 4 3 -1 31 callsubr
            return
          </CharString>
          <CharString index="55">
            -24 callgsubr
            -298 168 -74 157 return
          </CharString>
          <CharString index="56">
            6 -53 callgsubr
            return
          </CharString>
          <CharString index="57">
            rlineto
            -18 7 13 -27 29 hhcurveto
            78 hlineto
            24 13 16 30 12 hvcurveto
            return
          </CharString>
          <CharString index="58">
            rmoveto
            117 4 44 17 30 hhcurveto
            41 35 -30 -104 hvcurveto
            return
          </CharString>
          <CharString index="59">
            -28 callgsubr
            121 -40 callsubr
            10 26 26 vvcurveto
            27 -10 25 95 callgsubr
            return
          </CharString>
          <CharString index="60">
            617 -53 callsubr
            -128 622 rmoveto
            -259 vlineto
            -27 8 -13 38 vhcurveto
            126 hlineto
            51 -3 23 17 hvcurveto
            292 vlineto
            24 2 24 -38 -3 -13 -1 -1 -6 -9 callsubr
            -29 rlineto
            -13 -2 -1 return
          </CharString>
          <CharString index="61">
            -150 93 -14 124 86 88 22 21 49 vhcurveto
            4 1 7 4 12 vvcurveto
            38 vlineto
            3 91 callgsubr
            -7 -18 -7 -14 hhcurveto
            -32 -15 17 46 hvcurveto
            return
          </CharString>
          <CharString index="62">
            33 19 -20 7 103 callsubr
            2 5 4 hvcurveto
            17 27 rlineto
            53 callgsubr
            return
          </CharString>
          <CharString index="63">
            1 -3 2 -2 vhcurveto
            return
          </CharString>
          <CharString index="64">
            4 vvcurveto
            2 0 -28 callsubr
            return
          </CharString>
          <CharString index="65">
            3 -67 callgsubr
            return
          </CharString>
          <CharString index="66">
            vvcurveto
            -83 74 -27 -34 callgsubr
            return
          </CharString>
          <CharString index="67">
            71 rmoveto
            36 -4 27 -30 -6 callsubr
            16 19 return
          </CharString>
          <CharString index="68">
            -7 -24 callsubr
            return
          </CharString>
          <CharString index="69">
            rmoveto
            3 5 2 5 5 37 callsubr
            -7 5 vhcurveto
            -49 32 rlineto
            4 -6 -5 90 callgsubr
            -9 -6 hvcurveto
            -140 -189 rlineto
            -5 -7 -1 -5 -4 vvcurveto
            -8 return
          </CharString>
          <CharString index="70">
            2 -1 3 return
          </CharString>
          <CharString index="71">
            -89 73 -73 90 89 73 73 89 3 callgsubr
            vhcurveto
            return
          </CharString>
          <CharString index="72">
            13 callgsubr
            -84 74 -93 -92 -64 -41 callgsubr
            return
          </CharString>
          <CharString index="73">
            -41 vlineto
            -26 callgsubr
            return
          </CharString>
          <CharString index="74">
            rmoveto
            -52 vlineto
            -336 334 rlineto
            35 hlineto
            12 6 -1 -12 11 hvcurveto
            return
          </CharString>
          <CharString index="75">
            hlineto
            76 4 50 29 hvcurveto
            return
          </CharString>
          <CharString index="76">
            -147 -154 return
          </CharString>
          <CharString index="77">
            hlineto
            -23 -4 -18 -22 -8 hvcurveto
            -78 -225 -86 236 rlineto
            10 return
          </CharString>
          <CharString index="78">
            51 callgsubr
            5 -5 7 8 9 11 4 3 vhcurveto
            173 208 rlineto
            4 5 6 5 6 vvcurveto
            6 -6 5 -4 5 vhcurveto
            -173 208 rlineto
            3 -3 -9 12 -8 hhcurveto
            -7 -5 30 callgsubr
            endchar
          </CharString>
          <CharString index="79">
            7 callgsubr
            vhcurveto
            return
          </CharString>
          <CharString index="80">
            hlineto
            61 -44 callgsubr
            -61 -9 callsubr
            -92 callgsubr
            return
          </CharString>
          <CharString index="81">
            -60 -21 callsubr
            return
          </CharString>
          <CharString index="82">
            rlineto
            -2 -57 callgsubr
            return
          </CharString>
          <CharString index="83">
            -3 -3 -7 hvcurveto
            return
          </CharString>
          <CharString index="84">
            1 callgsubr
            3 return
          </CharString>
          <CharString index="85">
            -75 callsubr
            205 hlineto
            return
          </CharString>
          <CharString index="86">
            -9 callsubr
            -92 callgsubr
            318 return
          </CharString>
          <CharString index="87">
            43 callgsubr
            -132 return
          </CharString>
          <CharString index="88">
            -71 callsubr
            323 return
          </CharString>
          <CharString index="89">
            -2 2 -2 return
          </CharString>
          <CharString index="90">
            rmoveto
            -36 callsubr
            return
          </CharString>
          <CharString index="91">
            12 22 45 hvcurveto
            665 vlineto
            46 -11 22 return
          </CharString>
          <CharString index="92">
            rlineto
            4 67 callgsubr
            return
          </CharString>
          <CharString index="93">
            rmoveto
            34 -27 29 -32 5 vhcurveto
            27 61 rlineto
            2 3 1 3 2 vvcurveto
            3 -3 2 -6 vhcurveto
            -36 hlineto
            -11 -1 -5 -9 -5 hvcurveto
            -38 -92 rlineto
            -4 -10 -5 -14 -12 vvcurveto
            -37 31 -31 38 37 32 31 37 vhcurveto
            endchar
          </CharString>
          <CharString index="94">
            -3 -2 -2 return
          </CharString>
          <CharString index="95">
            hlineto
            -15 -18 -11 -23 -7 1 -7 4 -9 hvcurveto
            return
          </CharString>
          <CharString index="96">
            -45 13 -23 return
          </CharString>
          <CharString index="97">
            vlineto
            -58 callgsubr
            return
          </CharString>
          <CharString index="98">
            vhcurveto
            -214 return
          </CharString>
          <CharString index="99">
            3 -2 vhcurveto
            return
          </CharString>
          <CharString index="100">
            vlineto
            -126 10 rlineto
            -22 1 -10 -13 -12 vvcurveto
            -37 vlineto
            -13 12 -12 20 2 vhcurveto
            126 14 rlineto
            return
          </CharString>
          <CharString index="101">
            -37 vvcurveto
            -37 -27 -30 -36 -4 vhcurveto
            return
          </CharString>
          <CharString index="102">
            hhcurveto
            -56 callsubr
            return
          </CharString>
          <CharString index="103">
            -2 -3 -1 -4 return
          </CharString>
          <CharString index="104">
            -2 -1 -2 return
          </CharString>
          <CharString index="105">
            -51 callsubr
            39 -40 callgsubr
            return
          </CharString>
          <CharString index="106">
            34 callgsubr
            47 -1 vhcurveto
            -35 14 callgsubr
            return
          </CharString>
          <CharString index="107">
            -1 42 callgsubr
            return
          </CharString>
          <CharString index="108">
            -165 332 164 rmoveto
            -51 callsubr
            117 -23 callsubr
            -7 vhcurveto
            -273 hlineto
            -39 callsubr
            -117 -43 callgsubr
            6 vhcurveto
            endchar
          </CharString>
          <CharString index="109">
            71 29 45 4 11 26 vhcurveto
            12 return
          </CharString>
          <CharString index="110">
            -43 callgsubr
            7 vhcurveto
            return
          </CharString>
          <CharString index="111">
            vlineto
            -22 12 -1 12 vhcurveto
            return
          </CharString>
          <CharString index="112">
            -5 rlineto
            613 vlineto
            return
          </CharString>
          <CharString index="113">
            rlineto
            23 hlineto
            11 6 -4 -11 5 hvcurveto
            return
          </CharString>
          <CharString index="114">
            -82 callgsubr
            -56 281 rmoveto
            45 -20 42 -30 30 vhcurveto
            52 -14 38 -47 -56 vvcurveto
            -56 -38 -48 -52 -13 vhcurveto
            30 30 20 42 45 vvcurveto
            endchar
          </CharString>
          <CharString index="115">
            rlineto
            20 -2 12 12 13 vvcurveto
            37 vlineto
            12 -10 13 -22 -1 vhcurveto
            -126 -10 rlineto
            return
          </CharString>
          <CharString index="116">
            21 callsubr
            -2 return
          </CharString>
          <CharString index="117">
            rmoveto
            74 vlineto
            8 -4 5 -11 vhcurveto
            -50 hlineto
            -11 -2 -7 -6 hvcurveto
            -74 -50 vlineto
            46 175 rlineto
            2 6 1 7 8 vvcurveto
            14 -8 13 -34 vhcurveto
            -93 hlineto
            return
          </CharString>
          <CharString index="118">
            45 -13 23 -62 vhcurveto
            return
          </CharString>
          <CharString index="119">
            17 callsubr
            -78 55 callsubr
            return
          </CharString>
          <CharString index="120">
            -45 callgsubr
            4 78 callgsubr
            3 hvcurveto
            return
          </CharString>
          <CharString index="121">
            -56 426 203 rmoveto
            39 callsubr
            -352 hlineto
            -8 -3 -4 -6 callgsubr
            return
          </CharString>
          <CharString index="122">
            -3 vvcurveto
            -1 return
          </CharString>
          <CharString index="123">
            -41 callsubr
            -14 -19 -15 -63 hhcurveto
            -56 -18 19 return
          </CharString>
          <CharString index="124">
            -51 callsubr
            39 -23 callsubr
            -7 vhcurveto
            return
          </CharString>
          <CharString index="125">
            hlineto
            -21 -3 -12 -17 -6 hvcurveto
            -68 return
          </CharString>
          <CharString index="126">
            -11 3 -12 17 vhcurveto
            return
          </CharString>
          <CharString index="127">
            vvcurveto
            53 callsubr
            return
          </CharString>
          <CharString index="128">
            1 vvcurveto
            3 return
          </CharString>
          <CharString index="129">
            -75 callsubr
            209 -32 callsubr
            return
          </CharString>
          <CharString index="130">
            56 callsubr
            -1 hvcurveto
            -8 -37 return
          </CharString>
          <CharString index="131">
            3 12 vvcurveto
            96 callgsubr
            return
          </CharString>
          <CharString index="132">
            -84 callsubr
            718 -82 callgsubr
            endchar
          </CharString>
          <CharString index="133">
            68 rmoveto
            -11 callsubr
            return
          </CharString>
          <CharString index="134">
            -2 vhcurveto
            33 return
          </CharString>
          <CharString index="135">
            hlineto
            -25 -152 rlineto
            0 -1 -5 -3 vvcurveto
            -14 10 -1 11 vhcurveto
            15 hlineto
            17 5 12 11 2 hvcurveto
            25 152 rlineto
            return
          </CharString>
          <CharString index="136">
            14 callgsubr
            -514 vlineto
            -80 callgsubr
            return
          </CharString>
          <CharString index="137">
            hvcurveto
            -39 -43 callgsubr
            6 vhcurveto
            return
          </CharString>
          <CharString index="138">
            4 hhcurveto
            8 6 7 5 4 hvcurveto
            return
          </CharString>
          <CharString index="139">
            33 callsubr
            hvcurveto
            return
          </CharString>
          <CharString index="140">
            hlineto
            -12 -11 -1 -22 return
          </CharString>
          <CharString index="141">
            3 hvcurveto
            33 return
          </CharString>
          <CharString index="142">
            vlineto
            126 -14 8 callsubr
            endchar
          </CharString>
          <CharString index="143">
            -66 callgsubr
            endchar
          </CharString>
          <CharString index="144">
            vvcurveto
            5 -2 5 return
          </CharString>
          <CharString index="145">
            456 rmoveto
            182 hlineto
            -66 callsubr
            return
          </CharString>
          <CharString index="146">
            20 callgsubr
            83 1 callgsubr
            4 -8 vhcurveto
            return
          </CharString>
          <CharString index="147">
            33 callgsubr
            13 return
          </CharString>
          <CharString index="148">
            rlineto
            38 callgsubr
            return
          </CharString>
          <CharString index="149">
            23 45 hvcurveto
            return
          </CharString>
          <CharString index="150">
            rlineto
            -1 -2 return
          </CharString>
          <CharString index="151">
            rmoveto
            -100 81 -81 100 100 81 81 100 100 -81 81 -100 -100 -81 -81 -100 vhcurveto
            319 return
          </CharString>
          <CharString index="152">
            rlineto
            94 callsubr
            -4 return
          </CharString>
          <CharString index="153">
            -37 callsubr
            hhcurveto
            return
          </CharString>
          <CharString index="154">
            -1 vvcurveto
            -4 2 return
          </CharString>
          <CharString index="155">
            1 vvcurveto
            9 -5 6 -13 vhcurveto
            -15 33 callsubr
            -4 hvcurveto
            -26 -152 rlineto
            return
          </CharString>
          <CharString index="156">
            3 2 3 return
          </CharString>
          <CharString index="157">
            rmoveto
            -80 -40 -65 -94 -14 vhcurveto
            303 vlineto
            94 -11 40 -55 -78 vvcurveto
            -175 return
          </CharString>
          <CharString index="158">
            hlineto
            -12 -12 -1 -22 hvcurveto
            return
          </CharString>
          <CharString index="159">
            51 -26 48 -92 14 vhcurveto
            return
          </CharString>
          <CharString index="160">
            -2 1 -3 return
          </CharString>
          <CharString index="161">
            35 vlineto
            12 return
          </CharString>
          <CharString index="162">
            303 hlineto
            115 return
          </CharString>
          <CharString index="163">
            hhcurveto
            -4 callsubr
            return
          </CharString>
          <CharString index="164">
            -4 vvcurveto
            -11 8 1 3 68 26 -22 -32 -27 -20 -25 -57 vhcurveto
            -56 return
          </CharString>
          <CharString index="165">
            68 26 -22 -33 -27 -20 -24 -57 vhcurveto
            return
          </CharString>
          <CharString index="166">
            -4 85 callgsubr
            return
          </CharString>
          <CharString index="167">
            2 -2 2 return
          </CharString>
          <CharString index="168">
            hlineto
            100 callgsubr
            -88 vlineto
            -7 4 -3 6 vhcurveto
            endchar
          </CharString>
          <CharString index="169">
            5 10 hvcurveto
            107 vlineto
            13 1 20 return
          </CharString>
          <CharString index="170">
            rmoveto
            -38 567 38 hlineto
            return
          </CharString>
          <CharString index="171">
            48 callgsubr
            -295 return
          </CharString>
          <CharString index="172">
            -6 hhcurveto
            -5 -5 -3 return
          </CharString>
          <CharString index="173">
            -3 3 -2 return
          </CharString>
          <CharString index="174">
            678 rmoveto
            return
          </CharString>
          <CharString index="175">
            vlineto
            7 3 3 8 hvcurveto
            49 vlineto
            7 -2 4 -8 vhcurveto
            return
          </CharString>
          <CharString index="176">
            hlineto
            -7 3 -3 7 vhcurveto
            84 hlineto
            7 3 4 6 hvcurveto
            return
          </CharString>
          <CharString index="177">
            rlineto
            2 -2 return
          </CharString>
          <CharString index="178">
            rmoveto
            -11 6 return
          </CharString>
          <CharString index="179">
            19 callsubr
            52 hlineto
            13 10 1 22 hvcurveto
            return
          </CharString>
          <CharString index="180">
            -35 callgsubr
            -84 hlineto
            -39 callsubr
            return
          </CharString>
          <CharString index="181">
            -6 vhcurveto
            140 -189 rlineto
            return
          </CharString>
          <CharString index="182">
            -208 rlineto
            -4 return
          </CharString>
          <CharString index="183">
            5 hhcurveto
            6 5 return
          </CharString>
          <CharString index="184">
            3 3 vvcurveto
            return
          </CharString>
          <CharString index="185">
            1 1 vvcurveto
            return
          </CharString>
          <CharString index="186">
            19 -33 hhcurveto
            return
          </CharString>
          <CharString index="187">
            68 rmoveto
            -45 return
          </CharString>
          <CharString index="188">
            3 -11 -21 return
          </CharString>
          <CharString index="189">
            -5 hhcurveto
            -2 -2 1 -4 -1 hvcurveto
            -12 -36 -1 return
          </CharString>
          <CharString index="190">
            -78 callgsubr
            323 return
          </CharString>
          <CharString index="191">
            2 9 callsubr
            return
          </CharString>
          <CharString index="192">
            hvcurveto
            280 return
          </CharString>
          <CharString index="193">
            27 rlineto
            5 return
          </CharString>
          <CharString index="194">
            hvcurveto
            27 callgsubr
            3 4 vvcurveto
            2 -1 2 return
          </CharString>
          <CharString index="195">
            -5 callsubr
            -180 return
          </CharString>
          <CharString index="196">
            -5 -1 -4 -4 vvcurveto
            -5 4 -4 10 vhcurveto
            return
          </CharString>
          <CharString index="197">
            27 callgsubr
            hvcurveto
            return
          </CharString>
          <CharString index="198">
            -3 3 hhcurveto
            2 return
          </CharString>
          <CharString index="199" raw="1">
            80a14f1e 0b  
          </CharString>
          <CharString index="200">
            rlineto
            -2 -3 0 return
          </CharString>
          <CharString index="201">
            -1 -4 -1 return
          </CharString>
          <CharString index="202">
            -4 -2 -6 return
          </CharString>
          <CharString index="203">
            -17 -13 -17 return
          </CharString>
          <CharString index="204">
            2 vvcurveto
            3 -1 21 callgsubr
            vhcurveto
            return
          </CharString>
          <CharString index="205">
            -135 -166 -166 -135 return
          </CharString>
          <CharString index="206">
            -5 85 callgsubr
            -5 return
          </CharString>
          <CharString index="207">
            -51 -62 vhcurveto
            122 return
          </CharString>
          <CharString index="208">
            7 4 8 7 return
          </CharString>
          <CharString index="209">
            2 -3 vhcurveto
            return
          </CharString>
          <CharString index="210">
            hhcurveto
            6 1 return
          </CharString>
        <CharString name=".notdef">
          -306 endchar
        </CharString>
        <CharString name="A">
          -104 callgsubr
          endchar
        </CharString>
        <CharString name="AE">
          -55 callsubr
          endchar
        </CharString>
        <CharString name="AEacute">
          -55 callsubr
          78 207 -107 callgsubr
        </CharString>
        <CharString name="Aacute">
          -104 callgsubr
          98 219 -107 callgsubr
        </CharString>
        <CharString name="Abreve">
          -104 callgsubr
          -42 197 -99 callsubr
        </CharString>
        <CharString name="Acircumflex">
          -104 callgsubr
          68 104 -75 callgsubr
          2 1 4 34 callsubr
          43 rlineto
          2 2 1 3 2 vvcurveto
          2 -14 callgsubr
          vhcurveto
          -148 126 rlineto
          1 -2 -1 2 -4 hhcurveto
          -3 -2 -3 callsubr
          hvcurveto
          -148 -126 rlineto
          -3 -57 callgsubr
          -2 1 -3 1 27 callsubr
          -43 -100 callsubr
          109 77 rlineto
          endchar
        </CharString>
        <CharString name="Adieresis">
          -104 callgsubr
          -201 184 -98 callsubr
        </CharString>
        <CharString name="Agrave">
          -104 callgsubr
          4 104 -75 callgsubr
          3 1 4 2 hvcurveto
          33 48 rlineto
          2 2 1 3 9 callsubr
          -28 callsubr
          -173 131 rlineto
          2 -42 callgsubr
          -3 -3 hvcurveto
          -44 -63 54 callgsubr
          0 callsubr
          -3 2 -2 -8 callsubr
          endchar
        </CharString>
        <CharString name="Amacron">
          -104 callgsubr
          88 134 rmoveto
          -51 callsubr
          78 -23 callsubr
          -7 vhcurveto
          -260 hlineto
          -39 callsubr
          -78 -43 callgsubr
          6 vhcurveto
          endchar
        </CharString>
        <CharString name="Aogonek">
          54 258 62 callgsubr
          -23 -1 -10 -15 -10 -30 -89 callsubr
          165 hlineto
          -73 -35 -47 -54 -50 vvcurveto
          -83 74 -26 2 callsubr
          4 8 4 12 vvcurveto
          46 vlineto
          7 70 callgsubr
          42 81 56 68 29 hvcurveto
          13 5 15 8 21 vvcurveto
          7 -1 7 -3 9 vhcurveto
          -225 599 rlineto
          34 -13 -8 11 -24 hhcurveto
          -161 -404 -11 callgsubr
          437 -48 36 callsubr
        </CharString>
        <CharString name="Aring">
          54 169 801 rmoveto
          -48 26 -41 39 -21 vhcurveto
          -8 -7 -5 -13 -6 -16 -95 callgsubr
          -7 18 -5 12 -8 6 rlinecurve
          38 22 25 40 47 vvcurveto
          69 -56 57 -69 -69 -56 -57 -69 vhcurveto
          1 -504 -11 callgsubr
          122 696 rmoveto
          30 24 23 29 30 23 -23 -30 -31 -23 -23 -30 -29 -24 23 31 vhcurveto
          315 -744 36 callsubr
        </CharString>
        <CharString name="Atilde">
          -104 callgsubr
          61 259 -99 callgsubr
        </CharString>
        <CharString name="B">
          86 -75 callsubr
          223 hlineto
          109 122 18 121 47 -24 35 -48 15 hvcurveto
          68 32 42 75 121 vvcurveto
          173 -1 -131 64 -142 83 callgsubr
          -177 rmoveto
          -95 -40 -82 -94 -12 vhcurveto
          363 vlineto
          94 -14 40 -67 -93 vvcurveto
          -134 -253 rmoveto
          70 -4 26 -33 -33 vvcurveto
          -34 -28 -29 -68 -2 vhcurveto
          -41 -3 rmoveto
          -6 -16 -1 -16 hhcurveto
          575 vlineto
          16 12 0 -2 10 hvcurveto
          endchar
        </CharString>
        <CharString name="C">
          53 -96 callgsubr
          endchar
        </CharString>
        <CharString name="Cacute">
          70 -96 callgsubr
          179 531 -107 callgsubr
        </CharString>
        <CharString name="Ccaron">
          70 -96 callgsubr
          39 524 -107 callsubr
        </CharString>
        <CharString name="Ccedilla">
          70 -76 callgsubr
          -264 142 -89 136 -16 hvcurveto
          -8 -36 -8 -42 -5 vvcurveto
          -10 7 1 3 58 callsubr
          -56 -20 15 -16 hhcurveto
          -4 95 callsubr
          hvcurveto
          -47 vlineto
          -29 69 -6 26 86 84 32 92 52 callsubr
          7 33 99 4 79 35 38 29 rlinecurve
          -85 callgsubr
          endchar
        </CharString>
        <CharString name="Ccircumflex">
          70 -96 callgsubr
          149 416 -75 callgsubr
          2 1 4 34 callsubr
          43 rlineto
          2 2 1 3 2 vvcurveto
          2 -14 callgsubr
          vhcurveto
          -148 126 rlineto
          1 -2 -1 2 -4 hhcurveto
          -3 -2 -3 callsubr
          hvcurveto
          -148 -126 rlineto
          -3 -57 callgsubr
          -2 1 -3 1 27 callsubr
          -43 -100 callsubr
          109 77 rlineto
          endchar
        </CharString>
        <CharString name="Cdotaccent">
          70 -96 callgsubr
          -33 496 -68 callgsubr
        </CharString>
        <CharString name="D">
          -32 callgsubr
          endchar
        </CharString>
        <CharString name="Dcaron">
          -32 callgsubr
          -83 223 -107 callsubr
        </CharString>
        <CharString name="Dcroat">
          -46 callgsubr
        </CharString>
        <CharString name="E">
          -104 callsubr
          endchar
        </CharString>
        <CharString name="Eacute">
          -104 callsubr
          96 207 -107 callgsubr
        </CharString>
        <CharString name="Ebreve">
          -104 callsubr
          -44 185 -99 callsubr
        </CharString>
        <CharString name="Ecaron">
          -104 callsubr
          -44 200 -107 callsubr
        </CharString>
        <CharString name="Ecircumflex">
          -104 callsubr
          66 92 -75 callgsubr
          2 1 4 34 callsubr
          43 rlineto
          2 2 1 3 2 vvcurveto
          2 -14 callgsubr
          vhcurveto
          -148 126 rlineto
          1 -2 -1 2 -4 hhcurveto
          -3 -2 -3 callsubr
          hvcurveto
          -148 -126 rlineto
          -3 -57 callgsubr
          -2 1 -3 1 27 callsubr
          -43 -100 callsubr
          109 77 rlineto
          endchar
        </CharString>
        <CharString name="Edieresis">
          -104 callsubr
          -203 172 -98 callsubr
        </CharString>
        <CharString name="Edotaccent">
          -104 callsubr
          -116 172 -68 callgsubr
        </CharString>
        <CharString name="Egrave">
          -104 callsubr
          2 92 -75 callgsubr
          3 1 4 2 hvcurveto
          33 48 rlineto
          2 2 1 3 9 callsubr
          -28 callsubr
          -173 131 rlineto
          2 -42 callgsubr
          -3 -3 hvcurveto
          -44 -63 54 callgsubr
          0 callsubr
          -3 2 -2 -8 callsubr
          endchar
        </CharString>
        <CharString name="Emacron">
          -104 callsubr
          86 122 rmoveto
          -51 callsubr
          78 -23 callsubr
          -7 vhcurveto
          -260 hlineto
          -39 callsubr
          -78 -43 callgsubr
          6 vhcurveto
          endchar
        </CharString>
        <CharString name="Eng">
          118 337 -204 71 callsubr
          -4 3 -1 vhcurveto
          -21 41 31 -9 42 hhcurveto
          68 101 24 179 hvcurveto
          720 vlineto
          22 -12 6 -12 vhcurveto
          -59 hlineto
          -77 callsubr
          -22 279 0 vvcurveto
          398 -358 rlineto
          -44 vlineto
          -74 -35 -28 -51 vhcurveto
          -45 -40 16 -8 25 callgsubr
          207 539 -33 callsubr
          endchar
        </CharString>
        <CharString name="Eogonek">
          83 591 456 rmoveto
          -66 callsubr
          0 147 -24 27 10 8 3 13 vhcurveto
          54 callsubr
          -4 12 -22 vhcurveto
          -441 -52 callgsubr
          358 hlineto
          -74 -35 -44 -52 -48 16 callsubr
          27 41 77 57 70 26 hvcurveto
          20 8 5 4 12 vvcurveto
          -76 callsubr
          endchar
        </CharString>
        <CharString name="Eth">
          -46 callgsubr
        </CharString>
        <CharString name="Euro">
          79 74 225 rmoveto
          -184 31 147 -60 124 hhcurveto
          103 75 37 31 42 hvcurveto
          49 callsubr
          2 5 vvcurveto
          2 0 60 callsubr
          vhcurveto
          -17 86 callsubr
          -4 -1 2 -6 -7 -19 -20 -33 hhcurveto
          -36 -51 27 120 -15 hvcurveto
          74 hlineto
          8 4 6 5 1 hvcurveto
          10 35 rlineto
          9 2 -6 4 -7 hhcurveto
          -90 15 hlineto
          9 0 8 1 8 vhcurveto
          105 hlineto
          8 4 7 4 1 hvcurveto
          10 36 rlineto
          8 2 -6 5 -8 hhcurveto
          -111 hlineto
          111 16 49 25 35 -45 callsubr
          2 vvcurveto
          4 -3 2 -3 2 vhcurveto
          32 -42 -75 36 -103 hhcurveto
          -122 -144 -57 -176 -34 hvcurveto
          -36 hlineto
          74 callgsubr
          -5 7 hhcurveto
          40 hlineto
          -8 0 -8 -9 vvcurveto
          -15 -28 vlineto
          74 callgsubr
          -4 7 hhcurveto
          444 -166 rmoveto
          -63 -84 51 189 187 84 54 63 hvcurveto
          -38 -10 -68 -47 -184 vvcurveto
          -185 68 -46 38 -9 vhcurveto
          endchar
        </CharString>
        <CharString name="F">
          65 408 38 callsubr
          0 158 -34 25 11 9 3 13 vhcurveto
          45 vlineto
          15 -8 9 -16 vhcurveto
          -453 -52 callgsubr
          215 hlineto
          63 11 44 29 hvcurveto
          -41 -1 -84 callsubr
          624 vlineto
          38 -8 rlineto
          endchar
        </CharString>
        <CharString name="G">
          -98 callgsubr
          endchar
        </CharString>
        <CharString name="Gbreve">
          -98 callgsubr
          31 489 -99 callsubr
        </CharString>
        <CharString name="Gcircumflex">
          -98 callgsubr
          141 396 -75 callgsubr
          2 1 4 34 callsubr
          43 rlineto
          2 2 1 3 2 vvcurveto
          2 -14 callgsubr
          vhcurveto
          -148 126 rlineto
          1 -2 -1 2 -4 hhcurveto
          -3 -2 -3 callsubr
          hvcurveto
          -148 -126 rlineto
          -3 -57 callgsubr
          -2 1 -3 1 27 callsubr
          -43 -100 callsubr
          109 77 rlineto
          endchar
        </CharString>
        <CharString name="Gcommaaccent">
          -98 callgsubr
          -42 -495 rmoveto
          -31 24 -26 29 -4 vhcurveto
          -24 -55 -25 callsubr
          66 callsubr
          5 vhcurveto
          32 hlineto
          10 1 4 9 4 hvcurveto
          35 82 rlineto
          4 9 4 13 11 vvcurveto
          34 -28 27 -34 -33 -29 -27 -34 vhcurveto
          endchar
        </CharString>
        <CharString name="Gdotaccent">
          -98 callgsubr
          -41 476 -68 callgsubr
        </CharString>
        <CharString name="H">
          106 492 23 rmoveto
          72 callsubr
          233 47 vlineto
          -51 callsubr
          49 -23 callsubr
          -7 vhcurveto
          -47 352 hlineto
          22 -10 1 -13 vhcurveto
          -50 hlineto
          -17 -5 -12 -11 hvcurveto
          -352 -83 294 vlineto
          31 5 50 -76 -12 callgsubr
          209 -32 callsubr
          177 83 vlineto
          -124 -184 -84 callsubr
          619 -82 callgsubr
          endchar
        </CharString>
        <CharString name="Hbar">
          86 592 67 callsubr
          22 -10 1 -13 vhcurveto
          -50 hlineto
          -18 -4 -12 -11 hvcurveto
          -183 -83 125 -60 callgsubr
          -138 -45 vlineto
          100 callgsubr
          -49 -43 callgsubr
          6 vhcurveto
          45 -356 hlineto
          -72 callgsubr
          209 -32 callsubr
          177 83 -233 vlineto
          72 callsubr
          401 44 68 callsubr
          -44 hlineto
          -178 -169 rmoveto
          98 83 -98 vlineto
          -124 -254 rmoveto
          -29 -7 -2 -32 vhcurveto
          619 vlineto
          32 7 -2 -29 hvcurveto
          endchar
        </CharString>
        <CharString name="Hcircumflex">
          106 492 23 rmoveto
          72 callsubr
          233 47 vlineto
          -51 callsubr
          49 -23 callsubr
          -7 vhcurveto
          -47 352 hlineto
          22 -10 1 -13 vhcurveto
          -50 hlineto
          -17 -5 -12 -11 hvcurveto
          -352 -83 294 vlineto
          31 5 50 -76 -12 callgsubr
          209 -32 callsubr
          177 83 vlineto
          -124 -184 -84 callsubr
          619 -82 callgsubr
          77 120 -75 callgsubr
          2 1 4 34 callsubr
          43 rlineto
          2 2 1 3 2 vvcurveto
          2 -14 callgsubr
          vhcurveto
          -148 126 rlineto
          1 -2 -1 2 -4 hhcurveto
          -3 -2 -3 callsubr
          hvcurveto
          -148 -126 rlineto
          -3 -57 callgsubr
          -2 1 -3 1 27 callsubr
          -43 -100 callsubr
          109 77 rlineto
          endchar
        </CharString>
        <CharString name="I">
          -101 22 callsubr
          541 vlineto
          -19 callsubr
          -561 -84 callsubr
          619 -82 callgsubr
          endchar
        </CharString>
        <CharString name="IJ">
          439 22 callsubr
          541 vlineto
          -19 callsubr
          -561 -84 callsubr
          619 -82 callgsubr
          97 -600 -61 callgsubr
          endchar
        </CharString>
        <CharString name="Iacute">
          -101 22 callsubr
          541 vlineto
          -19 callsubr
          -561 -84 callsubr
          619 -82 callgsubr
          1 235 -107 callgsubr
        </CharString>
        <CharString name="Ibreve">
          -101 22 callsubr
          541 vlineto
          -19 callsubr
          -561 -84 callsubr
          619 -82 callgsubr
          -139 213 -99 callsubr
        </CharString>
        <CharString name="Icircumflex">
          -101 22 callsubr
          541 vlineto
          -19 callsubr
          -561 -84 callsubr
          619 -82 callgsubr
          -29 120 -75 callgsubr
          2 1 4 34 callsubr
          43 rlineto
          2 2 1 3 2 vvcurveto
          2 -14 callgsubr
          vhcurveto
          -148 126 rlineto
          1 -2 -1 2 -4 hhcurveto
          -3 -2 -3 callsubr
          hvcurveto
          -148 -126 rlineto
          -3 -57 callgsubr
          -2 1 -3 1 27 callsubr
          -43 -100 callsubr
          109 77 rlineto
          endchar
        </CharString>
        <CharString name="Idieresis">
          -101 22 callsubr
          541 vlineto
          -19 callsubr
          -561 -84 callsubr
          619 -82 callgsubr
          -298 200 -98 callsubr
        </CharString>
        <CharString name="Idotaccent">
          -101 22 callsubr
          541 vlineto
          -19 callsubr
          -561 -84 callsubr
          619 -82 callgsubr
          -211 200 -68 callgsubr
        </CharString>
        <CharString name="Igrave">
          -101 22 callsubr
          541 vlineto
          -19 callsubr
          -561 -84 callsubr
          619 -82 callgsubr
          -93 120 -75 callgsubr
          3 1 4 2 hvcurveto
          33 48 rlineto
          2 2 1 3 9 callsubr
          -28 callsubr
          -173 131 rlineto
          2 -42 callgsubr
          -3 -3 hvcurveto
          -44 -63 54 callgsubr
          0 callsubr
          -3 2 -2 -8 callsubr
          endchar
        </CharString>
        <CharString name="Imacron">
          -101 22 callsubr
          541 vlineto
          -19 callsubr
          -561 -84 callsubr
          619 -82 callgsubr
          -9 150 rmoveto
          -51 callsubr
          78 -23 callsubr
          -7 vhcurveto
          -260 hlineto
          -39 callsubr
          -78 -43 callgsubr
          6 vhcurveto
          endchar
        </CharString>
        <CharString name="Iogonek">
          -101 -75 callsubr
          84 -8 callgsubr
          10 -32 callsubr
          541 vlineto
          -19 callsubr
          -561 -84 callsubr
          619 -82 callgsubr
          endchar
        </CharString>
        <CharString name="Itilde">
          -101 22 callsubr
          541 vlineto
          -19 callsubr
          -561 -84 callsubr
          619 -82 callgsubr
          -36 275 -99 callgsubr
        </CharString>
        <CharString name="J">
          -16 10 29 -61 callgsubr
          endchar
        </CharString>
        <CharString name="Jcircumflex">
          -16 10 29 -61 callgsubr
          -31 120 -75 callgsubr
          2 1 4 34 callsubr
          43 rlineto
          2 2 1 3 2 vvcurveto
          2 -14 callgsubr
          vhcurveto
          -148 126 rlineto
          1 -2 -1 2 -4 hhcurveto
          -3 -2 -3 callsubr
          hvcurveto
          -148 -126 rlineto
          -3 -57 callgsubr
          -2 1 -3 1 27 callsubr
          -43 -100 callsubr
          109 77 rlineto
          endchar
        </CharString>
        <CharString name="K">
          61 -50 callgsubr
          endchar
        </CharString>
        <CharString name="Kcommaaccent">
          82 -50 callgsubr
          -101 -751 rmoveto
          -31 24 -26 29 -4 vhcurveto
          -24 -55 -25 callsubr
          66 callsubr
          5 vhcurveto
          32 hlineto
          10 1 4 9 4 hvcurveto
          35 82 rlineto
          4 9 4 13 11 vvcurveto
          34 -28 27 -34 -33 -29 -27 -34 vhcurveto
          endchar
        </CharString>
        <CharString name="L">
          23 -77 callgsubr
          endchar
        </CharString>
        <CharString name="Lacute">
          23 -77 callgsubr
          1 235 -107 callgsubr
        </CharString>
        <CharString name="Lcaron">
          33 -77 callgsubr
          84 27 rmoveto
          -67 callsubr
        </CharString>
        <CharString name="Lcommaaccent">
          23 -77 callgsubr
          -136 -751 rmoveto
          -31 24 -26 29 -4 vhcurveto
          -24 -55 -25 callsubr
          66 callsubr
          5 vhcurveto
          32 hlineto
          10 1 4 9 4 hvcurveto
          35 82 rlineto
          4 9 4 13 11 vvcurveto
          34 -28 27 -34 -33 -29 -27 -34 vhcurveto
          endchar
        </CharString>
        <CharString name="Ldot">
          46 -77 callgsubr
          90 -379 -68 callgsubr
        </CharString>
        <CharString name="Lslash">
          32 55 26 callsubr
          61 vhcurveto
          418 hlineto
          22 10 40 callsubr
          -8 81 callsubr
          -120 -18 0 vhcurveto
          237 vlineto
          105 48 82 callgsubr
          -4 2 -6 -3 rlinecurve
          -76 -35 rlineto
          239 -60 callgsubr
          -419 vlineto
          -76 -35 -6 -3 -1 -4 3 -6 rlinecurve
          20 -45 3 -8 5 -1 6 3 rlinecurve
          46 21 rlineto
          322 -74 rmoveto
          -38 -6 rlineto
          604 vlineto
          32 6 -2 -29 hvcurveto
          endchar
        </CharString>
        <CharString name="M">
          318 465 80 callsubr
          14 -23 54 vhcurveto
          226 hlineto
          60 10 27 41 hvcurveto
          571 vlineto
          35 -20 27 -50 vhcurveto
          -130 hlineto
          -62 -13 -28 -40 -21 hvcurveto
          -88 -169 -131 209 rlineto
          20 -13 -18 8 -25 hhcurveto
          -157 hlineto
          -42 -14 -27 -25 hvcurveto
          -621 vlineto
          -22 12 -6 12 vhcurveto
          54 hlineto
          24 3 13 19 -1 hvcurveto
          -2 40 -10 233 0 vvcurveto
          121 -208 rlineto
          -16 10 14 -15 22 hhcurveto
          24 12 14 18 10 hvcurveto
          115 211 rlineto
          -44 109 rmoveto
          -20 -37 -175 279 rlineto
          24 hlineto
          10 10 -1 -13 8 hvcurveto
          510 -574 -84 callsubr
          619 -82 callgsubr
          endchar
        </CharString>
        <CharString name="N">
          -94 callgsubr
          endchar
        </CharString>
        <CharString name="Nacute">
          -94 callgsubr
          216 217 -107 callgsubr
        </CharString>
        <CharString name="Ncaron">
          -94 callgsubr
          76 210 -107 callsubr
        </CharString>
        <CharString name="Ncommaaccent">
          -94 callgsubr
          12 -769 rmoveto
          -31 24 -26 29 -4 vhcurveto
          -24 -55 -25 callsubr
          66 callsubr
          5 vhcurveto
          32 hlineto
          10 1 4 9 4 hvcurveto
          35 82 rlineto
          4 9 4 13 11 vvcurveto
          34 -28 27 -34 -33 -29 -27 -34 vhcurveto
          endchar
        </CharString>
        <CharString name="Ntilde">
          -94 callgsubr
          169 278 -99 callgsubr
        </CharString>
        <CharString name="O">
          -103 callgsubr
          endchar
        </CharString>
        <CharString name="OE">
          527 853 526 rmoveto
          124 vlineto
          0 153 -24 20 12 6 3 13 vhcurveto
          54 callsubr
          -2 12 -22 vhcurveto
          -339 hlineto
          -53 -17 -10 -50 hvcurveto
          -29 vlineto
          86 -64 -98 26 -94 hhcurveto
          -52 callsubr
          94 98 27 85 64 hvcurveto
          -36 vlineto
          -42 4 -15 49 vhcurveto
          371 hlineto
          22 5 40 callsubr
          -8 3 -13 -24 -164 -25 0 vhcurveto
          396 181 vlineto
          7 3 3 8 hvcurveto
          49 vlineto
          6 -2 4 -8 vhcurveto
          -635 -173 rmoveto
          5 callgsubr
          52 54 -48 -166 -90 callgsubr
          454 -299 rmoveto
          -39 5 callsubr
          39 -5 rlineto
          endchar
        </CharString>
        <CharString name="Oacute">
          -103 callgsubr
          125 532 -107 callgsubr
        </CharString>
        <CharString name="Obreve">
          -103 callgsubr
          -1 509 -99 callsubr
        </CharString>
        <CharString name="Ocircumflex">
          -103 callgsubr
          108 417 -75 callgsubr
          2 1 4 34 callsubr
          43 rlineto
          2 2 1 3 2 vvcurveto
          2 -14 callgsubr
          vhcurveto
          -148 126 rlineto
          1 -2 -1 2 -4 hhcurveto
          -3 -2 -3 callsubr
          hvcurveto
          -148 -126 rlineto
          -3 -57 callgsubr
          -2 1 -3 1 27 callsubr
          -43 -100 callsubr
          109 77 rlineto
          endchar
        </CharString>
        <CharString name="Odieresis">
          -103 callgsubr
          -161 497 -98 callsubr
        </CharString>
        <CharString name="Ograve">
          -103 callgsubr
          77 417 -75 callgsubr
          3 1 4 2 hvcurveto
          33 48 rlineto
          2 2 1 3 9 callsubr
          -28 callsubr
          -173 131 rlineto
          2 -42 callgsubr
          -3 -3 hvcurveto
          -44 -63 54 callgsubr
          0 callsubr
          -3 2 -2 -8 callsubr
          endchar
        </CharString>
        <CharString name="Ohungarumlaut">
          -103 callgsubr
          29 550 -82 callsubr
          -2 -3 -1 -2 -2 vvcurveto
          -2 2 76 callgsubr
          35 -30 rlineto
          -2 3 13 callsubr
          282 132 -82 callsubr
          -1 -3 -1 -2 -39 callgsubr
          36 -30 rlineto
          -2 2 13 callsubr
          endchar
        </CharString>
        <CharString name="Omacron">
          -103 callgsubr
          129 446 rmoveto
          -51 callsubr
          78 -23 callsubr
          -7 vhcurveto
          -260 hlineto
          -39 callsubr
          -78 -43 callgsubr
          6 vhcurveto
          endchar
        </CharString>
        <CharString name="Oslash">
          -70 callgsubr
          endchar
        </CharString>
        <CharString name="Oslashacute">
          -70 callgsubr
          141 531 -107 callgsubr
        </CharString>
        <CharString name="Otilde">
          -103 callgsubr
          102 572 -99 callgsubr
        </CharString>
        <CharString name="P">
          76 22 callsubr
          183 vlineto
          109 17 94 54 160 vvcurveto
          162 -1 -139 46 -134 83 callgsubr
          -147 50 callsubr
          -414 -84 callsubr
          596 vlineto
          9 15 0 -1 14 hvcurveto
          endchar
        </CharString>
        <CharString name="Q">
          154 355 -19 rmoveto
          76 79 18 51 61 hvcurveto
          44 -80 rlineto
          -12 6 7 -3 32 callgsubr
          31 17 rlineto
          101 callsubr
          10 vvcurveto
          4 -2 4 -4 6 vhcurveto
          -68 98 rlineto
          36 56 22 79 109 vvcurveto
          -64 callsubr
          vhcurveto
          148 226 rmoveto
          -8 -5 -1 -8 4 -8 24 -45 rcurveline
          -1 -6 -5 -1 -6 hhcurveto
          -53 -53 51 163 -33 callgsubr
          -88 -16 -55 -22 -32 hvcurveto
          -25 35 -7 10 -7 1 -8 -5 rlinecurve
          -169 134 rmoveto
          -88 callgsubr
          endchar
        </CharString>
        <CharString name="R">
          -92 callsubr
          endchar
        </CharString>
        <CharString name="Racute">
          -92 callsubr
          65 228 -107 callgsubr
        </CharString>
        <CharString name="Rcaron">
          -92 callsubr
          -75 221 -107 callsubr
        </CharString>
        <CharString name="Rcommaaccent">
          -92 callsubr
          -107 -758 rmoveto
          -31 24 -26 29 -4 vhcurveto
          -24 -55 -25 callsubr
          66 callsubr
          5 vhcurveto
          32 hlineto
          10 1 4 9 4 hvcurveto
          35 82 rlineto
          4 9 4 13 11 vvcurveto
          34 -28 27 -34 -33 -29 -27 -34 vhcurveto
          endchar
        </CharString>
        <CharString name="S">
          75 125 -93 callsubr
          endchar
        </CharString>
        <CharString name="Sacute">
          -80 callsubr
          245 851 -107 callgsubr
        </CharString>
        <CharString name="Scaron">
          -80 callsubr
          105 844 -107 callsubr
        </CharString>
        <CharString name="Scedilla">
          91 133 188 rmoveto
          -91 -9 -41 -32 -57 23 callsubr
          -1 -5 rlineto
          -4 2 -1 4 -1 vhcurveto
          24 -6 87 -22 100 -3 rrcurveto
          -6 -32 -8 -34 57 callsubr
          -20 16 -17 2 callgsubr
          31 93 52 callsubr
          5 26 133 16 71 86 9 104 rlinecurve
          29 355 rlineto
          57 5 23 41 58 23 callgsubr
          1 6 rlineto
          3 -2 1 -4 1 vhcurveto
          6 -25 -10 callgsubr
          143 -56 callgsubr
          endchar
        </CharString>
        <CharString name="Scircumflex">
          -80 callsubr
          215 736 -75 callgsubr
          2 1 4 34 callsubr
          43 rlineto
          2 2 1 3 2 vvcurveto
          2 -14 callgsubr
          vhcurveto
          -148 126 rlineto
          1 -2 -1 2 -4 hhcurveto
          -3 -2 -3 callsubr
          hvcurveto
          -148 -126 rlineto
          -3 -57 callgsubr
          -2 1 -3 1 27 callsubr
          -43 -100 callsubr
          109 77 rlineto
          endchar
        </CharString>
        <CharString name="T">
          -59 callgsubr
          endchar
        </CharString>
        <CharString name="Tbar">
          134 163 630 rmoveto
          -135 -109 vlineto
          -8 102 callgsubr
          -49 3 callsubr
          109 -356 hlineto
          -11 callsubr
          61 vhcurveto
          218 hlineto
          59 13 23 44 hvcurveto
          357 109 68 callsubr
          -109 135 hlineto
          -59 callsubr
          endchar
        </CharString>
        <CharString name="Tcaron">
          -59 callgsubr
          -136 217 -107 callsubr
        </CharString>
        <CharString name="Tcommaaccent">
          -59 callgsubr
          -202 -762 rmoveto
          -31 24 -26 29 -4 vhcurveto
          -24 -55 -25 callsubr
          66 callsubr
          5 vhcurveto
          32 hlineto
          10 1 4 9 4 hvcurveto
          35 82 rlineto
          4 9 4 13 11 vvcurveto
          34 -28 27 -34 -33 -29 -27 -34 vhcurveto
          endchar
        </CharString>
        <CharString name="Thorn">
          76 45 26 callsubr
          52 vhcurveto
          233 hlineto
          55 11 21 44 hvcurveto
          67 vlineto
          109 16 94 55 160 vvcurveto
          137 -92 49 -111 16 vhcurveto
          69 vlineto
          45 -11 22 -60 vhcurveto
          89 callgsubr
          -277 50 callsubr
          -284 -84 callsubr
          619 -82 callgsubr
          endchar
        </CharString>
        <CharString name="U">
          -102 callgsubr
          endchar
        </CharString>
        <CharString name="Uacute">
          -102 callgsubr
          105 235 -107 callgsubr
        </CharString>
        <CharString name="Ubreve">
          -102 callgsubr
          -35 213 -99 callsubr
        </CharString>
        <CharString name="Ucircumflex">
          -102 callgsubr
          75 120 -75 callgsubr
          2 1 4 34 callsubr
          43 rlineto
          2 2 1 3 2 vvcurveto
          2 -14 callgsubr
          vhcurveto
          -148 126 rlineto
          1 -2 -1 2 -4 hhcurveto
          -3 -2 -3 callsubr
          hvcurveto
          -148 -126 rlineto
          -3 -57 callgsubr
          -2 1 -3 1 27 callsubr
          -43 -100 callsubr
          109 77 rlineto
          endchar
        </CharString>
        <CharString name="Udieresis">
          -102 callgsubr
          -194 200 -98 callsubr
        </CharString>
        <CharString name="Ugrave">
          -102 callgsubr
          11 120 -75 callgsubr
          3 1 4 2 hvcurveto
          33 48 rlineto
          2 2 1 3 9 callsubr
          -28 callsubr
          -173 131 rlineto
          2 -42 callgsubr
          -3 -3 hvcurveto
          -44 -63 54 callgsubr
          0 callsubr
          -3 2 -2 -8 callsubr
          endchar
        </CharString>
        <CharString name="Uhungarumlaut">
          -102 callgsubr
          -5 254 -82 callsubr
          -2 -3 -1 -2 -2 vvcurveto
          -2 2 76 callgsubr
          35 -30 rlineto
          -2 3 13 callsubr
          282 132 -82 callsubr
          -1 -3 -1 -2 -39 callgsubr
          36 -30 rlineto
          -2 2 13 callsubr
          endchar
        </CharString>
        <CharString name="Umacron">
          -102 callgsubr
          95 150 rmoveto
          -51 callsubr
          78 -23 callsubr
          -7 vhcurveto
          -260 hlineto
          -39 callsubr
          -78 -43 callgsubr
          6 vhcurveto
          endchar
        </CharString>
        <CharString name="Uogonek">
          76 409 620 rmoveto
          -71 callsubr
          -381 vlineto
          -215 115 -49 124 -6 vhcurveto
          -55 -34 -34 -46 -42 16 callgsubr
          28 39 71 56 68 26 hvcurveto
          98 37 67 60 162 vvcurveto
          426 vlineto
          -69 callgsubr
          -41 -6 rmoveto
          -38 593 hlineto
          -83 callsubr
          endchar
        </CharString>
        <CharString name="Uring">
          -102 callgsubr
          -161 237 -49 callgsubr
        </CharString>
        <CharString name="Utilde">
          -102 callgsubr
          68 275 -99 callgsubr
        </CharString>
        <CharString name="V">
          44 361 663 rmoveto
          23 -7 -11 15 -33 hhcurveto
          -277 -12 callsubr
          224 6 callgsubr
          68 hlineto
          28 10 16 30 10 hvcurveto
          204 618 rlineto
          4 11 1 8 5 vvcurveto
          10 -6 3 -10 vhcurveto
          -49 hlineto
          -24 -2 -17 -23 -6 hvcurveto
          -67 -257 rlineto
          -20 -77 rmoveto
          -19 -72 -115 405 rlineto
          22 hlineto
          10 8 -4 -11 104 callgsubr
        </CharString>
        <CharString name="W">
          -102 callsubr
          endchar
        </CharString>
        <CharString name="Wacute">
          -102 callsubr
          8 222 -107 callgsubr
        </CharString>
        <CharString name="Wcircumflex">
          -102 callsubr
          -22 107 -75 callgsubr
          2 1 4 34 callsubr
          43 rlineto
          2 2 1 3 2 vvcurveto
          2 -14 callgsubr
          vhcurveto
          -148 126 rlineto
          1 -2 -1 2 -4 hhcurveto
          -3 -2 -3 callsubr
          hvcurveto
          -148 -126 rlineto
          -3 -57 callgsubr
          -2 1 -3 1 27 callsubr
          -43 -100 callsubr
          109 77 rlineto
          endchar
        </CharString>
        <CharString name="Wdieresis">
          -102 callsubr
          -291 187 -98 callsubr
        </CharString>
        <CharString name="Wgrave">
          -102 callsubr
          -86 107 -75 callgsubr
          3 1 4 2 hvcurveto
          33 48 rlineto
          2 2 1 3 9 callsubr
          -28 callsubr
          -173 131 rlineto
          2 -42 callgsubr
          -3 -3 hvcurveto
          -44 -63 54 callgsubr
          0 callsubr
          -3 2 -2 -8 callsubr
          endchar
        </CharString>
        <CharString name="X">
          112 298 29 rmoveto
          -10 5 11 -19 33 hhcurveto
          277 hlineto
          15 19 11 23 7 -2 7 -4 9 hvcurveto
          -172 378 128 229 rlineto
          5 9 3 8 6 vvcurveto
          9 -7 5 -10 vhcurveto
          -56 hlineto
          -26 -9 -18 -22 -11 hvcurveto
          -63 -123 -61 134 rlineto
          10 -5 -11 79 callsubr
          -277 hlineto
          -16 -18 -11 -23 -6 2 -8 4 -9 hvcurveto
          151 -334 -152 -273 rlineto
          -5 -9 -3 -7 -6 vvcurveto
          -10 7 -5 10 vhcurveto
          56 hlineto
          26 9 19 21 11 hvcurveto
          87 168 rlineto
          391 -147 rmoveto
          -16 8 -11 -4 -11 hhcurveto
          -18 hlineto
          -281 619 rlineto
          24 hlineto
          8 8 -1 -15 7 hvcurveto
          endchar
        </CharString>
        <CharString name="Y">
          44 129 26 callsubr
          50 vhcurveto
          231 hlineto
          54 16 42 callsubr
          314 vlineto
          111 282 rlineto
          4 10 2 9 5 vvcurveto
          10 -7 3 -10 vhcurveto
          -45 -30 callsubr
          -3 -13 19 -33 hhcurveto
          -267 -12 callsubr
          124 -273 rlineto
          285 -101 rmoveto
          -143 390 rlineto
          23 hlineto
          11 7 -4 -11 3 hvcurveto
          137 -372 rlineto
          -201 vlineto
          -80 callgsubr
          endchar
        </CharString>
        <CharString name="Yacute">
          44 129 26 callsubr
          50 vhcurveto
          231 hlineto
          54 16 42 callsubr
          314 vlineto
          111 282 rlineto
          4 10 2 9 5 vvcurveto
          10 -7 3 -10 vhcurveto
          -45 -30 callsubr
          -3 -13 19 -33 hhcurveto
          -267 -12 callsubr
          124 -273 rlineto
          285 -101 rmoveto
          -143 390 rlineto
          23 hlineto
          11 7 -4 -11 3 hvcurveto
          137 -372 rlineto
          -201 vlineto
          -80 callgsubr
          75 823 -107 callgsubr
        </CharString>
        <CharString name="Ycircumflex">
          44 129 26 callsubr
          50 vhcurveto
          231 hlineto
          54 16 42 callsubr
          314 vlineto
          111 282 rlineto
          4 10 2 9 5 vvcurveto
          10 -7 3 -10 vhcurveto
          -45 -30 callsubr
          -3 -13 19 -33 hhcurveto
          -267 -12 callsubr
          124 -273 rlineto
          285 -101 rmoveto
          -143 390 rlineto
          23 hlineto
          11 7 -4 -11 3 hvcurveto
          137 -372 rlineto
          -201 vlineto
          -80 callgsubr
          45 708 -75 callgsubr
          2 1 4 34 callsubr
          43 rlineto
          2 2 1 3 2 vvcurveto
          2 -14 callgsubr
          vhcurveto
          -148 126 rlineto
          1 -2 -1 2 -4 hhcurveto
          -3 -2 -3 callsubr
          hvcurveto
          -148 -126 rlineto
          -3 -57 callgsubr
          -2 1 -3 1 27 callsubr
          -43 -100 callsubr
          109 77 rlineto
          endchar
        </CharString>
        <CharString name="Ydieresis">
          44 129 26 callsubr
          50 vhcurveto
          231 hlineto
          54 16 42 callsubr
          314 vlineto
          111 282 rlineto
          4 10 2 9 5 vvcurveto
          10 -7 3 -10 vhcurveto
          -45 -30 callsubr
          -3 -13 19 -33 hhcurveto
          -267 -12 callsubr
          124 -273 rlineto
          285 -101 rmoveto
          -143 390 rlineto
          23 hlineto
          11 7 -4 -11 3 hvcurveto
          137 -372 rlineto
          -201 vlineto
          -80 callgsubr
          -224 788 -98 callsubr
        </CharString>
        <CharString name="Ygrave">
          44 129 26 callsubr
          50 vhcurveto
          231 hlineto
          54 16 42 callsubr
          314 vlineto
          111 282 rlineto
          4 10 2 9 5 vvcurveto
          10 -7 3 -10 vhcurveto
          -45 -30 callsubr
          -3 -13 19 -33 hhcurveto
          -267 -12 callsubr
          124 -273 rlineto
          285 -101 rmoveto
          -143 390 rlineto
          23 hlineto
          11 7 -4 -11 3 hvcurveto
          137 -372 rlineto
          -201 vlineto
          -80 callgsubr
          -19 708 -75 callgsubr
          3 1 4 2 hvcurveto
          33 48 rlineto
          2 2 1 3 9 callsubr
          -28 callsubr
          -173 131 rlineto
          2 -42 callgsubr
          -3 -3 hvcurveto
          -44 -63 54 callgsubr
          0 callsubr
          -3 2 -2 -8 callsubr
          endchar
        </CharString>
        <CharString name="Z">
          -85 callsubr
          endchar
        </CharString>
        <CharString name="Zacute">
          -85 callsubr
          -70 229 -107 callgsubr
        </CharString>
        <CharString name="Zcaron">
          -85 callsubr
          -210 222 -107 callsubr
        </CharString>
        <CharString name="Zdotaccent">
          -85 callsubr
          -282 194 -68 callgsubr
        </CharString>
        <CharString name="a">
          -105 callgsubr
          endchar
        </CharString>
        <CharString name="aacute">
          -105 callgsubr
          -39 643 -107 callgsubr
        </CharString>
        <CharString name="abreve">
          -105 callgsubr
          -179 621 -99 callsubr
        </CharString>
        <CharString name="acircumflex">
          -105 callgsubr
          -69 528 -75 callgsubr
          2 1 4 34 callsubr
          43 rlineto
          2 2 1 3 2 vvcurveto
          2 -14 callgsubr
          vhcurveto
          -148 126 rlineto
          1 -2 -1 2 -4 hhcurveto
          -3 -2 -3 callsubr
          hvcurveto
          -148 -126 rlineto
          -3 -57 callgsubr
          -2 1 -3 1 27 callsubr
          -43 -100 callsubr
          109 77 rlineto
          endchar
        </CharString>
        <CharString name="acute">
          340 684 -107 callgsubr
        </CharString>
        <CharString name="adieresis">
          -105 callgsubr
          -338 608 -98 callsubr
        </CharString>
        <CharString name="ae">
          -73 callsubr
          endchar
        </CharString>
        <CharString name="aeacute">
          -73 callsubr
          -68 631 -107 callgsubr
        </CharString>
        <CharString name="agrave">
          -105 callgsubr
          -133 528 -75 callgsubr
          3 1 4 2 hvcurveto
          33 48 rlineto
          2 2 1 3 9 callsubr
          -28 callsubr
          -173 131 rlineto
          2 -42 callgsubr
          -3 -3 hvcurveto
          -44 -63 54 callgsubr
          0 callsubr
          -3 2 -2 -8 callsubr
          endchar
        </CharString>
        <CharString name="amacron">
          -105 callgsubr
          -49 558 rmoveto
          -51 callsubr
          78 -23 callsubr
          -7 vhcurveto
          -260 hlineto
          -39 callsubr
          -78 -43 callgsubr
          6 vhcurveto
          endchar
        </CharString>
        <CharString name="ampersand">
          167 212 285 rmoveto
          -75 -10 -60 -46 -78 vvcurveto
          -107 115 -51 157 171 103 61 194 14 vhcurveto
          45 hlineto
          8 3 4 7 hvcurveto
          46 vlineto
          7 -5 4 -6 vhcurveto
          -287 hlineto
          -16 -5 10 10 hvcurveto
          274 vlineto
          12 3 7 20 95 82 -63 -26 30 vhcurveto
          -1 2 -1 38 callgsubr
          1 2 2 vhcurveto
          30 49 41 callsubr
          84 callsubr
          2 -2 1 vhcurveto
          78 -91 -96 26 -111 hhcurveto
          -202 -111 -102 -120 -117 83 -62 100 -19 hvcurveto
          160 -59 rmoveto
          12 3 10 19 vhcurveto
          165 hlineto
          -118 -9 -46 -65 -99 hhcurveto
          -10 -23 -1 24 hvcurveto
          -40 -23 rmoveto
          -6 -21 2 2 -11 hvcurveto
          553 vlineto
          15 6 19 0 4 1 rrcurveto
          endchar
        </CharString>
        <CharString name="aogonek">
          74 585 66 rmoveto
          -100 callgsubr
          163 hlineto
          -58 -32 -34 -47 -42 vvcurveto
          -83 74 -26 -34 callgsubr
          -15 -18 -16 -63 hhcurveto
          -56 -18 20 27 32 54 53 65 21 hvcurveto
          51 16 7 12 41 vvcurveto
          -360 203 -83 callgsubr
          endchar
        </CharString>
        <CharString name="approxequal">
          -56 373 440 rmoveto
          1 -3 -2 0 -2 hhcurveto
          -6 -1 -5 58 callgsubr
          -82 -21 hvcurveto
          -1 -1 -3 -3 vvcurveto
          -4 2 -5 8 -4 vhcurveto
          57 -24 rlineto
          -2 3 4 -48 callgsubr
          8 2 6 3 1 hvcurveto
          27 8 12 20 22 25 63 -63 53 hhcurveto
          49 46 32 84 21 hvcurveto
          1 1 0 3 97 callgsubr
          -61 -189 rmoveto
          1 -3 22 callgsubr
          hhcurveto
          -6 -1 -6 58 callgsubr
          -81 -21 hvcurveto
          -2 -1 -3 -3 vvcurveto
          -4 2 -5 8 -4 vhcurveto
          57 -24 rlineto
          -2 3 4 -48 callgsubr
          8 2 6 3 1 hvcurveto
          27 8 12 20 22 25 63 -63 53 hhcurveto
          49 46 32 84 21 hvcurveto
          1 2 0 2 97 callgsubr
          endchar
        </CharString>
        <CharString name="aring">
          -105 callgsubr
          -305 645 -49 callgsubr
        </CharString>
        <CharString name="asciicircum">
          -56 379 435 rmoveto
          -3 3 2 -3 3 hhcurveto
          53 callgsubr
          2 hvcurveto
          62 52 rlineto
          3 3 49 callsubr
          vvcurveto
          2 -1 2 -1 2 vhcurveto
          -159 196 rlineto
          6 -5 -4 2 -7 hhcurveto
          -70 hlineto
          -7 95 callsubr
          -5 hvcurveto
          -159 -196 rlineto
          -1 -3 callsubr
          -2 vvcurveto
          -3 3 91 callgsubr
          62 -52 rlineto
          -2 53 callgsubr
          hhcurveto
          3 39 callgsubr
          2 hvcurveto
          129 165 rlineto
          endchar
        </CharString>
        <CharString name="asciitilde">
          -56 378 337 rmoveto
          -12 6 -2 -9 -1 -3 rrcurveto
          -28 -9 -14 -26 -25 -27 -53 68 -59 hhcurveto
          -54 -52 -37 -82 -23 hvcurveto
          -1 -5 -4 -9 15 -6 61 -30 rcurveline
          15 -7 3 9 2 5 rrcurveto
          26 9 13 25 25 27 53 -67 59 hhcurveto
          54 49 37 83 25 hvcurveto
          3 8 -1 6 -11 5 rrcurveto
          endchar
        </CharString>
        <CharString name="asterisk">
          -182 344 566 rmoveto
          7 3 3 4 6 vvcurveto
          2 0 -37 callsubr
          vhcurveto
          -21 45 rlineto
          7 -4 59 callsubr
          -3 -2 0 -2 -3 hvcurveto
          -88 -49 6 95 rlineto
          10 1 -5 6 -11 hhcurveto
          -50 hlineto
          -11 -6 -6 -10 hvcurveto
          6 -95 -88 49 rlineto
          2 -3 -2 0 -3 hhcurveto
          -6 -4 -3 -7 -4 hvcurveto
          -21 -45 rlineto
          -1 -3 0 -2 -2 vvcurveto
          -6 3 -4 7 -3 vhcurveto
          96 -38 -65 -81 rlineto
          -4 callsubr
          15 callsubr
          -5 4 -4 5 -4 41 -28 rcurveline
          -2 3 3 -2 3 hhcurveto
          5 1 4 2 3 5 59 97 rcurveline
          59 -97 3 -5 4 -2 5 -1 rlinecurve
          3 39 callgsubr
          3 hvcurveto
          41 28 rlineto
          5 4 3 4 5 vvcurveto
          3 -1 4 -3 3 vhcurveto
          -65 81 rlineto
          endchar
        </CharString>
        <CharString name="at">
          292 568 139 rmoveto
          126 105 102 140 211 -146 131 -212 -211 -181 -161 -221 -212 171 -156 211 53 45 6 18 45 hvcurveto
          4 2 10 2 -5 13 -18 41 rcurveline
          -7 14 -12 -7 -6 -1 rrcurveto
          -12 -34 -36 -4 -39 hhcurveto
          -171 -139 124 172 181 150 129 170 182 104 -104 -166 -81 -41 -67 -66 -18 hvcurveto
          163 vlineto
          151 -85 25 -109 -72 -64 -30 -25 -31 vhcurveto
          -3 -2 -4 -3 -5 vvcurveto
          103 callgsubr
          1 -3 vhcurveto
          12 -25 rlineto
          -5 2 2 -1 5 11 25 28 42 hhcurveto
          15 30 -4 -43 hvcurveto
          -14 vlineto
          -70 -6 -96 -35 -99 vvcurveto
          -107 84 -31 90 vhcurveto
          -8 216 rmoveto
          -153 vlineto
          -65 -32 28 46 46 32 33 65 hvcurveto
          90 164 rmoveto
          55 -11 36 -32 -98 vvcurveto
          -176 -38 176 vlineto
          72 -20 44 -33 25 vhcurveto
          endchar
        </CharString>
        <CharString name="atilde">
          -105 callgsubr
          -76 683 -99 callgsubr
        </CharString>
        <CharString name="b">
          88 318 -10 rmoveto
          147 153 53 205 164 -98 67 -115 21 hvcurveto
          231 vlineto
          47 -15 23 -56 -9 callsubr
          -92 callgsubr
          -486 vlineto
          -164 102 -93 171 vhcurveto
          87 447 rmoveto
          101 -12 43 -77 -100 vvcurveto
          -100 -43 -76 -101 -12 vhcurveto
          377 vlineto
          -42 -384 rmoveto
          -2 -10 -21 -1 -7 hhcurveto
          709 -82 callgsubr
          endchar
        </CharString>
        <CharString name="backslash">
          -242 214 -1 rmoveto
          -7 2 6 -11 10 hhcurveto
          2 3 0 1 2 hvcurveto
          32 7 rlineto
          9 2 10 4 11 vvcurveto
          3 -1 4 -1 4 vhcurveto
          -188 689 rlineto
          16 -4 -6 2 -8 hhcurveto
          -4 -3 0 -2 -4 hvcurveto
          -30 -8 rlineto
          -11 -4 -6 -3 -9 vvcurveto
          -3 1 -3 1 -4 vhcurveto
          endchar
        </CharString>
        <CharString name="bar">
          -306 84 -227 rmoveto
          -22 13 -1 11 vhcurveto
          38 -1 callgsubr
          954 37 callgsubr
          endchar
        </CharString>
        <CharString name="braceleft">
          -90 356 169 rmoveto
          77 -34 31 -37 22 vhcurveto
          37 23 34 31 77 vvcurveto
          217 vlineto
          41 22 22 38 vhcurveto
          20 hlineto
          -58 callsubr
          -140 hlineto
          -125 -61 -72 -119 hvcurveto
          -174 vlineto
          -65 -4 -15 -76 -7 -3 -3 -8 vhcurveto
          -50 vlineto
          -6 2 -4 8 76 4 -15 -65 vhcurveto
          -174 vlineto
          -119 61 -72 125 vhcurveto
          140 hlineto
          7 3 3 7 hvcurveto
          49 vlineto
          8 -4 3 -6 vhcurveto
          -20 hlineto
          -38 -22 22 41 hvcurveto
          -111 365 rmoveto
          22 22 9 31 60 vvcurveto
          217 vlineto
          41 32 41 67 vhcurveto
          -39 -4 -22 -37 -41 vvcurveto
          -217 vlineto
          -77 -32 -16 -37 -20 vhcurveto
          -35 vmoveto
          37 -20 32 -15 -78 vvcurveto
          -217 vlineto
          -41 22 -37 39 -4 vhcurveto
          -67 -32 41 41 hvcurveto
          217 vlineto
          60 -9 31 -22 22 vhcurveto
          endchar
        </CharString>
        <CharString name="braceright">
          -90 110 -48 rmoveto
          -41 -22 -22 -38 vhcurveto
          -20 60 callgsubr
          -3 -8 hvcurveto
          -49 vlineto
          -7 2 -3 8 vhcurveto
          139 hlineto
          125 62 72 119 hvcurveto
          174 vlineto
          65 4 15 76 7 3 4 6 vhcurveto
          50 vlineto
          8 -4 3 -6 -76 -4 15 65 vhcurveto
          174 vlineto
          119 -62 72 -125 vhcurveto
          -139 hlineto
          -8 -2 -4 -6 hvcurveto
          -49 vlineto
          -8 3 -3 7 vhcurveto
          20 hlineto
          38 22 -22 -41 hvcurveto
          -217 vlineto
          -77 34 -31 37 -23 vhcurveto
          -37 -22 -34 -31 -77 vvcurveto
          235 157 rmoveto
          -60 4 -9 27 58 vvcurveto
          174 vlineto
          71 -22 54 -44 32 vhcurveto
          70 -19 34 -49 -89 vvcurveto
          -174 vlineto
          -40 7 -33 24 -16 vhcurveto
          -53 vmoveto
          -24 -16 -7 -33 -40 vvcurveto
          -174 vlineto
          -89 -34 -49 -70 -19 vhcurveto
          44 32 22 54 71 vvcurveto
          174 vlineto
          58 9 28 60 3 vhcurveto
          endchar
        </CharString>
        <CharString name="bracketleft">
          -111 415 -181 rmoveto
          -51 callsubr
          48 vlineto
          7 -22 callgsubr
          -80 821 80 hlineto
          -58 callsubr
          -321 51 callsubr
          -915 4 callsubr
          199 94 callgsubr
        </CharString>
        <CharString name="bracketright">
          -111 352 -181 rmoveto
          12 12 1 22 hvcurveto
          915 -9 callgsubr
          -321 60 callgsubr
          -4 -6 hvcurveto
          -49 -43 callgsubr
          6 vhcurveto
          80 -821 -80 hlineto
          100 callgsubr
          -48 -43 callgsubr
          6 vhcurveto
          303 94 callgsubr
        </CharString>
        <CharString name="breve">
          200 662 -99 callsubr
        </CharString>
        <CharString name="brokenbar">
          -306 84 394 rmoveto
          -22 13 -1 11 vhcurveto
          38 hlineto
          17 3 11 12 hvcurveto
          333 37 callgsubr
          -954 vmoveto
          -22 13 -1 11 vhcurveto
          38 -1 callgsubr
          333 37 callgsubr
          endchar
        </CharString>
        <CharString name="bullet">
          -217 37 349 rmoveto
          -73 60 -60 73 73 60 60 73 73 -60 60 -73 -73 -60 -60 -73 vhcurveto
          150 90 rmoveto
          42 -8 32 -37 -45 vvcurveto
          -44 -32 -36 -41 -9 vhcurveto
          24 23 11 31 35 vvcurveto
          35 -11 32 -25 23 vhcurveto
          endchar
        </CharString>
        <CharString name="c">
          -97 callgsubr
          endchar
        </CharString>
        <CharString name="cacute">
          -97 callgsubr
          12 625 -107 callgsubr
        </CharString>
        <CharString name="caron">
          200 677 -107 callsubr
        </CharString>
        <CharString name="ccaron">
          -97 callgsubr
          -128 618 -107 callsubr
        </CharString>
        <CharString name="ccedilla">
          -78 callsubr
          -180 125 -72 133 -13 hvcurveto
          -7 -36 -9 -40 -5 0 callgsubr
          7 32 108 5 75 37 40 28 rlinecurve
          -88 callsubr
          endchar
        </CharString>
        <CharString name="ccircumflex">
          -97 callgsubr
          -18 510 -75 callgsubr
          2 1 4 34 callsubr
          43 rlineto
          2 2 1 3 2 vvcurveto
          2 -14 callgsubr
          vhcurveto
          -148 126 rlineto
          1 -2 -1 2 -4 hhcurveto
          -3 -2 -3 callsubr
          hvcurveto
          -148 -126 rlineto
          -3 -57 callgsubr
          -2 1 -3 1 27 callsubr
          -43 -100 callsubr
          109 77 rlineto
          endchar
        </CharString>
        <CharString name="cdotaccent">
          -97 callgsubr
          -200 590 -68 callgsubr
        </CharString>
        <CharString name="cedilla">
          227 5 rmoveto
          -66 hlineto
          -8 -39 -13 -59 -6 0 callgsubr
          endchar
        </CharString>
        <CharString name="cent">
          -53 35 250 rmoveto
          -157 98 -70 101 -18 vhcurveto
          -106 4 callsubr
          35 -1 callgsubr
          101 vlineto
          73 5 49 29 34 26 rrcurveto
          3 2 6 3 6 vvcurveto
          2 -1 -28 callsubr
          -16 26 rlineto
          5 -3 -2 0 -3 -5 -21 -17 -33 hhcurveto
          -41 -37 34 124 124 37 35 41 hvcurveto
          33 15 -14 7 hhcurveto
          2 2 0 5 3 hvcurveto
          16 25 rlineto
          2 3 78 callgsubr
          vvcurveto
          5 -6 3 -3 3 vhcurveto
          -33 24 -55 26 -63 5 rrcurveto
          98 vlineto
          14 -2 9 -18 vhcurveto
          -36 32 callsubr
          -102 vlineto
          -101 -18 -98 -70 -157 vvcurveto
          315 -176 rmoveto
          -56 -61 52 124 124 61 53 56 hvcurveto
          -36 -10 -42 -43 -124 vvcurveto
          -124 42 -43 36 -9 vhcurveto
          endchar
        </CharString>
        <CharString name="circumflex">
          310 569 -75 callgsubr
          2 1 4 34 callsubr
          43 rlineto
          2 2 1 3 2 vvcurveto
          2 -14 callgsubr
          vhcurveto
          -148 126 rlineto
          1 -2 -1 2 -4 hhcurveto
          -3 -2 -3 callsubr
          hvcurveto
          -148 -126 rlineto
          -3 -57 callgsubr
          -2 1 -3 1 27 callsubr
          -43 -100 callsubr
          109 77 rlineto
          endchar
        </CharString>
        <CharString name="colon">
          -200 65 103 -65 callgsubr
          -122 223 -65 callgsubr
          endchar
        </CharString>
        <CharString name="comma">
          -230 50 103 rmoveto
          -57 42 -46 54 -8 vhcurveto
          -45 -101 rlineto
          -2 89 callsubr
          59 hlineto
          18 2 7 17 7 hvcurveto
          64 150 rlineto
          7 18 7 22 20 vvcurveto
          -48 callsubr
          endchar
        </CharString>
        <CharString name="commaaccent">
          138 -122 rmoveto
          -31 24 -26 29 -4 vhcurveto
          -24 -55 -25 callsubr
          66 callsubr
          5 vhcurveto
          32 hlineto
          10 1 4 9 4 hvcurveto
          35 82 rlineto
          4 9 4 13 11 vvcurveto
          34 -28 27 -34 -33 -29 -27 -34 vhcurveto
          endchar
        </CharString>
        <CharString name="copyright">
          286 50 354 rmoveto
          -205 166 -166 205 205 166 166 205 205 -166 166 -205 -205 -166 -166 -205 vhcurveto
          70 hmoveto
          166 135 135 166 166 135 98 callsubr
          98 callsubr
          135 166 vhcurveto
          327 -4 rmoveto
          102 45 31 41 17 18 -9 -6 10 vhcurveto
          5 -3 4 -2 5 8 12 20 rcurveline
          4 8 -6 4 -4 3 rrcurveto
          23 -31 -64 26 -74 hhcurveto
          -103 -109 -51 -154 -152 109 -52 103 85 58 31 22 31 hvcurveto
          4 3 7 5 -5 8 -12 20 rcurveline
          -5 8 -3 -2 -6 -4 rrcurveto
          -6 -10 -19 -12 -21 hhcurveto
          -41 -45 31 100 hvcurveto
          47 -146 rmoveto
          -56 -67 46 100 102 67 46 56 hvcurveto
          -41 -5 -45 -41 -102 vvcurveto
          -100 45 -41 41 -5 vhcurveto
          endchar
        </CharString>
        <CharString name="currency">
          -80 43 155 rmoveto
          -6 -7 -3 -5 -5 vvcurveto
          -7 5 -5 5 -4 vhcurveto
          19 -19 rlineto
          -5 5 4 -2 76 callsubr
          4 4 5 hvcurveto
          61 61 rlineto
          -15 24 29 -9 31 hhcurveto
          31 28 9 15 25 hvcurveto
          60 -60 rlineto
          -7 7 5 -2 5 hhcurveto
          6 6 5 4 5 hvcurveto
          19 20 rlineto
          4 4 2 5 4 vvcurveto
          7 -4 5 -4 5 vhcurveto
          -61 60 rlineto
          15 24 9 29 31 vvcurveto
          31 -9 29 -15 24 vhcurveto
          61 61 rlineto
          5 5 3 5 6 vvcurveto
          4 -2 5 -5 6 vhcurveto
          -19 19 rlineto
          5 -5 -5 4 -6 hhcurveto
          -4 -6 -3 -6 -7 hvcurveto
          -60 -61 rlineto
          16 -25 -28 9 -31 hhcurveto
          -31 -28 -10 -15 -25 hvcurveto
          -61 61 rlineto
          6 -5 -5 85 callgsubr
          -4 -5 -2 -5 -6 hvcurveto
          -19 -19 rlineto
          -4 -5 -5 -5 -7 vvcurveto
          -4 3 -5 6 -7 vhcurveto
          61 -61 rlineto
          -15 -25 -9 -28 -31 vvcurveto
          -31 9 -29 15 -24 vhcurveto
          48 84 rmoveto
          48 38 38 48 48 38 -38 -48 -48 -38 -38 -48 -48 -38 38 48 vhcurveto
          endchar
        </CharString>
        <CharString name="d">
          88 12 callgsubr
          -231 vlineto
          -13 callgsubr
          -504 184 rmoveto
          98 43 76 101 11 84 callgsubr
          12 -43 75 96 vvcurveto
          463 -180 25 callsubr
        </CharString>
        <CharString name="dagger">
          -3 callgsubr
          -486 4 callsubr
          37 -1 callgsubr
          486 35 callsubr
        </CharString>
        <CharString name="daggerdbl">
          -3 callgsubr
          -236 -7 callsubr
          -190 4 callsubr
          37 -1 callgsubr
          191 vlineto
          126 -15 8 callsubr
          236 35 callsubr
        </CharString>
        <CharString name="dcaron">
          225 12 callgsubr
          -231 vlineto
          -13 callgsubr
          -504 184 rmoveto
          98 43 76 101 11 84 callgsubr
          12 -43 75 96 vvcurveto
          463 -180 -84 callsubr
          718 -82 callgsubr
          86 -72 rmoveto
          -67 callsubr
        </CharString>
        <CharString name="dcroat">
          88 12 callgsubr
          -83 -96 vlineto
          -8 -24 callsubr
          -50 vlineto
          -7 4 -3 7 vhcurveto
          96 -78 hlineto
          -13 callgsubr
          510 45 vlineto
          6 4 3 7 hvcurveto
          50 -23 callsubr
          -7 vhcurveto
          -45 hlineto
          -504 -396 rmoveto
          98 43 76 101 11 84 callgsubr
          12 -43 75 96 vvcurveto
          463 -180 25 callsubr
        </CharString>
        <CharString name="degree">
          -268 24 595 rmoveto
          -66 54 -53 66 66 53 53 66 66 -53 54 -66 -66 -54 -54 -66 vhcurveto
          58 1 rmoveto
          34 28 28 34 35 27 -28 -34 -35 -27 -27 -35 -34 -28 27 35 vhcurveto
          endchar
        </CharString>
        <CharString name="dieresis">
          41 649 -98 callsubr
        </CharString>
        <CharString name="divide">
          14 callsubr
          115 -96 rmoveto
          -34 27 -27 34 34 28 27 34 34 -28 28 -34 -34 -27 -28 -34 vhcurveto
          295 vmoveto
          -33 27 -27 34 34 28 27 33 35 -28 27 -34 -34 -27 -27 -35 vhcurveto
          endchar
        </CharString>
        <CharString name="dollar">
          -95 271 727 rmoveto
          56 callgsubr
          -35 32 callsubr
          -109 vlineto
          -85 -31 -68 -62 -100 -122 71 3 -109 vvcurveto
          -55 -27 -29 -36 vhcurveto
          -4 -5 1 -3 56 callsubr
          hvcurveto
          -41 vlineto
          -7 -37 callsubr
          -1 vhcurveto
          -2 12 33 -4 40 hhcurveto
          26 23 2 3 23 hvcurveto
          -110 4 callsubr
          35 -1 callgsubr
          131 vlineto
          101 40 49 83 87 117 -77 59 52 vvcurveto
          49 19 17 41 2 vhcurveto
          3 5 -1 8 hvcurveto
          40 1 callgsubr
          2 -6 vhcurveto
          1 -12 -22 2 -25 hhcurveto
          -24 -25 -2 -4 -24 hvcurveto
          -40 -536 rmoveto
          73 44 36 67 75 97 -76 65 65 vvcurveto
          47 34 40 65 2 vhcurveto
          -41 -11 -19 -31 -39 -66 76 -51 -117 vvcurveto
          -94 -62 -62 -86 -31 vhcurveto
          endchar
        </CharString>
        <CharString name="dotaccent">
          128 649 -68 callgsubr
        </CharString>
        <CharString name="dotlessi">
          -90 callsubr
          endchar
        </CharString>
        <CharString name="dotlessj">
          -106 -66 -164 71 callsubr
          76 callgsubr
          -20 38 56 -12 86 hhcurveto
          115 167 30 235 hvcurveto
          379 vlineto
          -5 callgsubr
          -67 -4 -38 -30 hvcurveto
          -480 vlineto
          -51 -20 -25 -41 vhcurveto
          -28 -7 6 -8 25 callgsubr
          429 189 rmoveto
          -92 -17 -54 -50 -42 vhcurveto
          28 58 1 53 60 vvcurveto
          415 -82 callgsubr
          endchar
        </CharString>
        <CharString name="e">
          -106 callsubr
          endchar
        </CharString>
        <CharString name="eacute">
          -106 callsubr
          4 630 -107 callgsubr
        </CharString>
        <CharString name="ebreve">
          -106 callsubr
          -136 608 -99 callsubr
        </CharString>
        <CharString name="ecaron">
          -106 callsubr
          -136 623 -107 callsubr
        </CharString>
        <CharString name="ecircumflex">
          -106 callsubr
          -26 515 -75 callgsubr
          2 1 4 34 callsubr
          43 rlineto
          2 2 1 3 2 vvcurveto
          2 -14 callgsubr
          vhcurveto
          -148 126 rlineto
          1 -2 -1 2 -4 hhcurveto
          -3 -2 -3 callsubr
          hvcurveto
          -148 -126 rlineto
          -3 -57 callgsubr
          -2 1 -3 1 27 callsubr
          -43 -100 callsubr
          109 77 rlineto
          endchar
        </CharString>
        <CharString name="edieresis">
          -106 callsubr
          -295 595 -98 callsubr
        </CharString>
        <CharString name="edotaccent">
          -106 callsubr
          -208 595 -68 callgsubr
        </CharString>
        <CharString name="egrave">
          -106 callsubr
          -90 515 -75 callgsubr
          3 1 4 2 hvcurveto
          33 48 rlineto
          2 2 1 3 9 callsubr
          -28 callsubr
          -173 131 rlineto
          2 -42 callgsubr
          -3 -3 hvcurveto
          -44 -63 54 callgsubr
          0 callsubr
          -3 2 -2 -8 callsubr
          endchar
        </CharString>
        <CharString name="eight">
          21 267 -18 rmoveto
          191 89 102 116 80 -39 53 -69 55 hvcurveto
          54 37 29 50 55 vvcurveto
          134 -115 51 -119 -141 -90 -75 -124 -68 51 -61 45 -38 vhcurveto
          -71 -34 -52 -51 -92 vvcurveto
          -137 121 -53 116 vhcurveto
          33 163 rmoveto
          -41 -25 -49 -63 -55 -58 43 78 58 35 49 63 20 vhcurveto
          69 -53 34 -41 -64 vvcurveto
          -8 429 rmoveto
          51 30 21 37 49 45 -49 -67 -41 -22 -40 -34 -21 vhcurveto
          -52 38 -53 53 55 vvcurveto
          81 -543 rmoveto
          65 38 28 48 74 169 -254 43 163 vvcurveto
          58 38 44 72 2 vhcurveto
          -34 -7 -37 -28 -67 -142 254 -57 -169 vvcurveto
          -80 -43 -58 -89 -31 vhcurveto
          endchar
        </CharString>
        <CharString name="ellipsis">
          422 50 103 -54 callgsubr
          205 -71 -65 callgsubr
          204 -71 -65 callgsubr
          endchar
        </CharString>
        <CharString name="emacron">
          -106 callsubr
          -6 545 rmoveto
          -51 callsubr
          78 -23 callsubr
          -7 vhcurveto
          -260 hlineto
          -39 callsubr
          -78 -43 callgsubr
          6 vhcurveto
          endchar
        </CharString>
        <CharString name="emdash">
          444 990 61 callgsubr
          -980 61 callsubr
        </CharString>
        <CharString name="endash">
          -56 441 61 callgsubr
          -382 61 callsubr
        </CharString>
        <CharString name="eng">
          52 296 -174 rmoveto
          -12 7 76 callgsubr
          -16 23 33 -5 41 hhcurveto
          71 89 36 157 hvcurveto
          402 vlineto
          83 -37 44 -62 -35 -32 96 callsubr
          vhcurveto
          15 -8 -23 5 -29 hhcurveto
          -200 -92 callgsubr
          -364 vlineto
          -72 callgsubr
          210 hlineto
          62 13 42 callsubr
          358 vlineto
          9 9 17 10 15 hhcurveto
          29 13 -20 -37 hvcurveto
          -422 vlineto
          -64 -29 -45 -72 vhcurveto
          -49 -21 15 -11 hhcurveto
          -5 -5 -1 -9 hvcurveto
          67 210 -84 callsubr
          418 vlineto
          27 11 -8 -23 hvcurveto
          endchar
        </CharString>
        <CharString name="eogonek">
          -91 callgsubr
          13 14 0 1 12 vhcurveto
          -19 -23 -10 -24 -23 -41 callsubr
          -14 -19 -16 -62 hhcurveto
          -57 -18 20 27 27 26 37 45 21 hvcurveto
          35 16 28 16 18 14 rrcurveto
          -101 callgsubr
          endchar
        </CharString>
        <CharString name="equal">
          -56 417 301 rmoveto
          -51 callsubr
          83 -23 callsubr
          -7 vhcurveto
          -334 hlineto
          -39 callsubr
          -83 -43 callgsubr
          6 vhcurveto
          334 -196 rmoveto
          -51 callsubr
          84 -23 callsubr
          -7 vhcurveto
          -334 hlineto
          -39 callsubr
          -84 -43 callgsubr
          6 vhcurveto
          endchar
        </CharString>
        <CharString name="eth">
          98 273 546 rmoveto
          -4 3 5 -3 5 hhcurveto
          3 3 90 callsubr
          64 52 33 -30 34 -38 29 -44 rlinecurve
          13 -43 -44 4 -42 57 callgsubr
          -65 -194 -195 154 -63 147 137 164 43 219 169 -82 142 -112 99 hvcurveto
          55 45 rlineto
          3 27 callgsubr
          2 vvcurveto
          4 -2 3 -2 3 vhcurveto
          -28 33 rlineto
          3 -3 -2 2 -4 hhcurveto
          -3 -4 -2 -3 -4 hvcurveto
          -64 -51 -30 21 -33 19 -32 16 rlinecurve
          1 -2 -3 1 -4 hhcurveto
          -3 -3 -2 -6 -4 hvcurveto
          -32 -47 rlineto
          -3 -4 0 42 callgsubr
          -5 4 -2 3 -1 vhcurveto
          18 -11 24 -15 27 -20 -53 -42 rcurveline
          -4 -4 -2 -4 -5 vvcurveto
          -2 -44 callsubr
          228 -478 rmoveto
          -43 -39 17 124 125 51 17 31 40 42 -27 -111 -117 -41 -28 -41 hvcurveto
          -37 -24 rmoveto
          -57 -70 30 135 135 82 31 45 hvcurveto
          -31 -8 -55 -26 -20 callsubr
          43 -25 43 -8 vhcurveto
          endchar
        </CharString>
        <CharString name="exclam">
          -111 232 257 rmoveto
          46 -14 37 28 4 hvcurveto
          12 77 105 67 88 vvcurveto
          3 callgsubr
          -88 105 -67 12 -77 vhcurveto
          -28 4 -14 -37 46 hhcurveto
          -103 -154 rmoveto
          -62 52 77 callgsubr
          50 51 62 62 -50 10 callgsubr
          13 508 rmoveto
          57 -17 41 -46 -65 vvcurveto
          -83 -96 -51 -14 -84 vhcurveto
          6 101 64 29 88 vvcurveto
          50 -23 48 -35 30 vhcurveto
          endchar
        </CharString>
        <CharString name="exclamdown">
          -111 213 445 rmoveto
          -46 14 -37 -28 -4 hvcurveto
          -12 -77 -105 -67 -88 vvcurveto
          -90 73 -73 90 89 73 73 90 88 -105 67 -12 77 vhcurveto
          28 -4 14 37 -46 hhcurveto
          -122 154 rmoveto
          -62 52 77 callgsubr
          50 51 62 62 -50 59 callgsubr
          -71 rmoveto
          16 19 9 25 27 vvcurveto
          26 -9 26 95 callgsubr
          36 -3 27 -31 -6 callsubr
          13 -507 rmoveto
          35 29 23 48 50 vvcurveto
          88 -64 30 -6 100 vhcurveto
          14 -84 96 -51 -83 vvcurveto
          -65 -41 -46 -57 -16 vhcurveto
          endchar
        </CharString>
        <CharString name="f">
          -9 524 203 rmoveto
          17 callsubr
          -98 -36 callgsubr
          -79 383 -1 callsubr
          -514 vlineto
          -29 -7 -2 -31 vhcurveto
          endchar
        </CharString>
        <CharString name="ff">
          473 -62 callsubr
          -561 334 -1 callsubr
          -465 vlineto
          -80 callgsubr
          481 545 34 callgsubr
          48 -1 vhcurveto
          -36 29 callsubr
          endchar
        </CharString>
        <CharString name="ffi">
          874 -62 callsubr
          117 -135 rmoveto
          -72 callgsubr
          214 -27 callsubr
          18 277 -17 callsubr
          -696 -172 -1 callsubr
          -465 vlineto
          -80 callgsubr
          481 545 34 callgsubr
          48 -1 vhcurveto
          -36 -23 callgsubr
        </CharString>
        <CharString name="ffl">
          874 1025 87 callgsubr
          60 -16 callsubr
          -60 -9 callsubr
          hlineto
          -41 -20 -10 -20 -9 hvcurveto
          20 -45 -86 20 -69 hhcurveto
          -129 -154 -72 callsubr
          78 vlineto
          12 callsubr
          40 31 58 8 6 -1 -1 5 vhcurveto
          -678 -173 -1 callsubr
          -465 vlineto
          -80 callgsubr
          481 545 34 callgsubr
          48 -1 vhcurveto
          -36 15 callgsubr
        </CharString>
        <CharString name="fi">
          392 504 203 rmoveto
          20 callgsubr
          39 -23 callsubr
          -8 vhcurveto
          -78 -36 callgsubr
          117 -135 rmoveto
          65 callgsubr
          214 hlineto
          60 -44 callgsubr
          -60 -9 callsubr
          hlineto
          -62 -14 -23 -45 hvcurveto
          19 81 callgsubr
          -89 73 -73 90 88 74 73 89 90 -74 73 -88 -90 -73 -73 -90 vhcurveto
          -215 -123 rmoveto
          115 69 37 47 -1 vhcurveto
          -35 -23 callgsubr
        </CharString>
        <CharString name="five">
          -62 86 141 rmoveto
          8 3 4 3 4 hvcurveto
          12 13 8 1 9 hhcurveto
          37 24 -49 -80 -88 -51 -57 -50 hvcurveto
          -35 -21 17 -9 hhcurveto
          -6 -2 -4 -6 -2 hvcurveto
          -13 -43 -3 -10 6 -2 2 -1 rlinecurve
          -24 57 68 -9 59 hhcurveto
          166 121 78 153 137 -104 80 -135 -61 -38 -14 -9 -25 hvcurveto
          17 95 rlineto
          266 hlineto
          18 14 10 20 hvcurveto
          120 vlineto
          17 -10 8 -22 vhcurveto
          -280 hlineto
          -24 -2 -12 -9 -1 hvcurveto
          -51 -328 rlineto
          -5 -1 2 -5 7 hhcurveto
          250 -289 rmoveto
          61 38 37 62 84 vvcurveto
          77 -31 58 -53 37 vhcurveto
          75 -24 49 -54 -94 vvcurveto
          -102 -53 -56 -85 -26 vhcurveto
          96 523 rmoveto
          -8 -5 -6 -10 vhcurveto
          -20 103 20 hlineto
          9 6 -5 -9 hvcurveto
          endchar
        </CharString>
        <CharString name="fl">
          392 543 68 rmoveto
          65 callgsubr
          213 hlineto
          59 -16 callsubr
          -59 -9 callsubr
          hlineto
          -42 -19 -10 -20 -9 hvcurveto
          20 -46 -85 20 -69 hhcurveto
          -129 -154 64 callsubr
          -60 callsubr
          78 vlineto
          20 callgsubr
          39 -23 callsubr
          -8 vhcurveto
          -78 55 callsubr
          40 31 58 8 7 -1 -1 4 vhcurveto
          -196 -124 rmoveto
          115 69 37 47 -1 vhcurveto
          -35 15 callgsubr
        </CharString>
        <CharString name="florin">
          69 484 343 rmoveto
          78 hlineto
          -2 callsubr
          -78 63 hlineto
          112 35 25 43 vhcurveto
          20 16 -6 2 hhcurveto
          2 3 1 6 hvcurveto
          40 vlineto
          11 -6 2 -4 2 vhcurveto
          22 -43 -92 20 -73 hhcurveto
          -124 -122 48 callgsubr
          -46 -16 callgsubr
          51 -309 hlineto
          -112 -35 -25 -44 vhcurveto
          -19 -16 6 -2 hhcurveto
          -2 -3 -1 -6 hvcurveto
          -40 vlineto
          -11 6 -2 4 -2 vhcurveto
          -22 43 92 -20 73 hhcurveto
          124 122 41 211 hvcurveto
          -161 -210 rmoveto
          50 36 31 63 111 vvcurveto
          427 vlineto
          114 70 37 47 -1 vhcurveto
          -36 -12 -43 -24 -114 vvcurveto
          -427 vlineto
          -135 -50 -54 -69 -21 vhcurveto
          endchar
        </CharString>
        <CharString name="four">
          5 484 70 rmoveto
          139 vlineto
          15 -5 7 -17 vhcurveto
          -53 hlineto
          -17 -3 -10 -12 hvcurveto
          -139 -78 vlineto
          80 349 rlineto
          3 10 2 12 12 vvcurveto
          25 -12 22 -51 vhcurveto
          -138 hlineto
          -62 -13 -23 -45 -11 hvcurveto
          -90 -364 rlineto
          -2 -9 -2 -9 -8 vvcurveto
          -28 19 -14 48 vhcurveto
          307 -157 hlineto
          19 callsubr
          51 hlineto
          19 5 8 15 hvcurveto
          157 67 vlineto
          -58 callsubr
          -283 hmoveto
          -39 hlineto
          90 389 rlineto
          17 hlineto
          14 5 -12 -13 -3 hvcurveto
          endchar
        </CharString>
        <CharString name="fraction">
          -31 callgsubr
        </CharString>
        <CharString name="g">
          -106 callgsubr
          endchar
        </CharString>
        <CharString name="gbreve">
          -106 callgsubr
          -143 690 -99 callsubr
        </CharString>
        <CharString name="gcircumflex">
          -106 callgsubr
          -33 597 -75 callgsubr
          2 1 4 34 callsubr
          43 rlineto
          2 2 1 3 2 vvcurveto
          2 -14 callgsubr
          vhcurveto
          -148 126 rlineto
          1 -2 -1 2 -4 hhcurveto
          -3 -2 -3 callsubr
          hvcurveto
          -148 -126 rlineto
          -3 -57 callgsubr
          -2 1 -3 1 27 callsubr
          -43 -100 callsubr
          109 77 rlineto
          endchar
        </CharString>
        <CharString name="gcommaaccent">
          -106 callgsubr
          -74 662 -14 callsubr
        </CharString>
        <CharString name="gdotaccent">
          -106 callgsubr
          -215 677 -68 callgsubr
        </CharString>
        <CharString name="germandbls">
          133 434 10 rmoveto
          -10 7 0 3 vhcurveto
          104 2 83 35 100 vvcurveto
          60 -39 28 -36 16 vhcurveto
          61 37 72 61 172 vvcurveto
          254 -159 45 -155 -132 -192 -41 -184 vhcurveto
          -517 vlineto
          -72 callgsubr
          214 hlineto
          55 16 25 41 hvcurveto
          601 vlineto
          50 30 16 39 90 50 -100 -122 -137 -60 -105 -117 -6 vhcurveto
          -3 -6 1 -10 hvcurveto
          -42 vlineto
          -10 7 1 4 68 49 -3 -67 -53 -50 -14 -69 -1 vhcurveto
          -3 -6 0 -8 hvcurveto
          -102 607 rmoveto
          72 48 28 63 -1 vhcurveto
          -37 -9 -36 -26 -64 vvcurveto
          -592 vlineto
          -80 callgsubr
          endchar
        </CharString>
        <CharString name="grave">
          246 569 -75 callgsubr
          3 1 4 2 hvcurveto
          33 48 rlineto
          2 2 1 3 9 callsubr
          -28 callsubr
          -173 131 rlineto
          2 -42 callgsubr
          -3 -3 hvcurveto
          -44 -63 54 callgsubr
          0 callsubr
          -3 2 -2 -8 callsubr
          endchar
        </CharString>
        <CharString name="greater">
          -56 76 126 rmoveto
          -13 callsubr
          -2 69 callgsubr
          2 -2 4 hhcurveto
          1 2 0 2 2 hvcurveto
          299 183 rlineto
          6 4 2 6 6 vvcurveto
          40 vlineto
          7 -2 6 -6 4 vhcurveto
          -299 183 70 callsubr
          -2 0 -1 hhcurveto
          71 callgsubr
          -4 -2 hvcurveto
          -42 -72 93 callsubr
          -2 66 callgsubr
          -8 callsubr
          211 -130 rlineto
          endchar
        </CharString>
        <CharString name="greaterequal">
          -56 426 hmoveto
          18 callgsubr
          -352 hlineto
          -8 -3 -3 -6 callgsubr
          213 309 rmoveto
          -211 -100 rlineto
          -3 -1 -2 -3 69 callgsubr
          3 -2 3 hhcurveto
          2 1 1 1 2 hvcurveto
          299 153 rlineto
          7 4 1 6 7 vvcurveto
          40 vlineto
          7 -1 6 -7 4 vhcurveto
          -299 154 rlineto
          -2 -1 1 -2 hhcurveto
          -3 -3 -1 -4 -2 hvcurveto
          -42 -73 rlineto
          -2 -2 0 -3 -1 vvcurveto
          -3 2 76 callgsubr
          endchar
        </CharString>
        <CharString name="guillemotleft">
          -42 -30 callgsubr
          285 68 rmoveto
          15 63 callgsubr
          -4 5 -7 -9 -8 -12 -3 -3 vhcurveto
          -174 75 callsubr
          -5 -5 -5 -6 vvcurveto
          -6 5 -5 4 -5 vhcurveto
          174 75 callsubr
          3 8 -11 9 hhcurveto
          7 4 62 callsubr
          -15 16 vhcurveto
          -65 68 rlineto
          endchar
        </CharString>
        <CharString name="guillemotright">
          -42 284 186 51 callgsubr
          4 -5 8 8 8 11 4 3 vhcurveto
          174 208 rlineto
          4 5 5 5 6 vvcurveto
          6 -5 5 -4 5 vhcurveto
          -174 208 rlineto
          3 -3 -8 12 -8 hhcurveto
          -8 -4 30 callgsubr
          -286 -68 -29 callsubr
        </CharString>
        <CharString name="guilsinglleft">
          -263 -30 callgsubr
          endchar
        </CharString>
        <CharString name="guilsinglright">
          -263 63 186 -29 callsubr
        </CharString>
        <CharString name="h">
          9 callgsubr
          -664 vlineto
          -11 callsubr
          51 vhcurveto
          226 hlineto
          63 7 -86 callsubr
          -24 -21 -8 -11 -14 vhcurveto
          -42 -419 25 callsubr
        </CharString>
        <CharString name="hbar">
          9 callgsubr
          -84 -45 vlineto
          -39 callsubr
          -50 vlineto
          -7 4 -3 6 vhcurveto
          45 -510 hlineto
          -11 callsubr
          51 vhcurveto
          226 hlineto
          63 7 -86 callsubr
          -24 -21 -8 -11 -14 vhcurveto
          87 96 vlineto
          7 4 3 7 hvcurveto
          50 -23 callsubr
          -8 vhcurveto
          -96 hlineto
          -42 -576 25 callsubr
        </CharString>
        <CharString name="hcircumflex">
          9 callgsubr
          -664 vlineto
          -11 callsubr
          51 vhcurveto
          226 hlineto
          63 7 -86 callsubr
          -24 -21 -8 -11 -14 vhcurveto
          -42 -419 -84 callsubr
          718 -82 callgsubr
          -28 112 -75 callgsubr
          2 1 4 34 callsubr
          43 rlineto
          2 2 1 3 2 vvcurveto
          2 -14 callgsubr
          vhcurveto
          -148 126 rlineto
          1 -2 -1 2 -4 hhcurveto
          -3 -2 -3 callsubr
          hvcurveto
          -148 -126 rlineto
          -3 -57 callgsubr
          -2 1 -3 1 27 callsubr
          -43 -100 callsubr
          109 77 rlineto
          endchar
        </CharString>
        <CharString name="hungarumlaut">
          221 703 -82 callsubr
          -2 -3 -1 -2 -2 vvcurveto
          -2 2 76 callgsubr
          35 -30 rlineto
          -2 3 13 callsubr
          282 132 -82 callsubr
          -1 -3 -1 -2 -39 callgsubr
          36 -30 rlineto
          -2 2 13 callsubr
          endchar
        </CharString>
        <CharString name="hyphen">
          1 callsubr
        </CharString>
        <CharString name="i">
          -106 -75 callsubr
          214 -27 callsubr
          18 277 -17 callsubr
          300 -637 -7 callgsubr
        </CharString>
        <CharString name="i.alt">
          -106 -22 callsubr
          76 4 50 29 hvcurveto
          164 vlineto
          31 5 50 -76 -9 callsubr
          -92 callgsubr
          -1 285 44 callsubr
          -469 -84 callsubr
          242 -82 callgsubr
          -96 422 rmoveto
          56 -17 41 -53 -63 vvcurveto
          -62 -40 -52 -55 -18 vhcurveto
          35 33 21 47 52 vvcurveto
          53 -23 47 -35 33 vhcurveto
          endchar
        </CharString>
        <CharString name="iacute">
          -90 callsubr
          5 -68 callsubr
        </CharString>
        <CharString name="ibreve">
          -90 callsubr
          -135 234 -99 callsubr
        </CharString>
        <CharString name="icircumflex">
          -90 callsubr
          -25 141 -75 callgsubr
          2 1 4 34 callsubr
          43 rlineto
          2 2 1 3 2 vvcurveto
          2 -14 callgsubr
          vhcurveto
          -148 126 rlineto
          1 -2 -1 2 -4 hhcurveto
          -3 -2 -3 callsubr
          hvcurveto
          -148 -126 rlineto
          -3 -57 callgsubr
          -2 1 -3 1 27 callsubr
          -43 -100 callsubr
          109 77 rlineto
          endchar
        </CharString>
        <CharString name="idieresis">
          -90 callsubr
          -294 221 -98 callsubr
        </CharString>
        <CharString name="igrave">
          -90 callsubr
          -89 141 -75 callgsubr
          3 1 4 2 hvcurveto
          33 48 rlineto
          2 2 1 3 9 callsubr
          -28 callsubr
          -173 131 rlineto
          2 -42 callgsubr
          -3 -3 hvcurveto
          -44 -63 54 callgsubr
          0 callsubr
          -3 2 -2 -8 callsubr
          endchar
        </CharString>
        <CharString name="ij">
          343 -75 callsubr
          214 -27 callsubr
          18 277 -17 callsubr
          300 -637 -84 callsubr
          418 -82 callgsubr
          -56 281 rmoveto
          45 -20 42 -30 30 vhcurveto
          52 -14 38 -47 -56 vvcurveto
          -56 -38 -48 -52 -13 vhcurveto
          30 30 20 42 45 vvcurveto
          206 hmoveto
          -54 callsubr
        </CharString>
        <CharString name="imacron">
          -90 callsubr
          -5 171 rmoveto
          -51 callsubr
          78 -23 callsubr
          -7 vhcurveto
          -260 hlineto
          -39 callsubr
          -78 -43 callgsubr
          6 vhcurveto
          endchar
        </CharString>
        <CharString name="iogonek">
          -106 -75 callsubr
          86 -8 callgsubr
          13 -27 callsubr
          18 277 -17 callsubr
          300 -637 -84 callsubr
          418 -82 callgsubr
          endchar
        </CharString>
        <CharString name="itilde">
          -90 callsubr
          -32 296 -99 callgsubr
        </CharString>
        <CharString name="j">
          -106 63 709 rmoveto
          -54 callsubr
        </CharString>
        <CharString name="j.alt">
          -106 -66 -174 rmoveto
          -24 37 64 -14 82 hhcurveto
          197 91 66 182 hvcurveto
          220 vlineto
          -5 callgsubr
          -76 5 -50 -31 hvcurveto
          -271 vlineto
          -93 -50 -15 -61 20 vhcurveto
          110 657 44 callsubr
          -506 rmoveto
          -96 -22 -48 -47 -29 vhcurveto
          29 51 2 30 92 vvcurveto
          248 -82 callgsubr
          -96 422 rmoveto
          56 -17 41 -53 -63 vvcurveto
          -62 -40 -52 -55 -18 vhcurveto
          35 33 21 47 52 vvcurveto
          53 -23 47 -35 33 vhcurveto
          endchar
        </CharString>
        <CharString name="jcircumflex">
          -106 -66 -164 71 callsubr
          76 callgsubr
          -20 38 56 -12 86 hhcurveto
          115 167 30 235 hvcurveto
          379 vlineto
          -5 callgsubr
          -67 -4 -38 -30 hvcurveto
          -480 vlineto
          -51 -20 -25 -41 vhcurveto
          -28 -7 6 -8 25 callgsubr
          429 189 rmoveto
          -92 -17 -54 -50 -42 vhcurveto
          28 58 1 53 60 vvcurveto
          415 -82 callgsubr
          -27 141 -75 callgsubr
          2 1 4 34 callsubr
          43 rlineto
          2 2 1 3 2 vvcurveto
          2 -14 callgsubr
          vhcurveto
          -148 126 rlineto
          1 -2 -1 2 -4 hhcurveto
          -3 -2 -3 callsubr
          hvcurveto
          -148 -126 rlineto
          -3 -57 callgsubr
          -2 1 -3 1 27 callsubr
          -43 -100 callsubr
          109 77 rlineto
          endchar
        </CharString>
        <CharString name="k">
          -65 callsubr
          353 vlineto
          45 -11 23 -61 callsubr
          endchar
        </CharString>
        <CharString name="kcommaaccent">
          -65 callsubr
          353 vlineto
          45 -11 23 -61 callsubr
          -128 -850 rmoveto
          -31 24 -26 29 -4 vhcurveto
          -24 -55 -25 callsubr
          66 callsubr
          5 vhcurveto
          32 hlineto
          10 1 4 9 4 hvcurveto
          35 82 rlineto
          4 9 4 13 11 vvcurveto
          34 -28 27 -34 -33 -29 -27 -34 vhcurveto
          endchar
        </CharString>
        <CharString name="kgreenlandic">
          -65 callsubr
          53 vlineto
          45 -11 23 -60 -87 callsubr
          endchar
        </CharString>
        <CharString name="l">
          -106 -70 callsubr
          endchar
        </CharString>
        <CharString name="lacute">
          -106 -70 callsubr
          1 227 -107 callgsubr
        </CharString>
        <CharString name="lcaron">
          31 -70 callsubr
          87 -72 rmoveto
          -67 callsubr
        </CharString>
        <CharString name="lcommaaccent">
          -106 -70 callsubr
          -200 -850 rmoveto
          -31 24 -26 29 -4 vhcurveto
          -24 -55 -25 callsubr
          66 callsubr
          5 vhcurveto
          32 hlineto
          10 1 4 9 4 hvcurveto
          35 82 rlineto
          4 9 4 13 11 vvcurveto
          34 -28 27 -34 -33 -29 -27 -34 vhcurveto
          endchar
        </CharString>
        <CharString name="ldotaccent">
          48 -70 callsubr
          86 -469 -68 callgsubr
        </CharString>
        <CharString name="less">
          -56 424 385 rmoveto
          3 2 27 callgsubr
          vvcurveto
          1 0 -28 callsubr
          -42 72 rlineto
          4 -2 -3 2 -3 hhcurveto
          -2 -1 0 -2 -2 hvcurveto
          -299 -183 rlineto
          -6 95 callsubr
          -7 vvcurveto
          -40 vlineto
          -6 2 -6 6 -4 vhcurveto
          299 -183 rlineto
          -2 2 1 0 49 callgsubr
          2 -3 2 vhcurveto
          -211 129 rlineto
          endchar
        </CharString>
        <CharString name="lessequal">
          -56 426 hmoveto
          18 callgsubr
          -352 hlineto
          -8 -3 -3 -6 callgsubr
          350 409 rmoveto
          39 callgsubr
          77 callsubr
          1 0 3 -2 2 vhcurveto
          -42 73 rlineto
          4 -2 -3 1 -3 -2 -1 -1 -2 hhcurveto
          -299 -154 rlineto
          -7 -4 -1 -6 -7 vvcurveto
          -40 vlineto
          -7 1 -6 7 -4 vhcurveto
          299 -153 rlineto
          -1 2 1 -1 49 callgsubr
          3 -3 1 vhcurveto
          -211 100 rlineto
          endchar
        </CharString>
        <CharString name="logicalnot">
          -56 427 371 rmoveto
          -35 callgsubr
          -343 hlineto
          -8 -3 -4 -6 hvcurveto
          -84 3 callsubr
          248 -129 hlineto
          -7 4 -3 7 vhcurveto
          83 hlineto
          8 3 4 6 hvcurveto
          endchar
        </CharString>
        <CharString name="lslash">
          -97 50 87 callgsubr
          59 13 22 45 hvcurveto
          323 vlineto
          67 31 82 callgsubr
          -3 2 -7 -3 rlinecurve
          -38 -18 rlineto
          265 vlineto
          46 -12 22 -59 -9 callsubr
          -92 callgsubr
          -430 vlineto
          -66 -30 -6 -3 -1 -4 2 -7 rlinecurve
          21 -45 3 -7 5 -1 6 3 rlinecurve
          36 17 rlineto
          318 -153 25 callsubr
        </CharString>
        <CharString name="m">
          210 -75 callsubr
          210 hlineto
          62 13 -86 callgsubr
          14 -1 14 -2 12 vhcurveto
          9 8 21 13 -74 callsubr
          83 -37 44 -62 -34 -37 -15 -15 -17 vhcurveto
          20 -16 -25 10 -29 hhcurveto
          -35 -33 96 callsubr
          hvcurveto
          15 -9 -21 -63 callsubr
          endchar
        </CharString>
        <CharString name="macron">
          330 599 rmoveto
          -51 callsubr
          78 -23 callsubr
          -7 vhcurveto
          -260 hlineto
          -39 callsubr
          -78 -43 callgsubr
          6 vhcurveto
          endchar
        </CharString>
        <CharString name="micro">
          -55 callgsubr
        </CharString>
        <CharString name="minus">
          14 callsubr
          endchar
        </CharString>
        <CharString name="mu">
          -55 callgsubr
        </CharString>
        <CharString name="multiply">
          -56 148 431 rmoveto
          2 -2 53 callsubr
          hhcurveto
          -2 -3 -1 -2 -2 hvcurveto
          -59 -59 54 callgsubr
          -1 -2 -3 vvcurveto
          -2 1 76 callgsubr
          101 -102 -101 -101 54 callgsubr
          -1 -2 -3 vvcurveto
          -2 1 91 callgsubr
          59 -59 rlineto
          -2 2 3 -2 2 hhcurveto
          39 callgsubr
          2 2 hvcurveto
          102 102 102 -102 rlineto
          -2 2 7 callgsubr
          hhcurveto
          2 39 callgsubr
          2 hvcurveto
          59 59 rlineto
          3 3 1 2 97 callsubr
          -101 101 101 102 rlineto
          3 2 1 3 97 callsubr
          -59 59 70 callsubr
          -3 2 -2 hhcurveto
          -13 callsubr
          -2 -2 hvcurveto
          -102 -102 rlineto
          endchar
        </CharString>
        <CharString name="n">
          -91 callsubr
          endchar
        </CharString>
        <CharString name="nacute">
          -91 callsubr
          86 -68 callsubr
        </CharString>
        <CharString name="napostrophe">
          135 128 -96 callsubr
          -446 212 rmoveto
          -31 24 -26 29 -4 vhcurveto
          -24 -55 -25 callsubr
          66 callsubr
          5 vhcurveto
          32 hlineto
          10 1 4 9 4 hvcurveto
          35 82 rlineto
          4 9 4 13 11 vvcurveto
          34 -28 27 -34 -33 -29 -27 -34 vhcurveto
          endchar
        </CharString>
        <CharString name="nbspace">
          -256 endchar
        </CharString>
        <CharString name="ncaron">
          -91 callsubr
          -54 249 -107 callsubr
        </CharString>
        <CharString name="ncommaaccent">
          -91 callsubr
          -106 -550 rmoveto
          -31 24 -26 29 -4 vhcurveto
          -24 -55 -25 callsubr
          66 callsubr
          5 vhcurveto
          32 hlineto
          10 1 4 9 4 hvcurveto
          35 82 rlineto
          4 9 4 13 11 vvcurveto
          34 -28 27 -34 -33 -29 -27 -34 vhcurveto
          endchar
        </CharString>
        <CharString name="nine">
          30 30 264 rmoveto
          -141 110 -112 159 21 17 2 6 19 vhcurveto
          -68 -82 -77 -43 -46 -23 rrcurveto
          -3 -2 -4 -2 -5 vvcurveto
          -2 1 -2 1 27 callsubr
          -48 rlineto
          -7 5 2 -2 5 hhcurveto
          3 3 2 1 3 hvcurveto
          184 94 158 168 200 vvcurveto
          154 -117 99 -146 -146 -117 -113 -140 vhcurveto
          375 44 callgsubr
          -42 -23 rmoveto
          -62 -59 56 102 102 59 55 62 hvcurveto
          -43 -5 -38 -55 -97 vvcurveto
          -97 38 -55 43 -6 vhcurveto
          endchar
        </CharString>
        <CharString name="notequal">
          -56 353 489 rmoveto
          1 4 0 77 callsubr
          8 -5 5 -11 3 vhcurveto
          -30 8 rlineto
          1 -4 -3 1 -4 hhcurveto
          -8 -6 -3 -16 -4 hvcurveto
          -28 -101 rlineto
          -168 hlineto
          -39 callsubr
          -83 -43 callgsubr
          6 vhcurveto
          140 hlineto
          -24 -91 rlineto
          -116 hlineto
          -39 callsubr
          -84 -43 callgsubr
          6 vhcurveto
          87 hlineto
          -23 -86 55 callgsubr
          53 callgsubr
          hhcurveto
          10 6 11 6 2 hvcurveto
          28 105 rlineto
          168 hlineto
          -51 callsubr
          84 -23 callsubr
          -7 vhcurveto
          -140 hlineto
          25 91 rlineto
          115 hlineto
          -51 callsubr
          83 -23 callsubr
          -7 vhcurveto
          -87 hlineto
          endchar
        </CharString>
        <CharString name="ntilde">
          -91 callsubr
          44 296 -99 callgsubr
        </CharString>
        <CharString name="numbersign">
          -91 386 236 rmoveto
          -51 callsubr
          69 -23 callsubr
          -7 vhcurveto
          -50 hlineto
          19 110 rlineto
          60 hlineto
          -51 callsubr
          69 -40 callgsubr
          -45 hlineto
          26 152 rlineto
          1 5 0 2 48 callsubr
          -111 hlineto
          26 152 rlineto
          1 6 0 1 48 callsubr
          -61 hlineto
          -8 -4 -4 -6 hvcurveto
          -69 3 callsubr
          47 hlineto
          -19 -110 rlineto
          -56 hlineto
          -8 -24 callsubr
          -69 vlineto
          -8 3 -3 7 vhcurveto
          42 28 callsubr
          111 28 callsubr
          -136 200 rmoveto
          111 hlineto
          -19 -110 rlineto
          -110 hlineto
          endchar
        </CharString>
        <CharString name="o">
          -103 callsubr
          endchar
        </CharString>
        <CharString name="oacute">
          -103 callsubr
          13 603 -107 callgsubr
        </CharString>
        <CharString name="obreve">
          -103 callsubr
          -112 581 -99 callsubr
        </CharString>
        <CharString name="ocircumflex">
          -103 callsubr
          -4 488 -75 callgsubr
          2 1 4 34 callsubr
          43 rlineto
          2 2 1 3 2 vvcurveto
          2 -14 callgsubr
          vhcurveto
          -148 126 rlineto
          1 -2 -1 2 -4 hhcurveto
          -3 -2 -3 callsubr
          hvcurveto
          -148 -126 rlineto
          -3 -57 callgsubr
          -2 1 -3 1 27 callsubr
          -43 -100 callsubr
          109 77 rlineto
          endchar
        </CharString>
        <CharString name="odieresis">
          -103 callsubr
          -273 568 -98 callsubr
        </CharString>
        <CharString name="oe">
          356 663 266 -49 callsubr
          69 -19 rmoveto
          219 -150 51 -89 -70 -41 -17 -17 -35 vhcurveto
          20 -46 -51 14 -77 hhcurveto
          -73 callgsubr
          73 60 13 21 41 hvcurveto
          -14 24 48 -20 67 hhcurveto
          90 78 38 35 41 87 callsubr
          -1 3 vhcurveto
          -18 29 rlineto
          4 -3 103 callgsubr
          -6 -23 -25 -39 hhcurveto
          -15 callgsubr
          221 hlineto
          -409 -106 -95 callsubr
          endchar
        </CharString>
        <CharString name="ogonek">
          191 hmoveto
          -74 -35 -49 -55 -50 16 callsubr
          28 42 84 57 68 29 hvcurveto
          endchar
        </CharString>
        <CharString name="ograve">
          -103 callsubr
          -34 488 -75 callgsubr
          3 1 4 2 hvcurveto
          33 48 rlineto
          2 2 1 3 9 callsubr
          -28 callsubr
          -173 131 rlineto
          2 -42 callgsubr
          -3 -3 hvcurveto
          -44 -63 54 callgsubr
          0 callsubr
          -3 2 -2 -8 callsubr
          endchar
        </CharString>
        <CharString name="ohungarumlaut">
          -103 callsubr
          -81 622 -82 callsubr
          -2 -3 -1 -2 -2 vvcurveto
          -2 2 76 callgsubr
          35 -30 rlineto
          -2 3 13 callsubr
          282 132 -82 callsubr
          -1 -3 -1 -2 -39 callgsubr
          36 -30 rlineto
          -2 2 13 callsubr
          endchar
        </CharString>
        <CharString name="omacron">
          -103 callsubr
          18 518 rmoveto
          -51 callsubr
          78 -23 callsubr
          -7 vhcurveto
          -260 hlineto
          -39 callsubr
          -78 -43 callgsubr
          6 vhcurveto
          endchar
        </CharString>
        <CharString name="one">
          -63 98 413 rmoveto
          -345 vlineto
          -11 callsubr
          56 vhcurveto
          202 hlineto
          76 -3 38 29 hvcurveto
          369 vlineto
          28 3 53 -58 -4 -18 -2 -1 -11 vhcurveto
          -333 -49 rlineto
          -20 -3 -1 -6 -11 vvcurveto
          -1 1 -8 0 vhcurveto
          4 -34 rlineto
          -9 1 8 -4 9 hhcurveto
          4 4 1 1 2 hvcurveto
          367 -319 rmoveto
          -4 callgsubr
          433 vlineto
          1 9 7 2 5 64 callgsubr
          endchar
        </CharString>
        <CharString name="onehalf">
          279 -47 callsubr
          -4 -6 8 callgsubr
          776 -611 rmoveto
          16 2 9 6 hvcurveto
          34 vlineto
          12 -5 4 -15 -12 -84 -3 -3 -72 vhcurveto
          114 65 46 65 66 vvcurveto
          64 -38 72 -128 -66 -65 -19 -30 -36 vhcurveto
          -1 -1 -2 -2 -2 -2 1 0 -2 vvcurveto
          17 -27 rlineto
          -1 1 60 callsubr
          4 11 10 13 hhcurveto
          26 18 -17 -67 -60 -32 -83 -42 -58 hvcurveto
          -5 -7 -4 -6 -5 vvcurveto
          -8 4 -2 9 vhcurveto
          -230 395 rmoveto
          -29 -4 -2 -31 vhcurveto
          300 vlineto
          1 9 4 1 5 64 callgsubr
          398 -529 rmoveto
          53 49 14 45 47 vvcurveto
          37 -13 39 -34 26 vhcurveto
          63 -16 21 -39 -47 vvcurveto
          -55 -27 -36 -77 -50 vhcurveto
          endchar
        </CharString>
        <CharString name="onequarter">
          248 -47 callsubr
          -5 -5 8 callgsubr
          711 -456 10 callsubr
          -41 -9 -17 callgsubr
          -531 240 rmoveto
          -29 -4 -2 -31 vhcurveto
          300 vlineto
          1 9 4 1 5 64 callgsubr
          317 -488 rmoveto
          50 callgsubr
          endchar
        </CharString>
        <CharString name="onesuperior">
          -201 66 625 rmoveto
          -308 vlineto
          -26 8 -14 38 vhcurveto
          145 hlineto
          51 -2 23 17 hvcurveto
          341 vlineto
          24 2 24 -39 -3 -12 -1 -1 -7 vhcurveto
          -233 -29 rlineto
          -13 -2 -1 -4 -6 8 callgsubr
          245 -265 rmoveto
          -29 -4 -2 -32 vhcurveto
          349 vlineto
          1 9 4 1 6 64 callgsubr
          endchar
        </CharString>
        <CharString name="ordfeminine">
          -76 384 336 rmoveto
          47 9 17 33 hvcurveto
          163 vlineto
          149 -98 17 -110 -77 -70 -27 -22 -32 vhcurveto
          -3 -2 -4 -3 -4 vvcurveto
          -1 0 -18 callsubr
          vhcurveto
          12 -24 rlineto
          -3 2 60 callsubr
          hhcurveto
          39 callgsubr
          2 3 hvcurveto
          8 13 25 13 20 hhcurveto
          16 22 -4 -39 hvcurveto
          -21 vlineto
          -75 -6 -70 -35 -85 vvcurveto
          -94 84 -28 79 vhcurveto
          -18 197 rmoveto
          -145 vlineto
          -70 -18 32 38 38 18 37 70 hvcurveto
          201 22 rmoveto
          66 -22 35 -12 12 vhcurveto
          25 -8 43 -27 -79 vvcurveto
          -160 vlineto
          -22 -10 -1 -24 vhcurveto
          endchar
        </CharString>
        <CharString name="ordmasculine">
          -56 250 314 rmoveto
          103 123 33 171 165 -125 32 -101 -110 -116 -50 -150 -152 116 -49 110 hvcurveto
          110 93 rmoveto
          -32 -27 13 95 93 36 14 23 30 29 -21 -83 -89 -28 -22 -31 hvcurveto
          -29 -19 rmoveto
          -48 -52 26 101 101 61 26 39 hvcurveto
          -24 -7 -41 -22 -98 vvcurveto
          -99 32 -22 33 -6 vhcurveto
          endchar
        </CharString>
        <CharString name="oslash">
          -69 callsubr
          endchar
        </CharString>
        <CharString name="oslashacute">
          -69 callsubr
          27 603 -107 callgsubr
        </CharString>
        <CharString name="otilde">
          -103 callsubr
          -9 643 -99 callgsubr
        </CharString>
        <CharString name="p">
          88 325 511 rmoveto
          -178 -102 -91 -162 hvcurveto
          -391 vlineto
          36 callgsubr
          199 -148 59 -145 vhcurveto
          224 -258 rmoveto
          -100 -43 -78 -101 -13 vhcurveto
          379 vlineto
          101 -12 43 -75 -101 vvcurveto
          -186 -382 -84 callsubr
          1 609 rlineto
          7 21 0 -2 10 hvcurveto
          endchar
        </CharString>
        <CharString name="paragraph">
          17 363 678 52 callgsubr
          -31 hlineto
          -124 -143 -50 -158 -180 119 -46 124 -9 hvcurveto
          -365 4 callsubr
          31 -1 callgsubr
          110 785 52 callgsubr
          -31 51 callsubr
          -785 4 callsubr
          31 -1 callgsubr
          -185 431 rmoveto
          -123 -51 72 90 88 51 59 123 hvcurveto
          endchar
        </CharString>
        <CharString name="parenleft">
          -135 50 300 rmoveto
          -281 149 -151 110 -62 vhcurveto
          -3 5 7 -3 6 hhcurveto
          7 7 4 13 hvcurveto
          965 vlineto
          14 -7 4 -7 -6 -7 -3 -3 -5 vhcurveto
          -110 -63 -149 -150 -281 vvcurveto
          211 418 rmoveto
          15 11 1 2 22 15 rrcurveto
          -890 vlineto
          -7 5 -19 14 -12 9 rrcurveto
          endchar
        </CharString>
        <CharString name="parenright">
          -135 371 300 rmoveto
          281 -149 150 -110 63 vhcurveto
          3 -5 -7 85 callgsubr
          -8 -6 -4 -14 hvcurveto
          -965 vlineto
          -13 6 -4 8 6 7 3 3 5 vhcurveto
          110 62 149 151 281 vvcurveto
          -217 412 rmoveto
          90 -74 86 -124 -214 vvcurveto
          -214 -87 -129 -89 -75 vhcurveto
          64 94 71 142 182 vvcurveto
          181 -71 138 -64 93 vhcurveto
          endchar
        </CharString>
        <CharString name="partialdiff">
          14 188 756 rmoveto
          1 -1 -3 1 -4 hhcurveto
          -3 95 callsubr
          -4 hvcurveto
          -31 -47 rlineto
          -3 -4 0 callsubr
          -5 5 -2 3 -1 vhcurveto
          51 -30 99 -65 69 -108 rrcurveto
          13 -32 -33 4 -32 hhcurveto
          -111 -116 -80 -179 -180 129 -78 123 111 134 58 204 238 -162 185 -184 88 hvcurveto
          152 -656 rmoveto
          -53 -48 39 102 103 48 39 53 53 47 -35 -103 -102 -47 -43 -53 hvcurveto
          -42 -20 rmoveto
          -77 -59 58 102 103 59 58 77 hvcurveto
          -61 -10 -39 -47 -104 vvcurveto
          -102 52 -49 48 -9 vhcurveto
          endchar
        </CharString>
        <CharString name="percent">
          198 -71 callgsubr
          endchar
        </CharString>
        <CharString name="period">
          -230 50 103 -54 callgsubr
          endchar
        </CharString>
        <CharString name="periodcentered">
          -230 50 272 -54 callgsubr
          endchar
        </CharString>
        <CharString name="perthousand">
          568 -71 callgsubr
          180 98 -35 callsubr
          -38 -15 -2 callgsubr
          endchar
        </CharString>
        <CharString name="plus">
          -56 302 432 rmoveto
          73 callsubr
          -124 -124 vlineto
          -8 -3 -4 -6 callgsubr
          124 -124 69 callsubr
          124 124 vlineto
          39 callsubr
          -124 hlineto
          endchar
        </CharString>
        <CharString name="plusminus">
          -56 426 252 rmoveto
          18 callgsubr
          -124 100 hlineto
          73 callsubr
          -100 -124 vlineto
          -8 -3 -3 -6 callgsubr
          124 -100 69 callsubr
          100 vlineto
          124 -252 rmoveto
          18 callgsubr
          -352 hlineto
          -8 -3 -3 -6 callgsubr
          endchar
        </CharString>
        <CharString name="q">
          88 599 432 rmoveto
          11 callsubr
          -209 hlineto
          -144 -145 -60 -192 -161 99 -66 114 -21 hvcurveto
          -133 vlineto
          -47 16 -21 55 vhcurveto
          214 hlineto
          62 13 42 callsubr
          -504 381 rmoveto
          97 43 73 101 12 84 callgsubr
          13 -43 75 98 vvcurveto
          463 -377 -84 callsubr
          619 -82 callgsubr
          endchar
        </CharString>
        <CharString name="question">
          -30 486 543 rmoveto
          84 -62 95 -178 -88 -73 -19 -32 -46 vhcurveto
          -2 -1 -4 -3 -3 vvcurveto
          -2 0 -18 callsubr
          vhcurveto
          19 -31 rlineto
          -3 3 -45 callgsubr
          2 3 1 1 3 hvcurveto
          7 14 26 11 27 hhcurveto
          60 34 -36 -62 -41 -19 -69 -68 -32 hvcurveto
          -1 94 callsubr
          -5 vvcurveto
          -116 vlineto
          -22 12 -1 9 vhcurveto
          44 -1 callgsubr
          60 vlineto
          240 20 23 106 77 vvcurveto
          -418 -440 -54 callgsubr
          139 217 rmoveto
          67 43 9 61 48 vvcurveto
          50 -22 54 -54 36 vhcurveto
          83 -26 33 -53 -61 vvcurveto
          -57 -13 -60 -103 -35 vhcurveto
          endchar
        </CharString>
        <CharString name="questiondown">
          -30 40 165 rmoveto
          -84 62 -96 178 88 73 20 31 46 vhcurveto
          27 callgsubr
          2 4 vvcurveto
          1 0 -28 callsubr
          -19 30 rlineto
          4 -42 callgsubr
          -1 -3 hvcurveto
          -7 -14 -26 -11 -27 hhcurveto
          -60 -34 37 62 41 19 68 68 33 hvcurveto
          1 1 4 0 6 vvcurveto
          116 vlineto
          22 -12 1 -9 vhcurveto
          -44 hlineto
          -17 -3 -13 -10 hvcurveto
          -60 vlineto
          -240 -20 -23 -107 -76 vvcurveto
          192 439 rmoveto
          -62 51 -50 62 62 51 50 62 63 -51 50 -62 -62 -51 -50 -63 vhcurveto
          122 72 rmoveto
          35 -4 28 -31 -37 vvcurveto
          -36 -28 -31 -35 -4 vhcurveto
          15 20 10 25 19 callgsubr
          -15 20 vhcurveto
          -56 -611 rmoveto
          -53 4 -31 35 59 vvcurveto
          46 29 72 98 33 vhcurveto
          -65 -39 -22 -71 -41 vvcurveto
          -42 16 -35 28 -21 vhcurveto
          endchar
        </CharString>
        <CharString name="quotedbl">
          -210 145 678 -19 callgsubr
          141 235 -19 callgsubr
          endchar
        </CharString>
        <CharString name="quotedblbase">
          -107 413 115 -38 callsubr
          6 -4 7 17 callgsubr
          -31 300 -27 callgsubr
        </CharString>
        <CharString name="quotedblleft">
          -107 144 691 101 callgsubr
          -7 hhcurveto
          -4 -4 -1 -3 73 callgsubr
          2 -5 4 74 callsubr
          -9 7 4 -3 72 callgsubr
          4 2 6 5 37 callsubr
          -3 5 vhcurveto
          31 300 101 callgsubr
          -7 hhcurveto
          -4 71 callgsubr
          73 callgsubr
          1 -5 5 74 callsubr
          -8 6 5 -4 72 callgsubr
          5 2 5 5 37 callsubr
          -3 5 vhcurveto
          endchar
        </CharString>
        <CharString name="quotedblright">
          -107 186 488 75 callgsubr
          -5 4 -6 6 -4 35 callgsubr
          5 vvcurveto
          8 -6 4 -7 5 88 callgsubr
          -8 -6 -6 -6 -4 hvcurveto
          -268 -106 75 callgsubr
          -5 4 -5 6 -5 vhcurveto
          49 -32 rlineto
          -3 5 6 -4 76 callsubr
          4 8 6 hvcurveto
          140 189 rlineto
          5 6 1 5 5 vvcurveto
          8 -6 5 -7 4 vhcurveto
          -70 46 rlineto
          2 -4 -4 2 -4 hhcurveto
          -8 -6 -5 -7 -4 hvcurveto
          endchar
        </CharString>
        <CharString name="quoteleft">
          -257 144 706 101 callgsubr
          -8 hhcurveto
          -3 -4 -1 -3 -4 hvcurveto
          -70 -46 rlineto
          -7 -4 -6 -5 -9 vvcurveto
          -4 1 -5 5 74 callsubr
          -9 6 5 -3 5 hhcurveto
          6 6 3 4 5 hvcurveto
          49 32 rlineto
          7 5 3 4 6 vvcurveto
          5 -3 6 -3 4 vhcurveto
          endchar
        </CharString>
        <CharString name="quoteright">
          -257 36 503 75 callgsubr
          -6 3 -4 7 -5 35 callgsubr
          4 vvcurveto
          9 -6 5 -7 4 88 callgsubr
          -7 -7 -6 -6 -4 hvcurveto
          endchar
        </CharString>
        <CharString name="quotesinglbase">
          -257 263 115 -27 callgsubr
        </CharString>
        <CharString name="quotesingle">
          -351 145 678 -19 callgsubr
          endchar
        </CharString>
        <CharString name="r">
          -81 callsubr
          endchar
        </CharString>
        <CharString name="racute">
          -81 callsubr
          3 -68 callsubr
        </CharString>
        <CharString name="rcaron">
          -81 callsubr
          -137 249 -107 callsubr
        </CharString>
        <CharString name="rcommaaccent">
          -81 callsubr
          -198 -550 rmoveto
          -31 24 -26 29 -4 vhcurveto
          -24 -55 -25 callsubr
          66 callsubr
          5 vhcurveto
          32 hlineto
          10 1 4 9 4 hvcurveto
          35 82 rlineto
          4 9 4 13 11 vvcurveto
          34 -28 27 -34 -33 -29 -27 -34 vhcurveto
          endchar
        </CharString>
        <CharString name="registered">
          66 50 464 rmoveto
          -144 117 -117 144 144 117 117 144 144 -117 117 -144 -144 -117 -117 -144 vhcurveto
          62 hmoveto
          110 89 89 110 110 89 -89 -110 -110 -89 -89 -110 -110 -89 89 110 vhcurveto
          103 -101 rmoveto
          -17 5 -9 23 vhcurveto
          65 hlineto
          20 5 9 16 hvcurveto
          41 vlineto
          12 1 12 3 11 4 31 -70 rcurveline
          3 -8 7 0 4 2 22 10 rcurveline
          4 3 2 5 -4 7 -40 66 rcurveline
          20 16 13 24 36 vvcurveto
          77 -56 24 -55 vhcurveto
          -76 hlineto
          -23 -5 -9 -17 hvcurveto
          118 -10 rmoveto
          43 18 -30 -35 -33 -18 -30 -43 hvcurveto
          -22 -70 rmoveto
          -11 -7 -1 -12 vhcurveto
          210 vlineto
          3 11 0 5 hhcurveto
          endchar
        </CharString>
        <CharString name="ring">
          75 686 -49 callgsubr
        </CharString>
        <CharString name="s">
          -94 callsubr
          endchar
        </CharString>
        <CharString name="sacute">
          -94 callsubr
          233 656 -107 callgsubr
        </CharString>
        <CharString name="scaron">
          -94 callsubr
          93 649 -107 callsubr
        </CharString>
        <CharString name="scedilla">
          -64 callgsubr
          28 -9 83 -25 92 -5 rrcurveto
          -6 -33 -8 -35 57 callsubr
          -21 16 -16 2 callgsubr
          31 93 52 callsubr
          6 26 133 11 65 61 9 73 rlinecurve
          -87 callgsubr
          endchar
        </CharString>
        <CharString name="scircumflex">
          -94 callsubr
          203 541 -75 callgsubr
          2 1 4 34 callsubr
          43 rlineto
          2 2 1 3 2 vvcurveto
          2 -14 callgsubr
          vhcurveto
          -148 126 rlineto
          1 -2 -1 2 -4 hhcurveto
          -3 -2 -3 callsubr
          hvcurveto
          -148 -126 rlineto
          -3 -57 callgsubr
          -2 1 -3 1 27 callsubr
          -43 -100 callsubr
          109 77 rlineto
          endchar
        </CharString>
        <CharString name="section">
          -111 404 342 rmoveto
          153 -176 13 73 vvcurveto
          27 18 19 38 vhcurveto
          23 15 -10 5 103 callsubr
          6 5 2 hvcurveto
          11 31 5 12 -9 3 -5 2 rlinecurve
          11 -28 -42 14 -51 hhcurveto
          -100 -56 -55 -78 -45 18 -34 24 -29 hvcurveto
          -40 -28 -21 -42 -49 -161 180 -20 -73 vvcurveto
          -36 -32 -12 -30 vhcurveto
          -31 -28 18 -7 hhcurveto
          -5 -1 -2 -9 -3 hvcurveto
          -12 -33 -4 -12 6 -2 4 -1 rlinecurve
          -14 27 47 -17 70 hhcurveto
          100 66 65 77 55 -24 32 -25 26 hvcurveto
          41 28 23 42 50 vvcurveto
          -127 -75 rmoveto
          -63 42 -61 26 51 vvcurveto
          10 5 13 12 7 vhcurveto
          70 -51 49 -22 -40 vvcurveto
          -11 -1 -16 -11 -9 vhcurveto
          47 -17 rmoveto
          13 27 3 32 24 126 -176 1 114 vvcurveto
          27 18 42 68 1 vhcurveto
          -38 -13 -18 -20 -37 -86 176 -14 43 callgsubr
          -36 -14 -29 -32 -27 vhcurveto
          1 -143 rmoveto
          112 -236 31 118 vvcurveto
          14 10 38 47 11 vhcurveto
          -22 -17 -5 -18 -16 -110 236 -26 -135 vvcurveto
          -53 -32 -35 -52 -18 vhcurveto
          36 27 18 35 42 vvcurveto
          endchar
        </CharString>
        <CharString name="semicolon">
          -200 65 397 -65 callgsubr
          -123 -365 rmoveto
          -57 43 -46 54 -8 vhcurveto
          -45 -101 rlineto
          -3 89 callsubr
          60 hlineto
          18 2 7 17 7 hvcurveto
          63 150 rlineto
          8 18 7 22 20 vvcurveto
          62 -51 10 callgsubr
          endchar
        </CharString>
        <CharString name="seven">
          -53 287 -136 rmoveto
          29 21 16 37 10 hvcurveto
          134 516 rlineto
          3 11 2 12 7 vvcurveto
          22 -11 15 -29 vhcurveto
          -419 hlineto
          -22 -5 -12 -12 hvcurveto
          -32 vlineto
          -13 -2 -17 30 vhcurveto
          151 7 -128 -496 rlineto
          -1 -6 -1 -6 -6 vvcurveto
          -26 17 -17 26 vhcurveto
          214 61 rmoveto
          -11 -3 -10 -9 -12 hhcurveto
          -19 hlineto
          144 554 rlineto
          20 hlineto
          11 3 -5 -7 -5 -1 -4 80 callgsubr
          endchar
        </CharString>
        <CharString name="six">
          30 556 234 rmoveto
          140 -110 113 -159 -26 -17 -3 -6 -19 vhcurveto
          65 79 78 52 47 25 rrcurveto
          5 3 7 3 7 -57 callsubr
          4 vhcurveto
          -28 46 rlineto
          6 -4 -4 3 -5 hhcurveto
          -4 -4 -3 -1 -3 hvcurveto
          -183 -94 -159 -171 -198 vvcurveto
          -154 117 -109 146 152 111 105 148 vhcurveto
          -151 140 rmoveto
          43 39 -38 -97 -97 -39 -35 -43 -43 -39 35 97 97 39 38 43 hvcurveto
          -42 -287 rmoveto
          -62 -59 50 102 102 59 53 62 hvcurveto
          -43 -5 -38 -53 -97 vvcurveto
          -97 38 -50 43 -5 vhcurveto
          endchar
        </CharString>
        <CharString name="slash">
          -242 289 688 rmoveto
          1 4 0 77 callsubr
          9 -5 3 -11 4 vhcurveto
          -30 8 rlineto
          2 -4 -4 0 -3 hhcurveto
          -8 -6 -2 -16 -5 hvcurveto
          -188 -689 55 callgsubr
          3 2 0 3 hhcurveto
          10 5 11 7 2 hvcurveto
          endchar
        </CharString>
        <CharString name="space">
          -256 endchar
        </CharString>
        <CharString name="sterling">
          54 71 223 rmoveto
          -160 vlineto
          -42 1 rlineto
          -11 -8 -2 -14 hvcurveto
          -28 vlineto
          -17 5 -3 15 vhcurveto
          548 hlineto
          22 0 28 callgsubr
          34 vlineto
          13 -9 81 callsubr
          -74 -5 -6 -71 vhcurveto
          160 105 vlineto
          17 callsubr
          -105 200 hlineto
          97 41 26 46 14 15 -2 -4 14 vhcurveto
          4 -1 7 -2 9 vvcurveto
          38 vlineto
          11 -5 2 -3 2 vhcurveto
          22 -40 -78 20 -75 hhcurveto
          -124 -159 -64 -237 hvcurveto
          -117 -34 callsubr
          304 254 rmoveto
          114 70 37 47 -1 vhcurveto
          -35 -12 -43 -24 -114 vvcurveto
          -420 vlineto
          -13 -3 -16 -3 -10 -3 rrcurveto
          endchar
        </CharString>
        <CharString name="t">
          -7 -79 callsubr
          endchar
        </CharString>
        <CharString name="tbar">
          -7 61 340 rmoveto
          -68 -51 vlineto
          -39 callsubr
          -40 -43 callgsubr
          6 vhcurveto
          51 -64 hlineto
          -46 callsubr
          68 61 vlineto
          -51 callsubr
          40 -23 callsubr
          -7 vhcurveto
          -61 68 88 hlineto
          -63 callgsubr
          endchar
        </CharString>
        <CharString name="tcaron">
          42 -79 callsubr
          82 76 rmoveto
          -67 callsubr
        </CharString>
        <CharString name="tcommaaccent">
          -7 -79 callsubr
          -167 -702 rmoveto
          -31 24 -26 29 -4 vhcurveto
          -24 -55 -25 callsubr
          66 callsubr
          5 vhcurveto
          32 hlineto
          10 1 4 9 4 hvcurveto
          35 82 rlineto
          4 9 4 13 11 vvcurveto
          34 -28 27 -34 -33 -29 -27 -34 vhcurveto
          endchar
        </CharString>
        <CharString name="thorn">
          88 45 -133 rmoveto
          36 callgsubr
          162 -98 69 -115 20 vhcurveto
          225 vlineto
          47 -18 24 -52 vhcurveto
          -215 -92 callgsubr
          504 -479 rmoveto
          -100 -43 -78 -101 -13 vhcurveto
          379 vlineto
          101 -12 43 -75 -101 vvcurveto
          -186 -382 -84 callsubr
          919 -82 callgsubr
          endchar
        </CharString>
        <CharString name="three">
          -77 107 137 rmoveto
          -2 2 3 -1 2 8 9 10 15 hhcurveto
          39 17 -42 -80 -88 -41 -54 -59 hvcurveto
          -35 -30 15 -4 hhcurveto
          -3 -3 0 -6 -2 hvcurveto
          -12 -38 43 callsubr
          0 -1 -1 vvcurveto
          -5 3 -3 4 -1 vhcurveto
          -22 55 65 -11 53 hhcurveto
          156 121 90 131 136 -103 70 -124 1 hvcurveto
          193 205 rlineto
          9 10 5 11 12 vvcurveto
          15 -11 14 -23 vhcurveto
          -347 hlineto
          -22 -10 -12 -12 hvcurveto
          -121 vlineto
          -13 2 -17 31 vhcurveto
          163 hlineto
          -141 -157 rlineto
          -2 -3 callsubr
          -3 vvcurveto
          -2 -44 callsubr
          219 35 rmoveto
          70 -22 48 -48 -93 vvcurveto
          -86 -53 -56 -80 -28 vhcurveto
          59 40 34 59 71 vvcurveto
          74 -31 55 -47 34 vhcurveto
          endchar
        </CharString>
        <CharString name="threequarters">
          253 622 -53 callsubr
          -121 498 rmoveto
          -3 2 4 2 2 hhcurveto
          2 5 10 2 7 hhcurveto
          26 11 -19 -44 -47 -24 -13 -39 hvcurveto
          -22 -23 7 82 callsubr
          -4 7 callgsubr
          -1 rlinecurve
          -11 36 49 -6 34 hhcurveto
          103 89 48 70 73 -62 37 -82 1 hvcurveto
          122 114 rlineto
          13 14 -2 20 -26 hhcurveto
          -242 hlineto
          -15 -6 -6 -7 hvcurveto
          -79 vlineto
          -7 1 -8 20 vhcurveto
          86 hlineto
          -71 -66 -2 -3 1 22 callgsubr
          rlinecurve
          671 -366 10 callsubr
          -42 -8 -17 callgsubr
          -214 hmoveto
          50 callgsubr
          -405 207 rmoveto
          52 -6 32 -21 -53 vvcurveto
          -46 -39 -28 -55 -12 vhcurveto
          32 19 25 33 32 vvcurveto
          33 -19 30 -28 19 vhcurveto
          endchar
        </CharString>
        <CharString name="threesuperior">
          -215 74 471 rmoveto
          -3 4 39 callgsubr
          hhcurveto
          3 4 11 2 7 hhcurveto
          26 11 -22 -50 -55 -24 -20 -40 hvcurveto
          -22 -24 8 82 callsubr
          -5 -37 callsubr
          -2 rlinecurve
          -13 37 49 -6 35 hhcurveto
          105 91 55 80 84 -69 42 -83 1 hvcurveto
          129 131 rlineto
          15 15 -2 23 -27 hhcurveto
          -247 hlineto
          -14 -7 -7 -7 hvcurveto
          -86 vlineto
          -8 1 -10 21 vhcurveto
          93 hlineto
          -82 -81 -3 -2 0 -4 3 -2 rlinecurve
          122 -191 rmoveto
          48 22 26 42 38 vvcurveto
          42 -23 35 -34 21 vhcurveto
          56 -11 38 -30 -57 vvcurveto
          -53 -46 -34 -65 -15 vhcurveto
          endchar
        </CharString>
        <CharString name="tilde">
          303 724 -99 callgsubr
        </CharString>
        <CharString name="trademark">
          209 83 643 rmoveto
          -242 vlineto
          -21 5 -11 29 vhcurveto
          103 hlineto
          29 6 11 21 hvcurveto
          242 vlineto
          0 53 -11 10 5 4 1 6 vhcurveto
          50 vlineto
          6 -5 6 -10 vhcurveto
          -287 hlineto
          -10 -5 -6 -6 hvcurveto
          -50 vlineto
          -6 4 -1 5 10 54 11 0 vhcurveto
          489 -242 rmoveto
          -21 7 -11 25 vhcurveto
          107 hlineto
          28 5 13 19 hvcurveto
          271 vlineto
          16 -10 13 -23 vhcurveto
          -66 hlineto
          -30 -6 -13 -19 -10 hvcurveto
          -39 -76 -60 95 rlineto
          9 -6 -9 4 -11 hhcurveto
          -95 hlineto
          -19 -7 -13 -12 hvcurveto
          -294 vlineto
          -10 6 -3 5 vhcurveto
          46 hlineto
          11 2 6 9 -1 hvcurveto
          -1 19 -4 120 0 vvcurveto
          57 -108 rlineto
          -8 5 6 -7 11 hhcurveto
          11 6 7 9 4 hvcurveto
          55 109 rlineto
          -343 -118 rmoveto
          -13 -8 -1 -14 vhcurveto
          262 vlineto
          22 -4 rlineto
          319 -80 rmoveto
          -11 -21 -85 128 rlineto
          15 hlineto
          5 5 -1 -6 4 hvcurveto
          238 -264 rmoveto
          -11 -3 -3 -21 vhcurveto
          285 vlineto
          19 5 -3 -12 hvcurveto
          endchar
        </CharString>
        <CharString name="two">
          -46 485 hmoveto
          79 callgsubr
          8 hvcurveto
          33 vlineto
          16 -8 5 -20 -17 -116 -4 -5 -99 vhcurveto
          158 86 63 99 88 vvcurveto
          84 -52 95 -178 -91 -88 -25 -40 -51 vhcurveto
          -3 callsubr
          -3 15 callsubr
          1 -2 1 -1 vhcurveto
          21 -33 rlineto
          -2 1 -37 callsubr
          6 20 15 16 hhcurveto
          36 24 -29 -89 -78 -44 -110 -58 -77 hvcurveto
          -7 -9 -6 -8 -7 vvcurveto
          -11 7 -2 12 vhcurveto
          286 470 rmoveto
          76 -24 26 -50 -58 vvcurveto
          -88 -64 -79 -158 -86 vhcurveto
          120 91 62 85 77 vvcurveto
          47 -16 50 -46 35 vhcurveto
          endchar
        </CharString>
        <CharString name="twosuperior">
          -175 354 81 callgsubr
          15 2 10 6 hvcurveto
          33 vlineto
          13 -5 5 -15 -12 -84 -3 -4 -72 vhcurveto
          114 72 46 77 75 vvcurveto
          70 -38 80 -128 -66 -65 -21 -34 -36 vhcurveto
          -1 -1 -2 -2 -2 -2 1 -1 -1 vvcurveto
          17 -31 rlineto
          -1 1 60 callsubr
          5 10 12 14 hhcurveto
          25 18 -20 -75 -65 -32 -92 -42 -65 hvcurveto
          -5 -8 -4 -7 -5 vvcurveto
          -9 4 -2 9 vhcurveto
          184 400 rmoveto
          66 -18 22 -45 -53 vvcurveto
          -68 -38 -59 -94 -64 vhcurveto
          76 62 19 66 63 vvcurveto
          42 -12 44 -39 30 vhcurveto
          endchar
        </CharString>
        <CharString name="u">
          -105 callsubr
          endchar
        </CharString>
        <CharString name="uacute">
          -105 callsubr
          105 -68 callsubr
        </CharString>
        <CharString name="ubreve">
          -105 callsubr
          -35 234 -99 callsubr
        </CharString>
        <CharString name="ucircumflex">
          -105 callsubr
          75 141 -75 callgsubr
          2 1 4 34 callsubr
          43 rlineto
          2 2 1 3 2 vvcurveto
          2 -14 callgsubr
          vhcurveto
          -148 126 rlineto
          1 -2 -1 2 -4 hhcurveto
          -3 -2 -3 callsubr
          hvcurveto
          -148 -126 rlineto
          -3 -57 callgsubr
          -2 1 -3 1 27 callsubr
          -43 -100 callsubr
          109 77 rlineto
          endchar
        </CharString>
        <CharString name="udieresis">
          -105 callsubr
          -194 221 -98 callsubr
        </CharString>
        <CharString name="ugrave">
          -105 callsubr
          11 141 -75 callgsubr
          3 1 4 2 hvcurveto
          33 48 rlineto
          2 2 1 3 9 callsubr
          -28 callsubr
          -173 131 rlineto
          2 -42 callgsubr
          -3 -3 hvcurveto
          -44 -63 54 callgsubr
          0 callsubr
          -3 2 -2 -8 callsubr
          endchar
        </CharString>
        <CharString name="uhungarumlaut">
          -105 callsubr
          -4 275 -82 callsubr
          -2 -3 -1 -2 -2 vvcurveto
          -2 2 76 callgsubr
          35 -30 rlineto
          -2 3 13 callsubr
          282 132 -82 callsubr
          -1 -3 -1 -2 -39 callgsubr
          36 -30 rlineto
          -2 2 13 callsubr
          endchar
        </CharString>
        <CharString name="umacron">
          -105 callsubr
          95 171 rmoveto
          -51 callsubr
          78 -23 callsubr
          -7 vhcurveto
          -260 hlineto
          -39 callsubr
          -78 -43 callgsubr
          6 vhcurveto
          endchar
        </CharString>
        <CharString name="underscore">
          -154 392 -250 rmoveto
          -51 callsubr
          88 -40 callgsubr
          -382 60 callgsubr
          -4 -6 hvcurveto
          -88 -43 callgsubr
          6 vhcurveto
          endchar
        </CharString>
        <CharString name="uni00AD">
          1 callsubr
        </CharString>
        <CharString name="uni0312">
          269 634 -14 callsubr
        </CharString>
        <CharString name="uni0315">
          -419 656 vmoveto
          -67 callsubr
        </CharString>
        <CharString name="uni2215">
          -31 callgsubr
        </CharString>
        <CharString name="uogonek">
          -79 callgsubr
          129 72 27 12 32 vhcurveto
          -115 -52 -48 -63 -49 16 callgsubr
          27 41 73 58 68 25 hvcurveto
          8 3 7 3 17 vvcurveto
          -97 callsubr
          endchar
        </CharString>
        <CharString name="uring">
          -105 callsubr
          -160 258 -49 callgsubr
        </CharString>
        <CharString name="utilde">
          -105 callsubr
          68 296 -99 callgsubr
        </CharString>
        <CharString name="v">
          1 316 479 rmoveto
          16 -7 -9 5 -33 hhcurveto
          -238 hlineto
          -13 -16 -7 -17 -5 2 -6 3 -6 hvcurveto
          201 -427 rlineto
          -13 6 8 -19 27 hhcurveto
          77 hlineto
          21 9 11 22 10 hvcurveto
          187 441 rlineto
          3 8 2 5 5 vvcurveto
          6 -4 2 -10 vhcurveto
          -52 18 callsubr
          -183 rlineto
          -20 -56 rmoveto
          -19 -51 -111 278 6 callsubr
          endchar
        </CharString>
        <CharString name="w">
          -101 callsubr
          endchar
        </CharString>
        <CharString name="wacute">
          -101 callsubr
          10 240 -107 callgsubr
        </CharString>
        <CharString name="wcircumflex">
          -101 callsubr
          -20 125 -75 callgsubr
          2 1 4 34 callsubr
          43 rlineto
          2 2 1 3 2 vvcurveto
          2 -14 callgsubr
          vhcurveto
          -148 126 rlineto
          1 -2 -1 2 -4 hhcurveto
          -3 -2 -3 callsubr
          hvcurveto
          -148 -126 rlineto
          -3 -57 callgsubr
          -2 1 -3 1 27 callsubr
          -43 -100 callsubr
          109 77 rlineto
          endchar
        </CharString>
        <CharString name="wdieresis">
          -101 callsubr
          -289 205 -98 callsubr
        </CharString>
        <CharString name="wgrave">
          -101 callsubr
          -84 125 -75 callgsubr
          3 1 4 2 hvcurveto
          33 48 rlineto
          2 2 1 3 9 callsubr
          -28 callsubr
          -173 131 rlineto
          2 -42 callgsubr
          -3 -3 hvcurveto
          -44 -63 54 callgsubr
          0 callsubr
          -3 2 -2 -8 callsubr
          endchar
        </CharString>
        <CharString name="x">
          80 265 29 rmoveto
          -10 5 11 -19 32 hhcurveto
          287 hlineto
          15 18 0 22 7 -5 9 -4 8 hvcurveto
          -139 238 110 179 rlineto
          5 9 3 7 6 vvcurveto
          10 -7 5 -11 vhcurveto
          -55 hlineto
          -27 -7 -19 -21 -13 hvcurveto
          -50 -87 -63 107 rlineto
          12 -8 -8 8 -33 hhcurveto
          -282 hlineto
          -19 -10 -7 -15 -5 2 -7 4 -6 hvcurveto
          125 -217 -126 -206 rlineto
          -6 -9 -2 -7 -6 vvcurveto
          -10 7 -5 9 vhcurveto
          57 hlineto
          25 8 19 21 12 hvcurveto
          67 115 rlineto
          377 -94 rmoveto
          -16 9 -5 -4 -11 hhcurveto
          -22 hlineto
          -244 418 rlineto
          23 hlineto
          14 4 -2 -14 8 hvcurveto
          endchar
        </CharString>
        <CharString name="y">
          -93 callgsubr
          endchar
        </CharString>
        <CharString name="yacute">
          -93 callgsubr
          170 240 -107 callgsubr
        </CharString>
        <CharString name="ycircumflex">
          -93 callgsubr
          140 125 -75 callgsubr
          2 1 4 34 callsubr
          43 rlineto
          2 2 1 3 2 vvcurveto
          2 -14 callgsubr
          vhcurveto
          -148 126 rlineto
          1 -2 -1 2 -4 hhcurveto
          -3 -2 -3 callsubr
          hvcurveto
          -148 -126 rlineto
          -3 -57 callgsubr
          -2 1 -3 1 27 callsubr
          -43 -100 callsubr
          109 77 rlineto
          endchar
        </CharString>
        <CharString name="ydieresis">
          -93 callgsubr
          -129 205 -98 callsubr
        </CharString>
        <CharString name="yen">
          54 594 664 rmoveto
          4 10 2 8 6 vvcurveto
          9 -5 4 -10 vhcurveto
          -47 -30 callsubr
          -4 -12 79 callsubr
          -247 hlineto
          -16 -18 -11 -23 -6 2 -8 4 -9 hvcurveto
          118 -260 rlineto
          -84 hlineto
          -26 callgsubr
          90 -40 -90 hlineto
          -26 callgsubr
          90 -156 hlineto
          -72 callgsubr
          189 hlineto
          68 12 22 45 hvcurveto
          157 90 vlineto
          17 callsubr
          -90 40 90 hlineto
          17 callsubr
          -89 hlineto
          -81 -114 rmoveto
          -143 390 rlineto
          24 -18 callgsubr
          136 -372 rlineto
          -201 4 callgsubr
          endchar
        </CharString>
        <CharString name="ygrave">
          -93 callgsubr
          76 125 -75 callgsubr
          3 1 4 2 hvcurveto
          33 48 rlineto
          2 2 1 3 9 callsubr
          -28 callsubr
          -173 131 rlineto
          2 -42 callgsubr
          -3 -3 hvcurveto
          -44 -63 54 callgsubr
          0 callsubr
          -3 2 -2 -8 callsubr
          endchar
        </CharString>
        <CharString name="z">
          -84 callgsubr
          endchar
        </CharString>
        <CharString name="zacute">
          -84 callgsubr
          -42 250 -107 callgsubr
        </CharString>
        <CharString name="zcaron">
          -84 callgsubr
          -182 243 -107 callsubr
        </CharString>
        <CharString name="zdotaccent">
          -84 callgsubr
          -254 215 -68 callgsubr
        </CharString>
        <CharString name="zero">
          40 30 249 rmoveto
          -148 120 -120 148 148 120 120 148 148 -120 120 -148 -148 -120 -120 -148 vhcurveto
          385 44 callgsubr
          -41 -23 rmoveto
          -68 -55 61 97 97 55 60 68 hvcurveto
          -43 -6 -39 -54 -97 vvcurveto
          -97 39 -54 43 -7 vhcurveto
          endchar
        </CharString>
      <CharString index="0">
        rmoveto
        -42 callsubr
        -57 callsubr
        3 vhcurveto
        -45 63 rlineto
        3 -3 -18 callsubr
        hhcurveto
        -3 -3 callsubr
        -2 hvcurveto
        -173 -131 rlineto
        -3 -3 -2 -2 15 callsubr
        -44 callsubr
        33 -48 -100 callsubr
        endchar
      </CharString>
      <CharString index="1">
        114 327 49 rmoveto
        137 164 39 199 40 -7 33 -13 28 hvcurveto
        71 49 rlineto
        8 6 4 7 7 37 callsubr
        -4 4 vhcurveto
        -24 26 rlineto
        3 -4 59 callsubr
        -6 -7 -3 -7 -7 hvcurveto
        -53 -55 rlineto
        63 -60 -100 16 -87 57 callgsubr
        -59 -175 -85 36 -57 53 -37 hvcurveto
        -34 -31 -36 -45 -72 vvcurveto
        -67 44 -90 121 vhcurveto
        88 66 20 72 hhcurveto
        41 24 -7 -16 7 hvcurveto
        -3 1 2 -5 9 hhcurveto
        36 hlineto
        9 3 6 3 1 hvcurveto
        7 24 9 27 36 vvcurveto
        82 -63 46 -64 vhcurveto
        -67 -48 -20 -71 hhcurveto
        -65 -24 30 39 hvcurveto
        3 0 77 callsubr
        -15 45 50 -6 49 hhcurveto
        173 81 callgsubr
        -3 2 4 -2 4 hhcurveto
        -42 callsubr
        hvcurveto
        33 23 rlineto
        5 -16 3 -20 -25 vvcurveto
        -97 -39 -23 -41 -43 -41 14 103 103 53 14 31 16 15 -4 -9 13 vhcurveto
        -31 -33 rlineto
        -3 -2 -1 -4 -4 vvcurveto
        -3 1 -3 1 -1 vhcurveto
        -53 -197 rmoveto
        -62 -61 40 103 103 73 38 50 hvcurveto
        -25 -5 -58 -38 -98 vvcurveto
        -98 45 -40 38 -5 vhcurveto
        34 -168 rmoveto
        45 -6 27 -34 -48 vvcurveto
        -26 -4 -21 -4 -8 vhcurveto
        -5 8 -16 11 -14 2 rrcurveto
        2 6 2 12 16 vvcurveto
        37 -12 30 -21 21 vhcurveto
        return
      </CharString>
      <CharString index="2">
        74 510 hmoveto
        62 13 22 44 hvcurveto
        -100 callgsubr
        -24 269 -83 callgsubr
        return
      </CharString>
      <CharString index="3">
        54 258 62 callgsubr
        -23 -1 -10 -15 -10 -30 -95 callgsubr
        rlineto
        34 -13 -8 11 -24 hhcurveto
        -161 -404 -11 callgsubr
        437 -48 -66 callgsubr
        return
      </CharString>
      <CharString index="4">
        154 355 -19 rmoveto
        157 168 74 298 -64 callsubr
        hvcurveto
        44 372 rmoveto
        -33 callgsubr
        -90 callgsubr
        return
      </CharString>
      <CharString index="5">
        76 587 67 callsubr
        -69 callgsubr
        547 -60 callgsubr
        -381 vlineto
        -231 133 -40 134 139 136 49 222 vhcurveto
        -219 -185 rmoveto
        -38 593 hlineto
        -83 callsubr
        return
      </CharString>
      <CharString index="6">
        49 callsubr
        2 -43 callsubr
        -18 86 callsubr
        -3 -1 1 -6 -7 -24 -23 -35 hhcurveto
        -96 185 -49 callsubr
        -90 -212 rmoveto
        -66 -1 -80 53 141 vvcurveto
        132 67 53 79 2 vhcurveto
        -51 -8 -55 -47 43 callgsubr
        -143 64 -42 42 -8 vhcurveto
        return
      </CharString>
      <CharString index="7">
        218 vlineto
        198 -131 22 -147 -103 -92 -34 -31 -44 vhcurveto
        -4 -2 -5 -4 -5 20 callsubr
        102 callsubr
        16 -26 rlineto
        -5 3 46 callsubr
        3 4 2 3 4 hvcurveto
        10 17 33 17 27 hhcurveto
        22 29 -5 -51 hvcurveto
        -33 vlineto
        -100 -9 -94 -46 -113 vvcurveto
        -126 112 -37 106 vhcurveto
        return
      </CharString>
      <CharString index="8">
        rmoveto
        -11 -1 80 callgsubr
        -22 -3 -5 -21 -30 -23 -46 47 -47 hhcurveto
        -54 -36 -56 -65 -8 hvcurveto
        -4 -1 -5 -13 13 hhcurveto
        49 hlineto
        13 27 callgsubr
        1 hvcurveto
        21 2 6 20 29 22 47 -47 47 hhcurveto
        53 35 58 66 10 hvcurveto
        7 1 1 8 -9 hhcurveto
        endchar
      </CharString>
      <CharString index="9">
        106 505 627 rmoveto
        -89 callgsubr
        -73 -278 -326 178 -66 142 81 60 26 30 41 hvcurveto
        -14 24 callgsubr
        51 -51 callgsubr
        280 -10 callsubr
        -187 vlineto
        -4 -8 -9 -2 -10 hhcurveto
        -43 -63 42 221 222 63 32 43 hvcurveto
        -189 -254 rmoveto
        225 74 39 64 16 vhcurveto
        -22 -13 -75 -34 -233 vvcurveto
        -233 75 -44 22 -13 vhcurveto
        -64 16 -74 49 225 vvcurveto
        return
      </CharString>
      <CharString index="10">
        -78 callsubr
        -200 154 -67 147 120 84 40 30 42 hvcurveto
        -88 callsubr
        return
      </CharString>
      <CharString index="11">
        -76 callgsubr
        -294 178 -78 147 107 87 37 31 40 hvcurveto
        -85 callgsubr
        return
      </CharString>
      <CharString index="12">
        -89 callsubr
        277 hlineto
        16 17 11 23 7 -1 7 -3 9 hvcurveto
        -225 599 return
      </CharString>
      <CharString index="13">
        118 546 62 callgsubr
        -77 callsubr
        -17 224 0 vvcurveto
        250 -261 rlineto
        -11 11 13 -10 21 hhcurveto
        170 hlineto
        22 12 11 25 hvcurveto
        637 vlineto
        22 -12 6 -12 vhcurveto
        -61 -323 -33 callsubr
        return
      </CharString>
      <CharString index="14">
        5 316 479 rmoveto
        9 -4 -12 12 -24 hhcurveto
        -247 hlineto
        -13 -16 92 callgsubr
        -8 3 -6 hvcurveto
        242 -493 -66 -141 rlineto
        -4 -8 -2 -5 -4 vvcurveto
        -7 5 -2 10 vhcurveto
        63 hlineto
        18 1 7 17 8 hvcurveto
        276 651 rlineto
        3 8 2 6 4 vvcurveto
        6 -4 2 -10 vhcurveto
        -57 18 callsubr
        -179 rlineto
        -22 -56 rmoveto
        -19 -49 -109 272 6 callsubr
        return
      </CharString>
      <CharString index="15">
        hlineto
        -62 -13 -23 -45 hvcurveto
        return
      </CharString>
      <CharString index="16">
        84 487 81 rmoveto
        -15 callgsubr
        202 hlineto
        14 5 7 12 hvcurveto
        27 vlineto
        197 -124 68 -163 -73 callgsubr
        return
      </CharString>
      <CharString index="17">
        -163 -53 -51 -53 -53 -53 51 163 vhcurveto
        -42 hmoveto
        -88 callgsubr
        return
      </CharString>
      <CharString index="18">
        32 21 -21 7 29 callgsubr
        1 3 2 hvcurveto
        21 34 41 callsubr
        78 callsubr
        4 -4 60 callsubr
        vhcurveto
        31 -40 -87 37 41 callgsubr
        -178 return
      </CharString>
      <CharString index="19">
        -163 59 -70 52 -10 vhcurveto
        -77 4 -74 65 174 vvcurveto
        174 74 65 77 4 vhcurveto
        -52 -10 -59 -70 -163 vvcurveto
        return
      </CharString>
      <CharString index="20">
        27 228 rlineto
        49 6 22 18 37 10 11 91 callsubr
        2 0 8 1 hvcurveto
        6 29 rlineto
        1 3 1 4 2 vvcurveto
        7 -5 2 -3 1 vhcurveto
        19 -40 -87 21 -84 hhcurveto
        -93 -489 rmoveto
        64 16 33 47 7 50 26 216 rcurveline
        49 6 30 42 72 hhcurveto
        -40 -7 -23 -35 -6 -49 -26 -216 rcurveline
        -7 -59 -46 -43 -90 -11 rrcurveto
        return
      </CharString>
      <CharString index="21">
        42 callsubr
        358 vlineto
        9 9 17 10 -74 callsubr
        return
      </CharString>
      <CharString index="22">
        27 callgsubr
        2 4 vvcurveto
        1 -1 2 -1 2 vhcurveto
        -21 33 rlineto
        3 -2 103 callgsubr
        -7 -21 -21 -32 hhcurveto
        -43 -63 34 241 hvcurveto
        -83 hmoveto
        241 74 42 64 17 vhcurveto
        -22 -14 -75 -36 -250 vvcurveto
        -251 75 -36 22 -14 vhcurveto
        -64 17 -74 42 242 vvcurveto
        return
      </CharString>
      <CharString index="23">
        6 32 440 rmoveto
        -13 10 -2 7 33 133 7 0 vhcurveto
        -190 -368 rlineto
        -11 -21 -4 -10 -13 vvcurveto
        -10 9 -10 19 vhcurveto
        490 hlineto
        22 6 28 callgsubr
        35 vlineto
        13 -12 3 -11 -20 -161 -6 0 vhcurveto
        194 381 rlineto
        6 11 3 10 9 vvcurveto
        15 -9 5 -24 vhcurveto
        -472 hlineto
        -15 -3 -5 -11 hvcurveto
        272 -417 rmoveto
        -42 -2 201 394 rlineto
        17 hlineto
        11 5 -4 -7 95 callsubr
        -3 -4 hvcurveto
        return
      </CharString>
      <CharString index="24">
        rmoveto
        -207 vlineto
        -94 -31 45 56 55 31 51 94 85 callsubr
        27 rmoveto
        88 -29 45 -16 16 vhcurveto
        34 -11 49 -34 -106 vvcurveto
        -222 4 callgsubr
        return
      </CharString>
      <CharString index="25">
        vlineto
        -83 callsubr
        return
      </CharString>
      <CharString index="26">
        rmoveto
        -57 -70 34 135 135 82 34 45 hvcurveto
        -31 -8 -55 -29 -20 callsubr
        43 -29 43 -8 vhcurveto
        return
      </CharString>
      <CharString index="27">
        -29 -7 -2 -31 vhcurveto
        return
      </CharString>
      <CharString index="28">
        52 405 419 rmoveto
        31 5 50 -76 -9 callsubr
        -92 callgsubr
        -275 vlineto
        -123 64 -44 140 return
      </CharString>
      <CharString index="29">
        vhcurveto
        -74 callgsubr
        return
      </CharString>
      <CharString index="30">
        45 26 callsubr
        61 vhcurveto
        418 hlineto
        22 10 40 callsubr
        -7 3 -12 -21 -120 -18 0 230 0 323 0 vhcurveto
        -19 callsubr
        -571 rmoveto
        -38 -6 rlineto
        604 -82 callgsubr
        return
      </CharString>
      <CharString index="31">
        399 353 rmoveto
        240 63 34 43 vhcurveto
        -89 callgsubr
        -78 -293 return
      </CharString>
      <CharString index="32">
        rmoveto
        -2 2 -45 callgsubr
        3 return
      </CharString>
      <CharString index="33">
        -218 -92 callgsubr
        return
      </CharString>
      <CharString index="34">
        -56 callsubr
        -202 154 -65 147 return
      </CharString>
      <CharString index="35">
        -11 callsubr
        62 vhcurveto
        return
      </CharString>
      <CharString index="36">
        68 callgsubr
        4 -8 6 vhcurveto
        -22 16 rlineto
        4 -6 -4 2 -47 callgsubr
        -2 4 3 -2 31 callsubr
        -164 531 13 callgsubr
        -74 74 -93 -92 -74 -41 callgsubr
        133 -285 -35 callsubr
        -399 354 rmoveto
        -51 -35 37 60 61 35 38 51 hvcurveto
        -27 -5 -24 -33 -61 vvcurveto
        -60 24 -33 27 -4 vhcurveto
        361 -369 -2 callgsubr
        return
      </CharString>
      <CharString index="37">
        164 738 689 11 callgsubr
        -34 22 rlineto
        2 -3 -3 1 -2 hhcurveto
        -4 -3 -2 -4 -3 hvcurveto
        -70 -118 rlineto
        88 -63 -100 27 -95 98 callgsubr
        -230 100 -97 118 -32 hvcurveto
        -66 -112 rlineto
        -2 -4 0 callsubr
        -5 2 -3 4 27 callsubr
        -23 rlineto
        -2 2 3 -1 3 hhcurveto
        4 4 3 4 2 hvcurveto
        82 138 rlineto
        -1 12 13 0 12 hhcurveto
        157 168 74 298 76 -11 62 -19 50 hvcurveto
        -39 -188 rmoveto
        -163 -53 -51 -53 -25 -25 11 30 -20 vhcurveto
        166 278 rlineto
        6 -28 4 -34 -43 vvcurveto
        -212 hmoveto
        5 callgsubr
        22 23 -9 -24 19 vhcurveto
        -163 -274 rlineto
        -5 26 -2 30 37 vvcurveto
        -42 hmoveto
        -88 callgsubr
        return
      </CharString>
      <CharString index="38">
        -58 callgsubr
        -470 vlineto
        -83 -25 -41 -58 -11 vhcurveto
        return
      </CharString>
      <CharString index="39">
        rmoveto
        -39 33 -32 39 40 32 32 39 40 -32 33 -40 -39 -33 -33 -40 vhcurveto
        endchar
      </CharString>
      <CharString index="40">
        2 78 callgsubr
        return
      </CharString>
      <CharString index="41">
        rmoveto
        -13 5 -4 -4 -12 hhcurveto
        -24 hlineto
        -230 619 rlineto
        17 hlineto
        18 5 -2 -13 5 hvcurveto
        return
      </CharString>
      <CharString index="42">
        -29 callgsubr
        122 71 rmoveto
        35 -4 28 93 callgsubr
        -28 -30 -35 -4 vhcurveto
        15 31 callgsubr
        -15 19 vhcurveto
        return
      </CharString>
      <CharString index="43">
        53 393 517 rmoveto
        -116 -109 -29 -100 -15 hvcurveto
        -34 -235 rlineto
        -73 -11 -47 -3 -43 hhcurveto
        -9 -3 -4 -5 -1 hvcurveto
        -5 -27 45 callsubr
        -2 vvcurveto
        -6 3 -1 5 -2 vhcurveto
        return
      </CharString>
      <CharString index="44">
        -2 callsubr
        -88 224 hlineto
        20 -15 6 -9 -12 -16 -5 -9 -24 vhcurveto
        -270 -99 rlineto
        -13 -5 -1 -11 -10 vvcurveto
        -111 -16 callgsubr
        369 -212 rmoveto
        -37 13 -15 20 -16 vhcurveto
        -27 -44 12 58 hvcurveto
        464 vlineto
        8 4 rlineto
        3 7 7 1 4 hhcurveto
        11 1 -9 -13 hvcurveto
        return
      </CharString>
      <CharString index="45">
        17 vhcurveto
        31 -51 callgsubr
        return
      </CharString>
      <CharString index="46">
        71 callsubr
        -3 3 -1 vhcurveto
        -21 41 63 -12 85 hhcurveto
        116 171 29 236 hvcurveto
        387 vlineto
        11 callsubr
        -218 hlineto
        -67 -4 -37 -31 hvcurveto
        -489 vlineto
        -51 -20 -25 -41 vhcurveto
        -28 -18 9 -7 25 callgsubr
        444 188 rmoveto
        -91 -18 -53 -49 -42 vhcurveto
        27 58 2 52 60 vvcurveto
        421 -82 callgsubr
        return
      </CharString>
      <CharString index="47">
        vlineto
        -71 callsubr
        return
      </CharString>
      <CharString index="48">
        134 163 630 rmoveto
        -562 vlineto
        -11 callsubr
        61 vhcurveto
        218 hlineto
        59 13 23 44 hvcurveto
        563 vlineto
        -59 callsubr
        return
      </CharString>
      <CharString index="49">
        -38 callgsubr
        -51 hlineto
        -17 -3 -12 -11 hvcurveto
        return
      </CharString>
      <CharString index="50">
        -3 -1 -2 -2 vvcurveto
        return
      </CharString>
      <CharString index="51">
        -506 rmoveto
        64 37 39 66 5 60 30 355 rcurveline
        4 46 11 57 93 4 -46 -11 -18 -44 -5 -52 -29 -355 rcurveline
        -5 -64 -44 -76 -99 -23 rrcurveto
        return
      </CharString>
      <CharString index="52">
        89 63 446 rmoveto
        -637 vlineto
        -30 25 -12 23 vhcurveto
        153 hlineto
        39 11 16 36 hvcurveto
        238 vlineto
        5 2 rlineto
        -63 11 22 -16 28 hhcurveto
        34 12 31 48 10 hvcurveto
        4 -1 rlineto
        -51 6 -7 23 vhcurveto
        89 hlineto
        11 13 1 22 hvcurveto
        451 vlineto
        22 -13 1 -11 vhcurveto
        -111 hlineto
        -24 -1 -12 -11 hvcurveto
        -335 vlineto
        -42 -25 -13 -30 -31 -22 17 38 vhcurveto
        310 vlineto
        26 -13 22 -37 vhcurveto
        -152 hlineto
        -35 -14 -23 -28 hvcurveto
        210 -607 -84 callsubr
        651 -82 callgsubr
        262 -356 -84 callsubr
        418 -82 callgsubr
        endchar
      </CharString>
      <CharString index="53">
        rmoveto
        -62 51 -51 62 62 51 51 62 -48 callsubr
        return
      </CharString>
      <CharString index="54">
        4 3 8 hvcurveto
        return
      </CharString>
      <CharString index="55">
        hlineto
        -53 -36 -10 -75 hvcurveto
        -548 vlineto
        -11 callsubr
        61 vhcurveto
        return
      </CharString>
      <CharString index="56">
        hlineto
        12 12 1 22 hvcurveto
        return
      </CharString>
      <CharString index="57">
        22 callsubr
        387 vlineto
        62 -2 21 -17 -60 vvcurveto
        -364 24 callgsubr
        41 -51 callgsubr
        359 vlineto
        84 -40 44 -93 9 vhcurveto
        150 116 rlineto
        8 7 3 6 6 37 callsubr
        -5 4 vhcurveto
        -27 29 rlineto
        6 -6 -4 4 -7 hhcurveto
        -7 -6 -5 -10 -10 hvcurveto
        -122 -118 rlineto
        57 vlineto
        31 -4 39 -67 83 callsubr
        -561 -84 callsubr
        619 -82 callgsubr
        return
      </CharString>
      <CharString index="58">
        rmoveto
        -69 56 -56 70 69 55 56 69 69 -55 57 -69 -70 -56 -57 -69 vhcurveto
        72 1 rmoveto
        29 24 24 30 29 23 -24 -29 -31 -23 -23 -29 -30 -24 23 31 vhcurveto
        endchar
      </CharString>
      <CharString index="59">
        -1 2 hhcurveto
        return
      </CharString>
      <CharString index="60">
        65 callsubr
        -10 -7 hvcurveto
        -422 -25 callgsubr
        7 46 callgsubr
        return
      </CharString>
      <CharString index="61">
        139 60 256 rmoveto
        -188 vlineto
        -72 callgsubr
        230 hlineto
        142 158 47 326 278 -148 50 -147 hvcurveto
        -235 -92 callgsubr
        -307 -50 vlineto
        -39 callsubr
        -49 -43 callgsubr
        6 vhcurveto
        414 hmoveto
        77 hlineto
        20 callgsubr
        49 -23 callsubr
        -8 vhcurveto
        -77 307 hlineto
        45 callgsubr
        -162 -51 -132 -121 -1 vhcurveto
        -56 -1 99 callgsubr
      </CharString>
      <CharString index="62">
        2 -48 callgsubr
        return
      </CharString>
      <CharString index="63">
        10 22 45 hvcurveto
        365 vlineto
        47 -10 21 return
      </CharString>
      <CharString index="64">
        vlineto
        -8 4 -3 return
      </CharString>
      <CharString index="65">
        -3 22 callgsubr
        hhcurveto
        -13 callsubr
        return
      </CharString>
      <CharString index="66">
        -74 -93 vhcurveto
        228 -83 rmoveto
        -27 -24 23 60 61 24 23 27 27 24 -23 -61 -60 -24 -23 -27 hvcurveto
        return
      </CharString>
      <CharString index="67">
        vlineto
        -35 callgsubr
        return
      </CharString>
      <CharString index="68">
        -2 vvcurveto
        -2 1 76 callgsubr
        return
      </CharString>
      <CharString index="69">
        22 -12 1 -12 vhcurveto
        return
      </CharString>
      <CharString index="70">
        vlineto
        12 -7 5 -5 2 vhcurveto
        22 -44 -90 19 -72 hhcurveto
        -124 -139 48 callgsubr
        return
      </CharString>
      <CharString index="71">
        55 callsubr
        35 31 44 vhcurveto
        19 8 -5 9 hhcurveto
        2 4 0 8 hvcurveto
        35 -37 callgsubr
        -295 -60 callsubr
        vlineto
        return
      </CharString>
      <CharString index="72">
        6 -22 callgsubr
        return
      </CharString>
      <CharString index="73">
        2 callsubr
        5 8 24 callsubr
        -4 102 callsubr
        return
      </CharString>
      <CharString index="74">
        5 callgsubr
        53 53 -51 -163 return
      </CharString>
      <CharString index="75">
        124 -75 callsubr
        230 hlineto
        142 158 47 326 278 -148 50 -147 hvcurveto
        -235 -92 callgsubr
        536 -270 rmoveto
        -162 -50 -132 -122 -1 vhcurveto
        565 vlineto
        45 callgsubr
        -213 -296 63 callsubr
        return
      </CharString>
      <CharString index="76">
        -391 325 -21 callgsubr
        5 -9 5 vhcurveto
        -22 16 rlineto
        3 -5 59 callsubr
        -6 -4 -3 -10 -7 hvcurveto
        -423 -25 callgsubr
        8 46 callgsubr
        -3 3 3 -1 4 hhcurveto
        9 5 7 5 4 hvcurveto
        endchar
      </CharString>
      <CharString index="77">
        229 322 rmoveto
        16 63 callgsubr
        -5 5 -7 -8 -9 -12 -3 -3 vhcurveto
        -173 75 callsubr
        -5 -6 -5 -6 vvcurveto
        -6 6 -5 4 -5 vhcurveto
        173 75 callsubr
        3 9 -11 8 hhcurveto
        7 5 62 callsubr
        -16 16 vhcurveto
        -64 68 rlineto
        return
      </CharString>
      <CharString index="78">
        rmoveto
        -62 51 77 callgsubr
        51 51 62 -28 callgsubr
        return
      </CharString>
      <CharString index="79">
        26 callgsubr
        -51 -51 -62 vhcurveto
        return
      </CharString>
      <CharString index="80">
        -38 callsubr
        7 -4 6 17 callgsubr
        endchar
      </CharString>
      <CharString index="81">
        -7 -3 -3 -7 30 callsubr
        return
      </CharString>
      <CharString index="82">
        -655 rlineto
        -4 -6 -2 -5 -4 vvcurveto
        -8 7 -5 return
      </CharString>
      <CharString index="83">
        -157 -168 -73 -298 return
      </CharString>
      <CharString index="84">
        29 callsubr
        515 31 -7 callgsubr
      </CharString>
      <CharString index="85">
        -3 4 -7 vhcurveto
        return
      </CharString>
      <CharString index="86">
        659 rmoveto
        3 5 2 4 4 vvcurveto
        6 -3 return
      </CharString>
      <CharString index="87">
        -33 hhcurveto
        -193 hlineto
        -12 -14 -6 return
      </CharString>
      <CharString index="88">
        52 callgsubr
        -41 51 callsubr
        -235 4 callsubr
        41 -1 callgsubr
        return
      </CharString>
      <CharString index="89">
        hlineto
        10 7 -4 -11 4 hvcurveto
        return
      </CharString>
      <CharString index="90">
        -13 -27 -8 hvcurveto
        -60 -199 rlineto
        -1 -6 -1 -5 -4 vvcurveto
        -18 12 -8 33 vhcurveto
        211 -84 hlineto
        -7 2 -7 11 vhcurveto
        49 hlineto
        12 4 4 10 hvcurveto
        84 45 vlineto
        4 3 2 4 hvcurveto
        44 vlineto
        5 -2 2 -5 vhcurveto
        return
      </CharString>
      <CharString index="91">
        -51 vlineto
        -7 -3 -4 -6 30 callsubr
        return
      </CharString>
      <CharString index="92">
        -38 -45 28 97 -11 hvcurveto
        return
      </CharString>
      <CharString index="93">
        -2 21 callgsubr
        return
      </CharString>
      <CharString index="94">
        -114 -21 -99 -66 -160 vvcurveto
        -193 142 -56 143 -4 vhcurveto
        213 hlineto
        62 13 42 callsubr
        return
      </CharString>
      <CharString index="95">
        -78 callgsubr
        -565 vlineto
        -72 callgsubr
        return
      </CharString>
      <CharString index="96">
        rmoveto
        55 -191 rlineto
        -106 hlineto
        return
      </CharString>
      <CharString index="97">
        -93 18 -95 hhcurveto
        -116 -120 -42 -143 -14 hvcurveto
        return
      </CharString>
      <CharString index="98">
        vlineto
        -38 callgsubr
        return
      </CharString>
      <CharString index="99">
        hlineto
        -69 -35 -45 -52 -48 vvcurveto
        -83 75 -27 71 28 46 4 11 25 vhcurveto
        13 5 7 24 callsubr
        -3 2 -4 vhcurveto
        -14 -19 -15 -62 hhcurveto
        -57 -17 19 27 41 74 53 66 30 hvcurveto
        return
      </CharString>
      <CharString index="100">
        -84 callsubr
        418 7 callsubr
      </CharString>
      <CharString index="101">
        -7 hvcurveto
        -83 3 callsubr
        return
      </CharString>
      <CharString index="102">
        11 callsubr
        -214 hlineto
        return
      </CharString>
      <CharString index="103">
        -29 -6 -2 -32 vhcurveto
        return
      </CharString>
      <CharString index="104">
        -19 309 67 callsubr
        56 callgsubr
        -37 32 callsubr
        -180 -7 callsubr
        return
      </CharString>
      <CharString index="105">
        rmoveto
        -51 -35 37 61 61 35 37 51 hvcurveto
        -27 -5 -24 -32 -61 vvcurveto
        -61 24 -32 27 -5 vhcurveto
        return
      </CharString>
      <CharString index="106">
        hlineto
        17 3 12 11 hvcurveto
        return
      </CharString>
      <CharString index="107">
        vvcurveto
        -10 7 1 4 58 callsubr
        -57 -20 15 -16 2 callgsubr
        32 92 52 callsubr
        return
      </CharString>
      <CharString index="108">
        vlineto
        7 -3 return
      </CharString>
      <CharString index="109">
        hhcurveto
        -3 95 callsubr
        hvcurveto
        -47 vlineto
        -29 68 -6 27 86 84 return
      </CharString>
      <CharString index="110">
        90 -73 73 -89 -90 -73 -73 -90 return
      </CharString>
      <CharString index="111">
        vlineto
        -4 callgsubr
        return
      </CharString>
      <CharString index="112">
        163 53 51 53 return
      </CharString>
      <CharString index="113">
        -599 rlineto
        -19 7 9 -26 29 hhcurveto
        return
      </CharString>
      <CharString index="114">
        2 -2 3 return
      </CharString>
      <CharString index="115">
        vvcurveto
        -1 0 -5 0 vhcurveto
        3 -38 rlineto
        -6 1 5 -3 6 3 3 1 1 hhcurveto
        return
      </CharString>
      <CharString index="116">
        52 405 732 rmoveto
        47 -12 21 -59 -9 callsubr
        -92 callgsubr
        return
      </CharString>
      <CharString index="117">
        59 callgsubr
        -40 callsubr
        9 26 26 vvcurveto
        27 -9 25 95 callgsubr
        return
      </CharString>
      <CharString index="118">
        rmoveto
        2 4 1 77 callsubr
        4 -2 3 -4 2 vhcurveto
        return
      </CharString>
      <CharString index="119">
        599 732 rmoveto
        -5 callgsubr
        -60 -11 -23 -46 hvcurveto
        return
      </CharString>
      <CharString index="120">
        rmoveto
        -92 74 -74 92 93 74 74 92 93 return
      </CharString>
      <CharString index="121">
        -13 -43 -23 -115 vvcurveto
        return
      </CharString>
      <CharString index="122">
        29 callsubr
        515 31 25 callsubr
      </CharString>
      <CharString index="123">
        -41 callsubr
        -15 -18 -15 -63 hhcurveto
        -56 -18 19 return
      </CharString>
      <CharString index="124">
        -5 vhcurveto
        70 -46 rlineto
        -3 4 4 -1 4 hhcurveto
        7 7 5 7 4 hvcurveto
        return
      </CharString>
      <CharString index="125">
        20 callgsubr
        83 -23 callsubr
        -8 vhcurveto
        return
      </CharString>
      <CharString index="126">
        26 vvcurveto
        27 -10 25 return
      </CharString>
      <CharString index="127">
        7 -53 callgsubr
        return
      </CharString>
      <CharString index="128">
        2 -3 3 return
      </CharString>
      <CharString index="129">
        -2 1 -2 return
      </CharString>
      <CharString index="130">
        hhcurveto
        2 3 1 4 1 hvcurveto
        7 35 return
      </CharString>
      <CharString index="131">
        vlineto
        19 callsubr
        return
      </CharString>
      <CharString index="132">
        hhcurveto
        -4 -3 -2 -8 hvcurveto
        return
      </CharString>
      <CharString index="133">
        62 -51 51 -62 -62 return
      </CharString>
      <CharString index="134">
        2 2 4 return
      </CharString>
      <CharString index="135">
        12 12 hvcurveto
        return
      </CharString>
      <CharString index="136">
        hhcurveto
        4 1 return
      </CharString>
      <CharString index="137">
        -5 -10 hvcurveto
        -107 vlineto
        -13 -1 -20 15 -16 vhcurveto
        65 -68 rlineto
        return
      </CharString>
      <CharString index="138">
        19 10 26 19 callgsubr
        return
      </CharString>
      <CharString index="139">
        8 hhcurveto
        5 5 90 callsubr
        return
      </CharString>
      <CharString index="140">
        28 callgsubr
        45 vlineto
        return
      </CharString>
      <CharString index="141">
        rmoveto
        115 69 37 return
      </CharString>
      <CharString index="142">
        vhcurveto
        49 -32 rlineto
        -4 5 6 -3 76 callsubr
        3 9 6 hvcurveto
        140 189 rlineto
        4 6 2 5 return
      </CharString>
      <CharString index="143">
        -72 callgsubr
        214 hlineto
        59 12 22 46 hvcurveto
        133 vlineto
        113 18 100 71 164 vvcurveto
        return
      </CharString>
      <CharString index="144">
        vlineto
        56 callgsubr
        -38 32 callsubr
        return
      </CharString>
      <CharString index="145">
        1 2 1 return
      </CharString>
      <CharString index="146">
        3 2 2 return
      </CharString>
      <CharString index="147">
        rlineto
        10 -3 -13 79 callsubr
        return
      </CharString>
      <CharString index="148">
        -107 hhcurveto
        -147 return
      </CharString>
      <CharString index="149">
        -3 -2 vvcurveto
        return
      </CharString>
      <CharString index="150">
        -132 vvcurveto
        return
      </CharString>
      <CharString index="151">
        -135 rmoveto
        -43 -39 38 97 97 39 38 43 43 39 -38 -97 -97 -39 -38 -43 hvcurveto
        return
      </CharString>
      <CharString index="152">
        121 -2 51 -106 -162 vvcurveto
        return
      </CharString>
      <CharString index="153">
        -4 vhcurveto
        23 -15 rlineto
        return
      </CharString>
      <CharString index="154">
        hlineto
        79 callgsubr
        return
      </CharString>
      <CharString index="155">
        -41 -211 hvcurveto
        return
      </CharString>
      <CharString index="156">
        2 hhcurveto
        3 3 2 4 2 hvcurveto
        42 72 rlineto
        2 2 0 2 2 vvcurveto
        4 -2 return
      </CharString>
      <CharString index="157">
        -35 hlineto
        49 185 rlineto
        13 hlineto
        13 4 -6 -8 -2 0 -3 -1 -3 hvcurveto
        return
      </CharString>
      <CharString index="158">
        rmoveto
        -15 -16 1 -20 -13 vvcurveto
        -107 vlineto
        -10 return
      </CharString>
      <CharString index="159">
        rmoveto
        11 -3 12 -17 vhcurveto
        return
      </CharString>
      <CharString index="160">
        2 3 0 2 return
      </CharString>
      <CharString index="161">
        rlineto
        -3 -3 return
      </CharString>
</ttFont>
